<svg width="72" height="60" viewBox="0 0 72 60" xmlns="http://www.w3.org/2000/svg"><title>0870396E-B5FD-4275-9A46-7F3BEF90FF9E</title><g fill="none" fill-rule="evenodd"><circle cx="30" cy="30" r="30" fill="#CDC6FF"/><g fill-rule="nonzero" fill="#9079C0"><path d="M66.434 33.91l-8.15-7.247a1.077 1.077 0 1 0-1.43 1.61l7.244 6.442-7.244 6.444a1.077 1.077 0 1 0 1.431 1.609l8.149-7.248a1.077 1.077 0 0 0 0-1.61zM45.147 41.158l-7.245-6.443 7.244-6.443a1.077 1.077 0 0 0-1.431-1.61l-8.149 7.249a1.077 1.077 0 0 0 0 1.609l8.149 7.248a1.075 1.075 0 0 0 1.52-.089 1.077 1.077 0 0 0-.088-1.52zM53.574 26.128a1.078 1.078 0 0 0-1.343.719L47.708 41.78a1.077 1.077 0 0 0 2.061.625l4.523-14.934c.173-.569-.149-1.17-.718-1.343z"/><path d="M70.923 10H31.077c-.595 0-1.077.482-1.077 1.077v39.846c0 .595.482 1.077 1.077 1.077h39.846c.595 0 1.077-.482 1.077-1.077V11.077c0-.595-.482-1.077-1.077-1.077zm-32.308 2.154h24.77v4.308h-24.77v-4.308zm-6.461 0h4.308v4.308h-4.308v-4.308zm37.692 37.692H32.154v-31.23h37.692v31.23zm0-33.384h-4.308v-4.308h4.308v4.308z"/></g></g></svg>