<svg width="70" height="60" viewBox="0 0 70 60" xmlns="http://www.w3.org/2000/svg"><title>F2E82ECE-E98D-41D7-8F00-D088963B045E</title><g fill="none" fill-rule="evenodd"><circle cx="30" cy="30" r="30" fill="#CDC6FF"/><g fill-rule="nonzero" fill="#9079C0"><path d="M69.724 7.316A.953.953 0 0 0 69.017 7H28.983a.957.957 0 0 0-.95 1.054l3.813 38.334c.037.373.29.693.647.812l17.157 5.75c.097.035.2.05.301.05a.98.98 0 0 0 .338-.061l15.25-5.75a.956.956 0 0 0 .615-.801l3.812-38.334a.96.96 0 0 0-.242-.738zm-5.412 38.288l-14.38 5.422-16.252-5.447-3.647-36.662h37.928l-3.649 36.687z"/><path d="M62.14 16.951a.953.953 0 0 0-.75-.368h-9.532a.956.956 0 0 0-.954.959v11.5c0 .529.428.958.954.958h6.483l-1.601 8.853-5.183 1.739a.959.959 0 0 0 .604 1.819l5.72-1.917a.953.953 0 0 0 .634-.738l1.906-10.542a.96.96 0 0 0-.938-1.13h-6.672V18.5h7.357l-.656 2.643a.958.958 0 0 0 .694 1.162.956.956 0 0 0 1.155-.698l.953-3.833a.962.962 0 0 0-.173-.823zM48.043 16.583H36.605a.956.956 0 0 0-.953.959c0 .529.427.958.953.958H47.09v21.73l-4.898-1.408-.839-4.218a.948.948 0 0 0-1.12-.752.958.958 0 0 0-.748 1.127l.953 4.792c.07.353.33.634.673.734l6.673 1.917a.945.945 0 0 0 .833-.157.96.96 0 0 0 .38-.765V17.542a.956.956 0 0 0-.954-.959z"/></g></g></svg>