<svg width="87" height="81" viewBox="0 0 87 81" xmlns="http://www.w3.org/2000/svg"><title>B385D131-5D7E-42E9-83AB-A4E0521D5019</title><g fill="none" fill-rule="evenodd"><path d="M66.484 36.493c-2.825 0-4.936-2.302-4.936-5.143v-1.715c0-2.84 2.11-5.143 4.936-5.143 2.825 0 4.935 2.302 4.935 5.143v1.715c0 2.841-2.11 5.143-4.935 5.143" fill="#FFF"/><path d="M66.484 36.493c-2.825 0-4.936-2.302-4.936-5.143v-1.715c0-2.84 2.11-5.143 4.936-5.143 2.825 0 4.935 2.302 4.935 5.143v1.715c0 2.841-2.11 5.143-4.935 5.143z" stroke="#673DF7" stroke-width="2"/><path d="M69.226 40.037h-24.13c0 2.185 2.175 5.463 5.485 5.463h8.774V75h13.161V60.796h1.097c2.352 0 4.387-2.026 4.387-4.37v-9.833c0-4.904-3.567-6.556-8.774-6.556" fill="#CDC4FF"/><path d="M59.355 75V45.5H50.58c-3.31 0-5.484-3.278-5.484-5.463h24.129c5.207 0 8.774 1.652 8.774 6.556v9.833c0 2.344-2.035 4.37-4.387 4.37" stroke="#673DF7" stroke-width="2"/><path d="M65.935 58.611V75M72.516 46.593V75" stroke="#671CFF" stroke-width="2"/><path stroke="#6730FB" stroke-width="2" d="M52.774 36.76v-5.464H14.387V57.52h38.387v-8.741"/><path fill="#CDC3FF" d="M30.839 38.702v10.925l9.06-5.462z"/><path stroke="#671CFF" stroke-width="2" d="M30.839 38.702v10.925l9.06-5.462z"/><path stroke="#6730FB" stroke-width="2" stroke-linejoin="round" d="M54.968 61.889H10V16h47.161v20.76M10 22.556h47.161"/><path d="M13.29 19.278h2.194M17.677 19.278h2.194M22.065 19.278h2.193" stroke="#2A5082" stroke-width="2" stroke-linejoin="round"/><path d="M13.29 26.926h23.033" stroke="#6730FB" stroke-width="2" stroke-linejoin="round"/></g></svg>