<svg width="87" height="81" viewBox="0 0 87 81" xmlns="http://www.w3.org/2000/svg"><title>A6210FB5-C2A1-49AF-9D0B-8CDA01573AE1</title><g fill="none" fill-rule="evenodd"><path d="M51.984 29.241c0 11.13-8.951 20.152-19.992 20.152S12 40.37 12 29.24C12 18.111 20.951 9.09 31.992 9.09c11.04 0 19.992 9.023 19.992 20.152" fill="#E9EBEC"/><path d="M69.438 22.16c2.968 0 5.24 2.278 5.24 5.089v33.037H17.402V27.249c0-2.908 1.792-5.088 4.76-5.088h47.275z" fill="#FFF"/><path d="M69.438 22.16c2.968 0 5.24 2.278 5.24 5.089v33.037H17.402V27.249c0-2.908 1.792-5.088 4.76-5.088h47.275z" stroke="#6700FF" stroke-width="2"/><path d="M79 60.286H12v1.08C12 65.177 15.066 69 18.85 69h53.302C75.934 69 79 65.178 79 61.365v-1.08z" fill="#FFF"/><path d="M79 60.286H12v1.08C12 65.177 15.066 69 18.85 69h53.302C75.934 69 79 65.178 79 61.365v-1.08zM41.177 64.643h11.888M21.726 57.018v-30.5h48.629v30.5" stroke="#6700FF" stroke-width="2"/><path d="M79 11.268v17.484c0 1.774-1.426 3.212-3.187 3.212H58.332l-6.58 8.423c-.634.812-1.93.36-1.93-.675v-7.748H47.68c-1.793 0-3.26-1.479-3.26-3.286v-17.41C44.42 9.463 45.87 8 47.66 8h28.097C77.548 8 79 9.463 79 11.268" fill="#FFF"/><path d="M79 11.268v17.484c0 1.774-1.426 3.212-3.187 3.212H58.332l-6.58 8.423c-.634.812-1.93.36-1.93-.675v-7.748H47.68c-1.793 0-3.26-1.479-3.26-3.286v-17.41C44.42 9.463 45.87 8 47.66 8h28.097C77.548 8 79 9.463 79 11.268zM56.306 19.982h2.162M60.629 19.982h2.161M64.952 19.982h2.16" stroke="#6700FF" stroke-width="2"/><path d="M37.935 42.903c2.618 0 4.323-2.158 4.323-4.821v-1.608c0-2.662-1.705-4.82-4.323-4.82-2.617 0-4.322 2.158-4.322 4.82v1.608c0 2.663 1.705 4.821 4.322 4.821" fill="#FFF"/><path d="M37.935 42.903c2.618 0 4.323-2.158 4.323-4.821v-1.608c0-2.662-1.705-4.82-4.323-4.82-2.617 0-4.322 2.158-4.322 4.82v1.608c0 2.663 1.705 4.821 4.322 4.821z" stroke="#6700FF" stroke-width="2"/><path d="M35.774 46.125c-5.13 0-7.564 1.647-7.564 6.536v4.357h16.21V51.57h6.483c3.262 0 5.403-3.029 5.403-5.446H35.774z" fill="#CDC3FF"/><path d="M44.42 57.018V51.57h6.483c3.262 0 5.403-3.029 5.403-5.446H35.774c-5.13 0-7.564 1.647-7.564 6.536v4.357M33.613 51.571v5.447" stroke="#6700FF" stroke-width="2"/></g></svg>