<svg width="12" height="12" viewBox="0 0 12 12" xmlns="http://www.w3.org/2000/svg" xmlns:xlink="http://www.w3.org/1999/xlink"><title>DE4F4AEC-E9BE-422F-872B-1C2C5DE67376</title><defs><path id="b" d="M0 0h8v12H0z"/><path d="M6.013 5.94L2.56 9.308a.573.573 0 0 1-.796 0 .54.54 0 0 1 0-.776l3.055-2.98-3.054-2.98a.539.539 0 0 1 0-.775.571.571 0 0 1 .795 0l3.453 3.368a.538.538 0 0 1 0 .775z" id="a"/><mask id="d" x="-1" y="-1" width="6.577" height="9.832"><path fill="#fff" d="M.6.636h6.577v9.832H.6z"/><use xlink:href="#a"/></mask></defs><g transform="rotate(90 4.5 7.5)" fill="none" fill-rule="evenodd"><mask id="c" fill="#fff"><use xlink:href="#b"/></mask><g mask="url(#c)"><use fill="#2D97DE" xlink:href="#a"/><use stroke="#2D97DE" mask="url(#d)" stroke-width="2" stroke-linecap="round" stroke-linejoin="round" xlink:href="#a"/></g></g></svg>
