<svg width="192" height="192" viewBox="0 0 192 192" xmlns="http://www.w3.org/2000/svg" xmlns:xlink="http://www.w3.org/1999/xlink"><title>5C12F61F-CC84-4DF5-8D78-BE6FBB8D6B1D</title><defs><ellipse id="b" cx="96" cy="85" rx="82" ry="82"/><filter x="-50%" y="-50%" width="200%" height="200%" filterUnits="objectBoundingBox" id="a"><feOffset dy="11" in="SourceAlpha" result="shadowOffsetOuter1"/><feGaussianBlur stdDeviation="7" in="shadowOffsetOuter1" result="shadowBlurOuter1"/><feColorMatrix values="0 0 0 0 0 0 0 0 0 0 0 0 0 0 0 0 0 0 0.0640002264 0" in="shadowBlurOuter1"/></filter><path id="c" d="M0 25.6V0h51.429v51.2H0z"/></defs><g fill="none" fill-rule="evenodd"><g><use fill="#000" filter="url(#a)" xlink:href="#b"/><use fill="#FFF" xlink:href="#b"/></g><g transform="translate(67 53)"><mask id="d" fill="#fff"><use xlink:href="#c"/></mask><path d="M51.429 25.6c0 14.138-11.513 25.6-25.715 25.6C11.513 51.2 0 39.738 0 25.6 0 11.46 11.512 0 25.714 0 39.916 0 51.43 11.46 51.43 25.6" fill="#E9EBEC" mask="url(#d)"/></g><path d="M115.75 74.007c-2.873 0-4.821-2.339-4.821-5.225v-1.716c0-2.886 1.949-5.225 4.821-5.225 2.873 0 4.821 2.34 4.821 5.225v1.716c0 2.886-1.949 5.225-4.821 5.225" fill="#FFF"/><path d="M115.75 74.007c-2.873 0-4.821-2.339-4.821-5.225v-1.716c0-2.886 1.949-5.225 4.821-5.225 2.873 0 4.821 2.34 4.821 5.225v1.716c0 2.886-1.949 5.225-4.821 5.225z" stroke="#6756EB" stroke-width="2"/><path d="M120.571 77.533h-10.714c-3.753 0-5.582 3.84-6.125 4.907-.545 1.067-1.776 3.627-1.776 3.627l6.83 4.44V117h12.857V98.867h1.026c2.393 0 4.331-1.901 4.331-4.246v-9.408c0-4.373-3.1-7.68-6.429-7.68" fill="#FFF"/><path d="M101.957 86.067s1.23-2.56 1.774-3.627c.544-1.067 2.373-4.907 6.127-4.907h10.714c3.329 0 6.428 3.307 6.428 7.68v9.408c0 2.345-1.939 4.246-4.33 4.246h-1.027" stroke="#6756EB" stroke-width="2"/><path stroke="#6756EB" stroke-width="2" d="M108.786 117V86.967l-5.284 6.065M121.643 85v32M115.214 98.867V117"/><path d="M84.143 74.007c2.872 0 5.357-2.339 5.357-5.225v-1.716c0-2.886-2.485-5.225-5.357-5.225-2.873 0-5.357 2.34-5.357 5.225v1.716c0 2.886 2.484 5.225 5.357 5.225" fill="#FFF"/><path d="M84.143 74.007c2.872 0 5.357-2.339 5.357-5.225v-1.716c0-2.886-2.485-5.225-5.357-5.225-2.873 0-5.357 2.34-5.357 5.225v1.716c0 2.886 2.484 5.225 5.357 5.225z" stroke="#6756EB" stroke-width="2"/><path d="M97.41 84.368c-1.57-2.124-3.905-6.835-8.982-6.835h-8.571c-3.329 0-7.5 3.027-7.5 7.467v8.533c0 2.382 2.966 5.333 5.357 5.333V117h12.857V87.133l7.29 7.21a3.063 3.063 0 0 0 4.322.002l1.32-1.312s-4.53-6.554-6.093-8.665" fill="#CDC6FF"/><path d="M90.571 117V87.133l7.29 7.21a3.066 3.066 0 0 0 4.323.002l1.319-1.313s-4.532-6.553-6.093-8.663c-1.57-2.124-3.905-6.836-8.981-6.836h-8.572c-3.329 0-7.5 3.026-7.5 7.467v8.533c0 2.381 2.966 5.334 5.357 5.334M77.714 85v32M84.143 98.867V117" stroke="#6756EB" stroke-width="2"/></g></svg>