<svg width="192" height="192" viewBox="0 0 192 192" xmlns="http://www.w3.org/2000/svg" xmlns:xlink="http://www.w3.org/1999/xlink"><title>530665F2-C351-475B-B162-C76C20FA66C8</title><defs><ellipse id="b" cx="96" cy="85" rx="82" ry="82"/><filter x="-50%" y="-50%" width="200%" height="200%" filterUnits="objectBoundingBox" id="a"><feOffset dy="11" in="SourceAlpha" result="shadowOffsetOuter1"/><feGaussianBlur stdDeviation="7" in="shadowOffsetOuter1" result="shadowBlurOuter1"/><feColorMatrix values="0 0 0 0 0 0 0 0 0 0 0 0 0 0 0 0 0 0 0.0640002264 0" in="shadowBlurOuter1"/></filter></defs><g fill="none" fill-rule="evenodd"><g><use fill="#000" filter="url(#a)" xlink:href="#b"/><use fill="#FFF" xlink:href="#b"/></g><path d="M122.85 74.576c0 14.678-11.798 26.577-26.35 26.577-14.552 0-26.35-11.899-26.35-26.577C70.15 59.9 81.949 48 96.5 48c14.552 0 26.35 11.899 26.35 26.576" fill="#E9EBEC"/><path fill="#FFF" d="M113.17 62.102h-5.378v-1.085H85.208v1.085H79.83L68 87.05v4.339h57v-4.34z"/><path stroke="#6756EB" stroke-width="2" d="M68 88.136v-2.17l11.83-23.864h2.151M125 88.136v-2.17l-11.83-23.864h-2.151"/><path fill="#CDC6FF" d="M107.792 88.136l-3.226 3.254H88.434l-3.226-3.254H68V112h57V88.136z"/><path stroke="#6756EB" stroke-width="2" d="M107.792 88.136l-3.226 3.254H88.434l-3.226-3.254H68V112h57V88.136zM75.528 85.966v-5.424h41.944v5.424M78.755 78.373v-4.34h35.49v4.34M81.981 71.864v-4.339h29.038v4.34M85.208 65.356v-4.34h22.584v4.34"/><path d="M100.264 104.407h-7.528a2.16 2.16 0 0 1-2.151-2.17v-4.339h11.83v4.34a2.16 2.16 0 0 1-2.15 2.169" fill="#FFF"/><path d="M100.264 104.407h-7.528a2.16 2.16 0 0 1-2.151-2.17v-4.339h11.83v4.34a2.16 2.16 0 0 1-2.15 2.169z" stroke="#6756EB" stroke-width="2"/></g></svg>