<svg width="192" height="192" viewBox="0 0 192 192" xmlns="http://www.w3.org/2000/svg" xmlns:xlink="http://www.w3.org/1999/xlink"><title>92960DAC-5128-47AE-BCC1-263BA9314D48</title><defs><ellipse id="b" cx="96" cy="85" rx="82" ry="82"/><filter x="-50%" y="-50%" width="200%" height="200%" filterUnits="objectBoundingBox" id="a"><feOffset dy="11" in="SourceAlpha" result="shadowOffsetOuter1"/><feGaussianBlur stdDeviation="7" in="shadowOffsetOuter1" result="shadowBlurOuter1"/><feColorMatrix values="0 0 0 0 0 0 0 0 0 0 0 0 0 0 0 0 0 0 0.0640002264 0" in="shadowBlurOuter1"/></filter></defs><g fill="none" fill-rule="evenodd"><g><use fill="#000" filter="url(#a)" xlink:href="#b"/><use fill="#FFF" xlink:href="#b"/></g><path d="M125.677 86.466c0 15.61-12.63 28.267-28.21 28.268-15.58 0-28.209-12.655-28.209-28.267 0-15.61 12.63-28.266 28.21-28.266 15.58-.002 28.21 12.653 28.21 28.265" fill="#E9EBEC"/><path d="M80.968 79.533h-8.516C69.144 79.533 65 82.56 65 87v8.533c0 2.381 2.68 5.334 5.056 5.334h.267V119h12.774v-18.153c2.343-.203 5.322-3.02 5.322-5.314V87c0-4.44-4.144-7.467-7.451-7.467" fill="#CDC6FF"/><path d="M76.71 76.333c2.854 0 5.322-2.448 5.322-5.333v-2.133c0-2.886-2.468-5.334-5.322-5.334s-5.323 2.448-5.323 5.334V71c0 2.885 2.469 5.333 5.323 5.333" fill="#FFF"/><path d="M76.71 76.333c2.854 0 5.322-2.448 5.322-5.333v-2.133c0-2.886-2.468-5.334-5.322-5.334s-5.323 2.448-5.323 5.334V71c0 2.885 2.469 5.333 5.323 5.333zM82.83 100.867c2.377 0 5.59-2.953 5.59-5.334V87c0-4.44-4.145-7.467-7.452-7.467h-8.516C69.144 79.533 65 82.56 65 87v8.533c0 2.381 2.68 5.334 5.056 5.334M83.097 119V87M70.323 87v32M76.71 119v-18.133" stroke="#6756EB" stroke-width="2"/><path d="M127.806 67.8h-9.58l-12.774 8.533v8.534c0 1.767 1.43 3.2 3.193 3.2h7.452l7.81 6.955c.685.612 1.77.123 1.77-.797v-6.158h2.13a3.197 3.197 0 0 0 3.193-3.2V71c0-1.767-1.43-3.2-3.194-3.2" fill="#FFF"/><path d="M118.226 67.8h9.58A3.197 3.197 0 0 1 131 71v13.867c0 1.767-1.43 3.2-3.194 3.2h-2.129v6.158c0 .92-1.085 1.409-1.77.797l-7.81-6.955h-7.452a3.197 3.197 0 0 1-3.193-3.2v-8.534" stroke="#6756EB" stroke-width="2"/><path d="M87.355 58.2v14.933c0 1.768 1.43 3.2 3.193 3.2h2.13v7.025c0 .95 1.146 1.427 1.817.755l7.763-7.78h12.774a3.197 3.197 0 0 0 3.194-3.2V58.2c0-1.767-1.43-3.2-3.194-3.2H90.548a3.197 3.197 0 0 0-3.193 3.2" fill="#FFF"/><path d="M87.355 58.2v14.933c0 1.768 1.43 3.2 3.193 3.2h2.13v7.025c0 .95 1.146 1.427 1.817.755l7.763-7.78h12.774a3.197 3.197 0 0 0 3.194-3.2V58.2c0-1.767-1.43-3.2-3.194-3.2H90.548a3.197 3.197 0 0 0-3.193 3.2z" stroke="#6756EB" stroke-width="2"/><path d="M115.032 67.8h-6.387a3.197 3.197 0 0 0-3.193 3.2v2.133" stroke="#6756EB" stroke-width="2"/></g></svg>