<svg width="192" height="192" viewBox="0 0 192 192" xmlns="http://www.w3.org/2000/svg" xmlns:xlink="http://www.w3.org/1999/xlink"><title>1931F4E7-FC3A-4B17-AB49-6B12918E30E1</title><defs><ellipse id="b" cx="96" cy="85" rx="82" ry="82"/><filter x="-50%" y="-50%" width="200%" height="200%" filterUnits="objectBoundingBox" id="a"><feOffset dy="11" in="SourceAlpha" result="shadowOffsetOuter1"/><feGaussianBlur stdDeviation="7" in="shadowOffsetOuter1" result="shadowBlurOuter1"/><feColorMatrix values="0 0 0 0 0 0 0 0 0 0 0 0 0 0 0 0 0 0 0.0640002264 0" in="shadowBlurOuter1"/></filter><path id="c" d="M0 66.968h76.42V.18H0z"/></defs><g fill="none" fill-rule="evenodd"><g><use fill="#000" filter="url(#a)" xlink:href="#b"/><use fill="#FFF" xlink:href="#b"/></g><g transform="translate(60 52)"><path d="M59.553 33.752c0 12.045-9.696 21.81-21.656 21.81-11.96 0-21.656-9.765-21.656-21.81 0-12.044 9.695-21.809 21.656-21.809 11.96 0 21.656 9.765 21.656 21.81z" fill="#E9EBEC"/><path d="M57.148 13.185a29.132 29.132 0 0 1 8.876 20.992c0 12.155-7.394 22.569-17.899 26.932" stroke="#6756EB" stroke-width="2"/><path d="M63.162 49.33c4.53.696 9.793-.376 11.146-9.312-5.606-.861-10.125 2.578-11.146 9.311zM54.045 58.555c3.661 2.776 8.8 4.345 14.2-2.88-4.531-3.435-10.13-2.564-14.2 2.88zM66.653 35.951c4.56-.48 9.381-2.858 8.446-11.853-5.64.594-9.15 5.076-8.446 11.853zM64.565 23.99c3.909-2.408 7.245-6.644 2.559-14.36-4.838 2.98-6.09 8.546-2.559 14.36zM58.152 13.757c1.134-4.473.591-9.854-8.116-12.102-1.403 5.535 1.556 10.409 8.116 12.102zM19.272 13.185a29.132 29.132 0 0 0-8.876 20.992c0 12.155 7.394 22.569 17.899 26.932" stroke="#6756EB" stroke-width="2"/><path d="M13.258 49.33c-4.53.696-9.792-.376-11.146-9.312 5.607-.861 10.126 2.578 11.146 9.311zM22.375 58.555c-3.661 2.776-8.8 4.345-14.2-2.88 4.532-3.435 10.131-2.564 14.2 2.88zM9.767 35.951c-4.559-.48-9.38-2.858-8.447-11.853 5.641.594 9.15 5.076 8.447 11.853zM11.855 23.99C7.946 21.583 4.61 17.347 9.296 9.63c4.838 2.98 6.09 8.546 2.56 14.36zM18.268 13.757c-1.133-4.473-.59-9.854 8.116-12.102 1.403 5.535-1.555 10.409-8.116 12.102z" stroke="#6756EB" stroke-width="2"/><path fill="#CDC6FF" d="M34.287 47.08v16.962l3.61-3.635 3.61 3.635V47.08z"/><mask id="d" fill="#fff"><use xlink:href="#c"/></mask><path fill="#FFF" mask="url(#d)" d="M19.85 48.292h36.094V20.425H19.85z"/><path stroke="#6756EB" stroke-width="2" mask="url(#d)" d="M19.85 48.292h36.094V20.425H19.85z"/><path stroke="#6756EB" stroke-width="2" mask="url(#d)" d="M41.506 47.08v16.962l-3.61-3.634-3.609 3.634V47.08"/><path d="M37.897 51.926c-3.322 0-6.016-2.713-6.016-6.058 0-3.345 2.694-6.058 6.016-6.058s6.015 2.713 6.015 6.058c0 3.345-2.693 6.058-6.015 6.058z" fill="#CDC7FF" mask="url(#d)"/><path d="M43.912 45.868c0 3.345-2.693 6.058-6.015 6.058-3.322 0-6.016-2.713-6.016-6.058 0-3.345 2.694-6.058 6.016-6.058s6.015 2.713 6.015 6.058zM28.272 28.906h19.25M31.881 33.752h12.031" stroke="#6756EB" stroke-width="2" mask="url(#d)"/></g></g></svg>