<svg width="71" height="60" viewBox="0 0 71 60" xmlns="http://www.w3.org/2000/svg"><title>EB60715C-DAA1-43EE-B8ED-B88D789B2FD4</title><g fill="none" fill-rule="evenodd"><ellipse cx="30" cy="30" rx="30" ry="30" fill="#CDC6FF"/><g fill-rule="nonzero" fill="#9079C0"><path d="M33 11.002v37.96h37.965v-37.96H33zM67.838 45.81h-31.71V14.157h31.71V45.81z"/><path d="M42.993 32.915c.104.365.16 1.162.16 2.386 0 1.049.054 1.82.166 2.309.113.485.332.901.66 1.232.326.33.726.57 1.2.715.477.143 1.16.214 2.05.214h.525v-2.393c-.709 0-1.17-.045-1.384-.135a.986.986 0 0 1-.476-.395c-.103-.174-.155-.477-.155-.914 0-.31-.028-1.015-.08-2.121-.04-.724-.126-1.302-.258-1.734a3.15 3.15 0 0 0-.57-1.105 3.39 3.39 0 0 0-.952-.792c.44-.289.766-.562.981-.832.214-.262.39-.6.529-1.009.136-.409.222-.943.257-1.601.058-1.166.091-1.96.091-2.38 0-.41.05-.702.149-.871a.924.924 0 0 1 .459-.38c.207-.081.678-.123 1.41-.123v-2.38h-.527c-.864 0-1.498.06-1.898.18-.594.18-1.046.423-1.358.731-.31.31-.525.719-.644 1.229-.117.506-.174 1.406-.174 2.69 0 .796-.03 1.346-.083 1.666-.066.424-.188.778-.364 1.061-.18.284-.387.484-.633.604-.242.117-.603.192-1.086.221v2.395c.608.031 1.056.164 1.351.395.292.226.511.604.654 1.137zM49.967 37.575l.538 1.16c.594-.215 1.086-.51 1.472-.881.387-.371.647-.792.785-1.26.14-.472.21-1.114.21-1.922v-2H50.19v2.803h1.34c-.01.551-.137.992-.372 1.33-.236.325-.635.586-1.192.77zM50.191 24.878h2.78v2.805h-2.78zM57.894 39.589c.598-.181 1.056-.421 1.369-.733.31-.308.523-.72.635-1.232.112-.513.174-1.413.174-2.703 0-.786.03-1.34.081-1.658.071-.425.195-.778.373-1.06.174-.282.381-.486.625-.604.243-.118.604-.192 1.085-.218h-.003v-2.393c-.61-.036-1.055-.167-1.355-.396-.293-.228-.512-.611-.66-1.138-.1-.373-.15-1.166-.15-2.381 0-1.051-.056-1.819-.172-2.304a2.588 2.588 0 0 0-.656-1.24 2.706 2.706 0 0 0-1.197-.71c-.478-.139-1.161-.21-2.05-.21h-.525v2.377c.747 0 1.227.045 1.44.136.215.089.364.216.445.381.084.165.124.498.13.997.037 1.582.096 2.605.166 3.072.11.675.325 1.234.63 1.669.226.31.58.618 1.068.938a3.386 3.386 0 0 0-.923.762 3.247 3.247 0 0 0-.576 1.055c-.145.417-.237.974-.266 1.662-.053 1.143-.088 1.921-.088 2.325-.007.405-.053.692-.159.863a.988.988 0 0 1-.478.392c-.217.09-.681.132-1.389.132v2.393h.53c.86.005 1.494-.058 1.896-.174z"/></g></g></svg>