<svg width="87" height="81" viewBox="0 0 87 81" xmlns="http://www.w3.org/2000/svg"><title>A70D4FFA-66A6-4A3A-AD77-EF48415B855D</title><g fill="none" fill-rule="evenodd"><path d="M74.12 39.992c0 15.706-12.788 28.437-28.562 28.437C29.786 68.431 17 55.698 17 39.993c0-15.706 12.788-28.439 28.56-28.439 15.773 0 28.56 12.732 28.56 28.438" fill="#E9EBEC"/><path d="M47.605 52.254a5.95 5.95 0 0 0-5.615-3.967h-8.33v-8.295l2.38 2.37h8.33c5.443 0 4.76-5.924 4.76-5.924H40.8l-8.33-8.295h-4.76c-2.628 0-4.76 2.123-4.76 4.74v17.773c0 3.926 3.197 7.11 7.14 7.11H40.8l7.14 14.219h6.6l-6.935-19.731z" fill="#CDC5FF"/><path d="M31.28 24.477c-3.323 0-5.95-2.707-5.95-6.046v-2.016c0-3.338 2.627-6.046 5.95-6.046 3.322 0 5.95 2.708 5.95 6.046v2.016c0 3.34-2.628 6.046-5.95 6.046" fill="#FFF"/><path d="M31.28 24.477c-3.323 0-5.95-2.707-5.95-6.046v-2.016c0-3.338 2.627-6.046 5.95-6.046 3.322 0 5.95 2.708 5.95 6.046v2.016c0 3.34-2.628 6.046-5.95 6.046z" stroke="#674FEF" stroke-width="2"/><path d="M33.66 42.362h41.649M51.51 37.622h7.14v4.74M63.41 42.362v-4.74h7.14V23.404H64.6" stroke="#673DF7" stroke-width="2"/><path d="M63.41 32.883h-3.57V8h3.57c1.314 0 2.38 1.06 2.38 2.37v20.143c0 1.31-1.066 2.37-2.38 2.37" fill="#FFF"/><path d="M63.41 32.883h-3.57V8h3.57c1.314 0 2.38 1.06 2.38 2.37v20.143c0 1.31-1.066 2.37-2.38 2.37z" stroke="#673DF7" stroke-width="2"/><path d="M28.9 64.875v7.11" stroke="#6747F3" stroke-width="2"/><path d="M47.94 71.984L40.8 57.766H30.09c-3.944 0-7.14-3.183-7.14-7.11V32.883c0-2.618 2.131-4.74 4.76-4.74h4.76l8.33 8.294h8.33s.683 5.925-4.76 5.925h-8.33l-7.14-7.11" stroke="#674FEF" stroke-width="2"/><path d="M33.66 39.992v8.294h8.33a5.948 5.948 0 0 1 5.615 3.967l6.935 19.731M18.19 30.513v22.513c0 5.235 4.262 9.48 9.52 9.48h10.71" stroke="#6747F3" stroke-width="2"/><path stroke="#6747F3" stroke-width="2" d="M18.19 48.286h9.52l3.57 4.74M31.28 71.815h-4.76"/></g></svg>