<svg width="133" height="45" viewBox="0 0 133 45" xmlns="http://www.w3.org/2000/svg"><title>992035F0-0EDC-4873-9BBB-C7F071D7D384</title><g fill="none" fill-rule="evenodd"><path d="M66.102 38.116c0-3.163-2.145-4.007-5.597-4.208-2.08-.142-2.595-.381-2.595-1.142 0-.642.494-1.208 1.501-1.393 1.33-.243 2.831.053 4.203.872l2.08-3.638c-1.63-1.153-3.624-1.549-6.175-1.082-3.603.66-5.811 3.299-5.811 6.39 0 3.472 2.466 4.02 5.66 4.244 2.038.15 2.53.44 2.53 1.13 0 .761-.6 1.3-1.715 1.503-1.736.318-3.388-.07-4.867-1.107L53 43.176c1.844 1.494 4.374 1.959 7.033 1.472 3.646-.667 6.069-3.131 6.069-6.532zm15.889-1.195l-3.13-1.9c-.901 1.377-1.823 2.355-3.389 2.641-2.101.385-3.58-1.295-3.58-3.792 0-2.473 1.479-4.717 3.58-5.102 1.437-.263 2.445.29 3.303 1.322l3.044-3.173c-1.329-1.802-3.237-2.927-6.304-2.366-4.546.832-7.912 5.253-7.912 10.104 0 5.018 3.452 8.024 7.74 7.24 3.324-.608 5.233-2.55 6.648-4.974zm5.94 2.338v-5.041l1.822-.334 3.024 4.488 4.803-.878L94 32.346c1.865-1.22 3.087-3.133 3.087-5.677 0-1.689-.45-2.89-1.33-3.705-1.007-.933-2.594-1.309-4.889-.889l-7.097 1.299V40.02l4.16-.76zm0-12.651l2.723-.499c1.394-.255 2.252.254 2.252 1.562 0 1.26-.815 2.17-2.23 2.43l-2.745.502v-3.995zm15.524 9.81V19.773l-4.18.765v16.647l4.18-.765zm6.905-1.262v-4.757l2.059-.376c3.73-.683 6.454-3.25 6.454-7.174 0-3.733-2.444-5.45-6.24-4.756L106.2 19.27v16.647l4.16-.761zm0-12.77l1.951-.358c1.501-.274 2.402.322 2.402 1.749 0 1.355-.9 2.376-2.38 2.647l-1.973.36v-4.399zm18.098 9.459V19.24l4.503-.824v-4.043l-13.166 2.409v4.043l4.503-.824v12.604l4.16-.761z" fill="#3F3F3F"/><path d="M62.392 23.056c-.986 1.275-2.402 2.128-4.117 2.442-2.616.478-4.224-.44-5.275-1.841l2.68-3.297c.73.842 1.416 1.287 2.338 1.118 1.05-.192 1.715-1.098 1.715-2.644V8.3l4.139-.757v10.559c0 2.092-.472 3.653-1.48 4.955zm6.583.199l-4.374.8 6.39-17.934L75 5.387l6.39 15.596-4.46.816-1.094-2.772-5.79 1.06-1.072 3.168zm3.988-12.026l1.673 4.427-3.367.616 1.694-5.043zm16.49 8.398l-3.86.706-6.09-15.65 4.654-.852 3.41 9.911 3.409-11.159 4.567-.835-6.09 17.88zm8.577-1.688l-4.374.8 6.39-17.934 4.01-.734 6.39 15.597-4.46.816-1.094-2.773-5.79 1.06-1.072 3.168zm3.989-12.025l1.672 4.426-3.366.616 1.694-5.042z" fill="#FF3975"/><g fill="#404040"><path d="M15.603 8.666c0-2.568 2.068-4.625 4.598-4.625S24.76 6.14 24.76 8.707a4.648 4.648 0 0 1-3.184 4.418v11.278c0 .042-.068.07-.136.07h-2.53c-.068 0-.136-.042-.136-.07V13.111a4.58 4.58 0 0 1-3.17-4.445z"/><path d="M5.931 16.59c-1.782-1.809-1.782-4.763 0-6.544a4.559 4.559 0 0 1 6.49 0c1.441 1.464 1.713 3.659.843 5.412l7.849 7.965c.04.042 0 .11-.041.138L19.29 25.37c-.068.069-.109.069-.136.041l-7.89-7.965a4.537 4.537 0 0 1-5.333-.856z"/><path d="M4.598 29.125c-2.53 0-4.557-2.099-4.557-4.666 0-2.568 2.068-4.625 4.598-4.625 2.027 0 3.754 1.353 4.353 3.23h11.114c.041 0 .068.07.068.138v2.568c0 .07-.04.138-.068.138H8.978c-.598 1.864-2.34 3.217-4.38 3.217z"/><path d="M12.38 38.898c-1.783 1.809-4.694 1.809-6.449 0-1.782-1.808-1.782-4.762 0-6.543a4.558 4.558 0 0 1 5.333-.856l7.85-8.007c.04-.041.108 0 .135.042l1.782 1.808c.068.07.068.138.041.138l-7.85 7.965c.912 1.795.626 4.004-.843 5.453z"/><path d="M24.718 40.251c0 2.568-2.068 4.625-4.598 4.625s-4.557-2.099-4.557-4.666a4.648 4.648 0 0 1 3.183-4.418V24.514c0-.042.068-.07.136-.07h2.53c.068 0 .136.042.136.07v11.278c1.837.621 3.21 2.402 3.17 4.46z"/><path d="M34.404 32.355c1.782 1.808 1.782 4.763 0 6.543-1.783 1.809-4.694 1.809-6.449 0-1.442-1.463-1.714-3.658-.843-5.411l-7.89-7.965c-.04-.042 0-.11.04-.138l1.783-1.809c.068-.069.109-.069.136-.041l7.85 7.965a4.55 4.55 0 0 1 5.373.856z"/><path d="M35.723 19.834c2.53 0 4.557 2.098 4.557 4.666 0 2.568-2.067 4.625-4.584 4.625-2.027 0-3.755-1.353-4.353-3.23H20.229c-.041 0-.068-.07-.068-.139V23.19c0-.07.04-.138.068-.138h11.114c.598-1.864 2.353-3.217 4.38-3.217z"/><path d="M27.942 10.019c1.782-1.809 4.693-1.809 6.448 0 1.782 1.808 1.782 4.762 0 6.543a4.558 4.558 0 0 1-5.333.856l-7.849 8.007c-.04.041-.109 0-.136-.041l-1.782-1.809c-.068-.069-.068-.11-.04-.138l7.848-7.965c-.897-1.795-.625-4.004.844-5.453z"/><path d="M16.617 24.964c0-2.437 1.935-4.4 4.336-4.376 2.4 0 4.336 1.964 4.336 4.4 0 2.436-1.935 4.4-4.336 4.376a4.315 4.315 0 0 1-4.336-4.4z"/></g></g></svg>