<svg width="111" height="211" viewBox="0 0 111 211" xmlns="http://www.w3.org/2000/svg" xmlns:xlink="http://www.w3.org/1999/xlink"><title>6518F9EF-D657-4F48-B2B1-18661C5F8533</title><defs><path id="a" d="M49.985.009v31.455H.025V.009z"/></defs><g fill="none" fill-rule="evenodd"><path d="M1.947 200.722c0 5.177 19.835 9.375 44.302 9.375 24.468 0 44.303-4.198 44.303-9.375s-19.835-9.374-44.303-9.374c-24.467 0-44.302 4.197-44.302 9.374" fill="#C3C4C6" opacity=".321"/><path d="M25.435 193.467c-3.481 2.486-6.01 7.108-3.03 11.029 2.255 2.762 5.57.546 8.088-.617 2.785-1.454 5.967-2.49 8.486-4.38 1.628-1.249 3.54-2.543 4.639-4.401.34-.576.502-1.248.379-1.63H25.435zM65.092 193.467c3.48 2.486 6.009 7.108 3.029 11.029-2.254 2.762-5.569.546-8.088-.617-2.784-1.454-5.966-2.49-8.485-4.38-1.628-1.249-3.54-2.543-4.64-4.401-.34-.576-.501-1.248-.378-1.63h18.562z" fill="#1E2325"/><path fill="#65412E" d="M21.25 137.626l3.79 55.841h19.21l.733-40.16h.556l.733 40.16h19.21l3.791-55.841z"/><path d="M107.346 45.99c-2.321-1.078-5.102-.087-7.355 2.288-1.019-1.684-2.229-2.622-3.348-2.383-2.092.446-3.074 4.831-2.194 9.795.336 1.893.894 3.596 1.573 4.954.376 2.626 1.584 4.732 3.493 5.619 3.554 1.65 8.19-1.549 10.352-7.147 2.163-5.598 1.034-11.475-2.52-13.126M.248 124.186c.203-2.1.833-3.904 1.745-5.35l8.6-.016c.074.146.187.36.254.513.834.894 1.648 2.092 2.328 3.498 1.783 3.688 1.968 7.41.413 8.313-.831.484-1.993.061-3.166-1-1.259 2.469-3.238 3.984-5.307 3.744-3.17-.368-5.348-4.711-4.867-9.702" fill="#FFAE66"/><path d="M96.207 62.354L85.75 76.124l-22.48-8.96c-1.625-.8-3.547-1.189-5.852-2.041-1.398 4.83-7.542 14.052-11.923 13.946-4.203-.1-9.478-9.934-10.613-14.306-2.744.485-5.642 1.259-7.331 2.48a.401.401 0 0 0 .006-.059S15.113 74.308 11.664 79.14c-7.084 9.925-9.798 39.768-9.798 39.768l9.224-.016s2.496-21.563 5.782-26.662c1.031-1.599 1.832-2.656 2.38-3.579-4.119 21.163-4.63 49.32-4.63 49.32h61.46s-.589-32.406-5.593-53.866c2.733 1.182 16.455 6.868 20.654 5.199 5.772-2.295 14.288-21.936 14.288-21.936l-9.224-5.014z" fill="#6993BB"/><path d="M83.05 74.317s-4.691-2.381-20.638-7.586c-4.429-2.327-13.371-2.88-13.371-2.88l-3.407.119h-.285l-3.407-.05s-10.137.443-14.17 3.16v.02C12.13 73.714 7.55 84.476 7.55 84.476c1.602 6.94 10.602 6.946 10.602 6.946l.874-1.41c-3.899 21.1-4.391 47.984-4.391 47.984h61.715s-.594-32.402-5.645-53.936l9.673 4.215s4.285-8.109 2.674-13.957" fill="#F45C5D"/><path d="M57.875 101.728a34.658 34.658 0 0 0-1.018-2.145 31.953 31.953 0 0 0-.323-.58v-.01a30.03 30.03 0 0 0-1.544-2.397c-.01-.012-.018-.025-.027-.037l-.057-.078-.176-.24v.002c-.354-.47-.723-.924-1.11-1.36-.324-.371-.694-.73-1.018-1.073a16.594 16.594 0 0 0-2.081-1.773 19.798 19.798 0 0 0-2.082-1.291 15.28 15.28 0 0 0-2.081-.867 13.26 13.26 0 0 0-1.018-.279c-.347-.08-.703-.144-1.064-.192l-.076-.01a11.937 11.937 0 0 0-.37-.04l-.145-.014a11.93 11.93 0 0 0-.586-.033l-.054-.002a11.286 11.286 0 0 0-1.96.118c-.694.103-1.388.27-2.082.496a11.67 11.67 0 0 0-2.08.893c-.73.374-1.414.81-2.054 1.299-.362.252-.681.52-1 .799-.24.203-.474.413-.704.629-.432.402-.843.827-1.232 1.272a24.16 24.16 0 0 0-1.301 1.606c-.37.48-.694.975-1.018 1.484a22.75 22.75 0 0 0-2.081 4.037c-1.11 2.752-1.759 5.66-1.759 8.393 0 2.733.649 4.994 1.759 6.828a9.99 9.99 0 0 0 2.081 2.473c.324.286.648.555 1.018.808a13.912 13.912 0 0 0 2.528 1.423l.138.06.01.004c.184.078.37.153.561.225.319.126.637.243 1 .352.639.21 1.323.39 2.053.539a21.58 21.58 0 0 0 2.081.343 30.544 30.544 0 0 0 3.745.22c.12 0 .241 0 .362-.002l.099-.001.271-.005.091-.002a33.294 33.294 0 0 0 .676-.024h.03a29.287 29.287 0 0 0 2.08-.17 27.887 27.887 0 0 0 2.082-.331 25.217 25.217 0 0 0 2.082-.533c.74-.228 1.433-.493 2.081-.797.324-.161.694-.333 1.018-.516.387-.215.756-.445 1.11-.691.056-.039.112-.08.167-.12l.064-.045.04-.03c.222-.164.438-.335.648-.513l.037-.03a13.382 13.382 0 0 0 .252-.222l.025-.023c.195-.175.386-.357.57-.545v-.006c.11-.113.218-.228.324-.345.37-.422.694-.873 1.018-1.354 1.156-1.859 1.847-4.166 1.847-6.97 0-2.804-.69-5.791-1.847-8.607" fill="#B278B4"/><path d="M53.976 83.518c-1.203-.61-3.3.888-5.753 4.11-2.554 3.357-5.223 8.193-7.513 13.62-2.29 5.426-3.927 10.787-4.607 15.094-.653 4.136-.337 6.859.865 7.469 1.203.61 3.3-.888 5.753-4.11 2.555-3.356 5.223-8.193 7.514-13.62 2.29-5.426 3.926-10.787 4.606-15.094.653-4.136.338-6.858-.865-7.469m-17.217 40.79c-1.445-.733-1.853-3.595-1.148-8.059.687-4.353 2.337-9.762 4.645-15.231 2.309-5.469 5.002-10.349 7.584-13.74 2.647-3.478 4.9-4.99 6.346-4.257 1.444.733 1.852 3.596 1.147 8.06-.687 4.353-2.337 9.762-4.645 15.23-2.308 5.47-5.002 10.35-7.583 13.74-2.648 3.479-4.902 4.99-6.346 4.257" fill="#F8B241"/><path d="M39.883 82.996c-.532-.27-1-.327-1.39-.17-1.244.501-1.76 3.186-1.417 7.366.358 4.354 1.59 9.843 3.47 15.456 3.171 9.469 7.495 17.153 10.515 18.685.532.27 1 .328 1.39.17 1.244-.5 1.76-3.185 1.417-7.366-.357-4.354-1.59-9.843-3.47-15.456-3.17-9.469-7.495-17.152-10.515-18.685m10.968 41.834c-3.13-1.588-7.56-9.399-10.774-18.993-1.895-5.657-3.137-11.195-3.499-15.595-.37-4.512.248-7.328 1.743-7.93.519-.21 1.115-.146 1.772.187 3.13 1.589 7.561 9.4 10.774 18.993 1.895 5.657 3.137 11.196 3.499 15.596.37 4.512-.248 7.328-1.743 7.93-.519.209-1.115.146-1.772-.188" fill="#F8B241"/><path d="M63.46 94.96c-3.02-1.532-11.161-.174-19.797 3.303-5.119 2.062-9.733 4.584-12.991 7.102-3.13 2.419-4.662 4.588-4.205 5.952.143.428.486.782 1.018 1.052 3.02 1.532 11.16.174 19.796-3.303 5.12-2.061 9.733-4.583 12.992-7.102 3.129-2.418 4.661-4.587 4.204-5.952-.143-.427-.486-.781-1.018-1.051m-36.184 17.905c-.657-.333-1.086-.791-1.277-1.36-.549-1.639 1.009-3.978 4.386-6.589 3.293-2.545 7.948-5.09 13.107-7.168 8.75-3.523 17.047-4.874 20.178-3.286.657.334 1.087.791 1.277 1.36.549 1.64-1.008 3.979-4.385 6.589-3.294 2.545-7.949 5.091-13.108 7.168-8.75 3.524-17.047 4.875-20.178 3.286M44.862 85.893c-.596 1.411-2.025 2.075-3.193 1.483-1.167-.593-1.63-2.217-1.035-3.629.596-1.41 2.025-2.075 3.193-1.482 1.167.593 1.63 2.217 1.035 3.628" fill="#F8B241"/><path d="M61.972 103.831c-.596 1.412-2.026 2.075-3.193 1.483-1.168-.593-1.631-2.217-1.036-3.628.596-1.412 2.026-2.075 3.193-1.483 1.168.593 1.631 2.217 1.036 3.628M38.026 119.044c-.596 1.411-2.025 2.075-3.193 1.482-1.167-.592-1.63-2.217-1.035-3.628s2.025-2.075 3.192-1.482c1.168.592 1.632 2.216 1.036 3.628M47.542 104.758c-.595 1.412-2.025 2.075-3.192 1.483-1.168-.593-1.632-2.217-1.036-3.628.596-1.412 2.025-2.075 3.193-1.483 1.167.593 1.63 2.217 1.035 3.628" fill="#F8B241"/><path d="M94.283 55.072c.649 4.761 2.801 8.355 4.808 8.027 2.007-.329 3.108-4.455 2.46-9.217-.649-4.762-2.801-8.356-4.808-8.027-2.007.329-3.108 4.455-2.46 9.217" fill="#FFAE66"/><path d="M41.91 66.485h7.226c2.065 0 3.74-4.78 3.74-7.075H38.171c0 2.295 1.674 7.075 3.739 7.075" fill="#FD9245"/><path d="M39.751 64.71l13.072-4.727.025-.03a40.696 40.696 0 0 1-7.482.693c-2.439 0-4.83-.218-7.162-.634.136 1.388.716 3.314 1.547 4.697" fill="#E76518"/><path d="M48.142 61.624c5.333-.59 9.174-2.634 11.889-5.571 11.98-12.952 2.067-43.318 2.067-43.318-14.662-5.147-26.734-2.142-33.4 1.768-3.044 1.782-4.959 3.752-5.487 5.22-1.686 4.693-4.078 45.122 24.931 41.901" fill="#FEAD6C"/><path d="M57.703 33.85c.109 1.525.882 2.71 1.729 2.646.846-.064 1.444-1.353 1.335-2.879-.109-1.526-.883-2.71-1.729-2.646-.846.064-1.444 1.353-1.335 2.878M37.382 36.18c.108 1.525.882 2.71 1.728 2.646.846-.064 1.444-1.353 1.335-2.879-.108-1.525-.882-2.71-1.728-2.647-.846.065-1.444 1.354-1.335 2.88" fill="#333"/><path d="M41.539 31.584c-1.87-.75-5.352-.355-6.399 1.578-.853 1.574-2.009.055-1.33-1.203.823-1.521 2.024-2.587 3.681-2.988 1.453-.352 3.454-.539 4.874.032 1.086.435.238 3.008-.826 2.581M62.047 30c-1.382-.712-2.807-.985-4.342-.804-1.331.157-.76-2.686.423-2.827a8.302 8.302 0 0 1 4.823.865c1.134.585.172 3.32-.904 2.766" fill="#603813"/><path d="M48.142 61.782c5.333-.59 9.174-2.635 11.889-5.572-10.343 6.326-21.22 3.488-27.11-3.746-9.457-11.615-2.459-32.936-1.24-37.168 0 0-1.104-.326-2.982-.635-3.045 1.781-4.96 3.752-5.488 5.219-1.686 4.694-4.078 45.123 24.931 41.902" fill="#FB924E"/><path d="M49.907 35.133c.652-1.609 1.883 4.099 3.957 6.317 2.03 2.172-1.903 4.966-5.958 2.039 0 0 4.396.246 4.185-.883-.21-1.128-3.766-3.572-2.184-7.473" fill="#E56528"/><path d="M28.018 38.788c-.903-2.224-2.688-4.052-4.85-4.967-1.105-.468-2.451-.674-3.434.027-1.075.768-1.3 2.325-1.131 3.663.405 3.216 2.632 6.116 5.574 7.257 1.262.49 2.865.595 3.788-.42.69-.756.777-1.903.685-2.937l-.632-2.623z" fill="#FB924E"/><path d="M49.444 58.19c9.627-.336 9.26-10.866 9.26-10.866s-9.53 3.703-19.255.673c0 0 .368 10.53 9.995 10.194" fill="#E76518"/><g transform="translate(19.47 .183)"><mask id="b" fill="#fff"><use xlink:href="#a"/></mask><path d="M49.984 20.248a37.562 37.562 0 0 0-.286-3.94C46.476 6.874 36.66.009 25.05.009 14.944.009 6.196 5.212 1.975 12.786.81 15.762.092 18.692.033 20.012c-.206 4.585 3.535 11.452 3.535 11.452-.45-7.548-.356-7.532 1.68-8.84 2.53-1.627 7.863-4.656 9.92-6.749.393-.4 1.205-1.834 1.205-1.834s-.079 1.125.626 1.623c4.244 2.995 16.764-.336 21.514 1.975 3.886 1.89 8.604 13.825 8.604 13.825 1.92-3.248 2.904-8.697 2.867-11.216" fill="#9B643F" mask="url(#b)"/></g></g></svg>