<svg width="134" height="339" viewBox="0 0 134 339" xmlns="http://www.w3.org/2000/svg" xmlns:xlink="http://www.w3.org/1999/xlink"><title>9B11FCD2-6922-4CCB-A504-271C803BF7DB</title><defs><path id="a" d="M37.793.505v66.372H.165V.505h37.628z"/></defs><g fill="none" fill-rule="evenodd"><path d="M117.613 327.94c0 5.994-21.467 10.853-47.949 10.853-26.481 0-47.948-4.859-47.948-10.853 0-5.993 21.467-10.852 47.948-10.852 26.482 0 47.95 4.859 47.95 10.852" fill="gray" opacity=".148"/><path d="M46.81 309.189s3.634 16.168 26.338 22.023c6.317 1.629 4.303 5.61 4.303 5.61-1.239 2.306-11.406 2.137-14.476 1.717-6.195-.85-17.084-4.95-17.084-4.95l-1.424 2.143c-4.377-.165-8.619-1.353-8.619-1.353-1.394-1.972-2.78-6.76.173-12.696 6.894-13.862 6.639-32.766 10.79-12.494M84.993 302.227s3.547 15.499 25.351 21.032c6.067 1.54 4.15 5.366 4.15 5.366-1.18 2.217-10.936 2.094-13.882 1.7-5.948-.792-16.41-4.684-16.41-4.684l-1.358 2.061c-4.2-.142-8.274-1.265-8.274-1.265-1.345-1.888-2.693-6.475.118-12.183 6.562-13.324 6.247-31.46 10.305-12.027" fill="#333"/><path d="M92.199 147.576l1.743 6.969s.874-.518 2.364-1.444c8.298-5.176 35.714-23.115 37.198-35.32.344-2.816-26.765-31.052-26.765-31.052s-2.738 1.63-5.832 3.707c-4.517 3.027-9.788 7.017-8.358 8.268 2.412 2.113 28.887 21.978 28.887 21.978-6.2 1.62-16.97 12.836-23.563 20.256-.687.783-1.332 1.517-1.917 2.197a200.25 200.25 0 0 0-3.757 4.441" fill="#FEAD6C"/><g transform="translate(95.714 86.224)"><mask id="b" fill="#fff"><use xlink:href="#a"/></mask><path d="M.591 66.877C8.89 61.7 36.306 43.762 37.79 31.557 38.133 28.741 11.025.505 11.025.505S8.287 2.136 5.193 4.212c-.301 1.017-.452 1.733-.277 1.733.603 0 29.852 26.178 29.852 26.178S8.016 60.431 5.633 61.316c-1.278.475-2.557-3.141-3.474-6.601L.241 56.91c-.138 3.388-.126 7.174.35 9.966" fill="#FB924E" mask="url(#b)"/></g><path d="M93.475 75.657l.082 13.156.083 12.425 12.468 8.811 4.125-6.118 6.43-9.538c-11.482-10.305-23.188-18.736-23.188-18.736" fill="#6E89DB"/><path d="M94.785 82.965l-1.146 18.272 12.47 8.812 4.124-6.118c-6.073 2.875-14.087-14.267-15.448-20.966" fill="#455FCA"/><path d="M.017 130.536c2.904 11.107 29.314 20.867 39.054 24.123 2.236.743 3.591 1.147 3.591 1.147l.77-6.944s-1.28-1.054-3.351-2.652a.103.103 0 0 0-.03-.024c-6.337-4.9-20.002-14.907-27.055-15.761 0 0 21.076-27.46 23.124-29.808 1.161-1.34-3.932-4.292-8.538-6.593a132.387 132.387 0 0 0-4.729-2.237c-1.203-.544-1.977-.872-1.977-.872s-1.89 3.244-4.536 7.881C10.056 109.798-.476 128.651.017 130.536" fill="#FEAD6C"/><path d="M.017 130.536c2.904 11.107 29.314 20.867 39.054 24.123-.094-1.037 3.63-6.959 3.846-8.405.018-.13-5.348-.889-6.199 5.333-.325 2.379-33.48-20.922-33.48-20.922l24.35-36.594-.006-.047-.727-6.54-4.002 4.303-6.513 7.01c-6.284 11-16.816 29.854-16.323 31.739" fill="#FB924E"/><path d="M38.25 313.283c1.59 2.382 3.643 3.003 5.568 2.857 3.116-.228 5.903-2.46 5.903-2.46s2.347-9.754 3.767-23.548c1.713-16.629 14.716-92.949 14.716-92.949s2.294 44.24 6.202 60.032c3.913 15.791 1.015 49.621 1.015 49.621 1.801 2.003 4.225 2.366 6.495 2.079 3.474-.433 6.601-2.4 6.601-2.4 15.044-77.925 2.294-153.455 2.294-153.455s-42.34-34.855-46.94 1.171a383.64 383.64 0 0 0-1.25 11.125c-5.674 57.203-4.371 147.927-4.371 147.927" fill="#666"/><path d="M38.25 313.304c1.59 2.383 3.643 2.993 5.568 2.846 10.406-21.583 10.028-59.229 10.028-59.229s-10.17.019-11.377-20.5c-.652-11.104 8.073-61.472 9.616-71.023h-9.464c-5.674 57.305-4.371 147.906-4.371 147.906M74.406 257.215c3.913 15.79 1.015 49.621 1.015 49.621 1.801 2.002 4.225 2.366 6.495 2.079 7.135-8.604 9.922-47.83 10.726-50.465.81-2.634-9.458 1.757-11.694-19.321-.861-8.12-2.752-54.159-2.752-54.159-3.52 4.391-9.993 12.214-9.993 12.214s2.295 44.24 6.203 60.031" fill="#4D4D4D"/><path d="M36.718 99.499c3.82 22.945 8.297 57.133 3.779 70.248 0 0 3.702 2.09 9.828 3.858 5.797 1.68 13.765 3.074 22.807 2.144 11.29-1.16 21.875-5.03 21.875-5.03.393-8.033-3.362-29.884.85-57.197 2.324-15.067-1.788-33.021-2.382-37.865 0 0-25.899-5.703-60.846 1.545 0 0 1.942 9.363 4.09 22.297" fill="#6E89DB"/><path d="M57.923 73.517c-.94 2.438.114 4.03 2.015 4.917 4.547 2.125 13.902.229 12.241-3.719-.662-1.58-1.024-3.238-1.19-4.84-.509-4.839.75-9.157.75-9.157l-14.406-2.277s2.27 10.718.59 15.076" fill="#FB924E"/><path d="M57.923 73.517c-.94 2.438.114 4.03 2.015 4.917-.014-2.889.483-8.616 2.596-7.655 6.259 2.847 8.454-.904 8.454-.904-.508-4.839.752-9.157.752-9.157l-14.407-2.277s2.27 10.718.59 15.076" fill="#E56528"/><path d="M67.778 68.792c6.125-.656 10.537-2.926 13.656-6.189 13.76-14.387 2.374-48.117 2.374-48.117-16.84-5.718-30.707-2.38-38.363 1.963-3.497 1.98-5.697 4.168-6.303 5.798-1.937 5.214-4.684 50.123 28.636 46.545" fill="#FEAD6C"/><path d="M78.536 38.139c.124 1.694 1.013 3.01 1.985 2.94.972-.072 1.659-1.503 1.534-3.198s-1.014-3.011-1.986-2.94c-.971.071-1.658 1.503-1.533 3.198M55.171 40.439c.125 1.695 1.014 3.01 1.986 2.94.971-.072 1.658-1.503 1.533-3.198s-1.013-3.011-1.985-2.94c-.972.071-1.659 1.503-1.534 3.198" fill="#333"/><path d="M60.017 35.15c-2.148-.835-6.147-.395-7.35 1.753-.979 1.747-2.307.06-1.526-1.337.944-1.69 2.323-2.873 4.227-3.319 1.669-.39 3.967-.598 5.599.035 1.247.484.272 3.342-.95 2.868M83.353 33.96c-1.587-.79-3.224-1.093-4.988-.892-1.528.174-.873-2.984.486-3.14 1.914-.22 3.816.1 5.54.96 1.303.65.198 3.689-1.038 3.073" fill="#603813"/><path d="M77.36 54.83c-.517 1.032-5.424 6.646-18.611-.38 0 0 .88-1.55.495-2.243-.434-.78-.495 2.243-3.475 3.116 0 0 .653 1.108 2.737.057 0 0 8.412 7.69 15.96 3.551 3.105-1.703 3.454-5.222 2.893-4.1" fill="#E56528"/><path d="M67.778 68.792c6.125-.656 10.537-2.926 13.656-6.189-11.88 7.027-24.374 3.874-31.139-4.161C39.432 45.54 47.47 21.856 48.87 17.155c0 0-1.268-.362-3.425-.706-3.497 1.98-5.697 4.168-6.303 5.798-1.937 5.214-4.684 50.123 28.636 46.545" fill="#FB924E"/><path d="M97.293 16.247l-.158.21c-.176.21-.376.392-.605.562-2.998 2.22-10.074 1.013-8.636 1.482 10.344 3.39-.34 4.883-6.385 2.77-1.02-.358 4.108 3.916 2.846 4.11-4.242.667-9.992.046-17.702-2.975-8.778-3.437-20.7-.193-20.7-.193-1.62 5.105-4.548 6.979-3.234 18.566.153 1.347-.235 2.26-.956 2.7-.446.268-1.016.368-1.661.268-3.362-.462-8.848-5.954-9.822-17.658-1.573-18.9 10.755-14.199 12.838-17.273C51.45-3.473 71.74-1.576 81.228 6.422c9.253 7.799 17.573 7.646 16.065 9.825" fill="#603813"/><path d="M69.173 39.618c.75-1.786 2.164 4.553 4.546 7.018 2.333 2.413-2.186 5.516-6.844 2.264 0 0 5.05.274 4.808-.98-.243-1.253-4.326-3.968-2.51-8.302" fill="#E56528"/><path d="M40.497 169.747s3.703 2.09 9.828 3.859c0 0-1.167-16.126-.361-16.447 7.882-3.15 6.707-12.37-2.444-18.128 0 0-3.504-52.665-8.167-54.86-1.42-.67-1.144 8.817-2.635 15.328 3.82 22.945 8.297 57.133 3.779 70.248" fill="#455FCA"/><path d="M12.894 99.727l14 15.422s9.377-8.956 11.654-12.588c11.182-17.834-5.92-25.358-5.92-25.358S20.91 88.912 12.895 99.727" fill="#6E89DB"/><path d="M55.585 140.13s-5.773-.99-6.213-.755c-1.189.632-9.552 7.497-9.552 7.497s-3.371 4.743-1.822 7.143c1.55 2.4 6.485 3.635 9.094-.223 0 0 3.132.53 3.526.44 0 0 3.23 2.415 3.922.313l-2.455-2.143-3.358-1.681 3.081-.234c.148-.03 4.752 2.614 5.045-.208l-4.78-2.74-4.379.332 4.782-1.46s6.064 3.502 6.064.502l-5.853-3.544-4.056.4 1.766-1.787s6.016.832 5.188-1.852M90.916 136.997s3.823.5 4.296 1.499c.473.998 2.69 5.86 2.982 7.966.256 1.85-.366 5.197-1.888 7.224-1.523 2.027-3.148 1.463-2.488-1.943l-1.98-.732c-1.247 1.39-3.527 1.89-3.814.44l2.647-2.386 3.277-.677-1.75-1.33c-1.46.367-4.174 1.33-4.394-1.097l3.96-1.83 2.054.879-1.62-1.61s-3.514.805-3.943-1.714l4.35-1.434.902.878-.3-1.17s-3.496-.732-2.29-2.963" fill="#FEAD6C"/><path d="M74.967 139.34c-16.004 1.324-33.533-42.818-25.84-48.597 7.689-5.776 41.06-6.041 44.2.542 4.734 9.93-5.523 46.991-18.36 48.054" fill="#B7C0DC"/><path d="M73.647 136.997c-11.852.6-29.47-39.306-22.45-44.144 7.017-4.835 37.084-5.455 39.906 0 4.258 8.23-5.134 43.52-17.456 44.144" fill="#3A52B5"/><g fill="#B7C0DC"><path d="M84.33 110.07c-4.094.011-8.117.022-12.215.035l-.008-3.542 5.807-.016c-.48-.542-.76-.872-1.053-1.189-1.183-1.277-2.256-2.685-3.585-3.788-1.526-1.267-1.311-2.789-1.198-4.46l11.97-.034.008 3.495-5.462.016c.264.387.394.635.577.834 1.28 1.396 2.45 2.926 3.894 4.132 1.507 1.26 1.408 2.761 1.264 4.516M59.23 110.13l-.009-4.287 6.126-.017-.02-8.76c1.406-.005 2.708-.032 4.007.015.18.007.496.379.498.584.039 4.122.04 8.243.05 12.435l-10.651.03"/></g><path d="M65.908 120.508l.09 6.876s5.507 1.506 12.577 1.16c2.031-.1 2.248-2.208 1.625-2.136-1.439.168-2.185-.167-2.185-.167.96-.013 2.078-.46 2.365-.617.832-.451.674-1.944.377-1.886-1.86.362-3.002-.116-3.002-.116 1.116.014 2.834-.407 3.097-.767.666-.91-.06-1.696-.587-1.69-2.768.037-2.986-.23-2.986-.23 1.4-.012 3.03-.624 3.03-.624s1.013-1.358-.757-1.785c-1.77-.428-5.194.293-5.194.293s3.078-6.541-2.672-5.602c0 0 1.179 4.182-.067 5.638-1.536 1.797-5.711 1.653-5.711 1.653" fill="#B7C0DC"/><path d="M97.293 16.247l-.158.21c-4.166.65-12.662-3.53-17.374-6.909-5.445-3.905-10.955-6.54-17.702-6.832-9.189-.398-14.67 5.855-16.136 7.904-1.467 2.05-2.934 4.49-4.5 4.684-1.567.193-5.005 2.05-5.933 8.782-1.396 10.137 3.668 15.785 4.612 19.661-3.362-.462-8.848-5.954-9.822-17.658-1.573-18.9 10.755-14.199 12.838-17.273C51.45-3.473 71.74-1.576 81.228 6.422c9.253 7.799 17.573 7.646 16.065 9.825" fill="#4F2E0F"/><path d="M40.6 43.406a11.145 11.145 0 0 0-5.984-5.927c-1.364-.558-3.025-.805-4.238.032-1.327.917-1.604 2.775-1.396 4.371.5 3.838 3.249 7.299 6.878 8.66 1.557.586 3.537.71 4.676-.5.85-.903.958-2.271.845-3.506l-.781-3.13z" fill="#FB924E"/><path d="M38.046 44.178s-5.858-7.818-6.792-3.114c0 0 4.993.734 3.926 2.907-2.35 4.79 5.356 6.071 2.866.207" fill="#E56528"/></g></svg>