<svg width="164" height="36" viewBox="0 0 164 36" xmlns="http://www.w3.org/2000/svg"><title>0F28B6C0-B5AF-4C36-B226-990A03AC600D</title><g fill="#FFF" fill-rule="evenodd"><path d="M13.7 4.097a4.047 4.047 0 0 1 4.038-4.06c2.222 0 4.001 1.842 4.001 4.096a4.081 4.081 0 0 1-2.795 3.88v9.902c0 .037-.06.06-.12.06h-2.22c-.06 0-.12-.036-.12-.06V8A4.022 4.022 0 0 1 13.7 4.097z"/><path d="M5.208 11.055c-1.565-1.588-1.565-4.182 0-5.746a4.003 4.003 0 0 1 5.697 0c1.267 1.285 1.505 3.212.741 4.752l6.892 6.994c.036.036 0 .097-.036.12l-1.564 1.589c-.06.06-.096.06-.12.036L9.89 11.806a3.984 3.984 0 0 1-4.682-.751z"/><path d="M4.037 22.06c-2.221 0-4.001-1.842-4.001-4.096a4.047 4.047 0 0 1 4.037-4.061c1.78 0 3.297 1.188 3.822 2.836h9.76c.035 0 .059.061.059.122v2.254c0 .06-.036.121-.06.121h-9.77c-.526 1.637-2.055 2.825-3.847 2.825z"/><path d="M10.87 30.642c-1.565 1.588-4.121 1.588-5.662 0-1.565-1.587-1.565-4.181 0-5.745a4.002 4.002 0 0 1 4.682-.752l6.892-7.03c.036-.036.096 0 .12.037l1.564 1.587c.06.061.06.122.036.122l-6.892 6.994c.8 1.575.55 3.515-.74 4.787z"/><path d="M21.703 31.83a4.047 4.047 0 0 1-4.037 4.06c-2.222 0-4.001-1.842-4.001-4.096a4.081 4.081 0 0 1 2.795-3.879v-9.903c0-.036.06-.06.12-.06h2.22c.06 0 .12.036.12.06v9.903c1.613.546 2.82 2.11 2.783 3.915z"/><path d="M30.208 24.897c1.565 1.588 1.565 4.182 0 5.745-1.565 1.588-4.12 1.588-5.662 0-1.266-1.284-1.505-3.212-.74-4.751l-6.928-6.994c-.036-.036 0-.097.036-.121l1.564-1.588c.06-.06.096-.06.12-.036l6.892 6.993a3.995 3.995 0 0 1 4.718.752z"/><path d="M31.367 13.903c2.221 0 4.001 1.842 4.001 4.097 0 2.255-1.815 4.06-4.025 4.06-1.78 0-3.297-1.187-3.823-2.836h-9.758c-.036 0-.06-.06-.06-.121v-2.255c0-.06.036-.12.06-.12h9.758c.526-1.637 2.067-2.825 3.847-2.825z"/><path d="M24.534 5.285c1.565-1.588 4.121-1.588 5.662 0 1.565 1.588 1.565 4.182 0 5.745a4.002 4.002 0 0 1-4.682.752l-6.892 7.03c-.036.036-.096 0-.12-.036l-1.564-1.588c-.06-.06-.06-.097-.036-.121l6.892-6.994c-.789-1.576-.55-3.515.74-4.788z"/><path d="M13.617 17.964c0-2.437 1.935-4.4 4.336-4.376 2.4 0 4.336 1.964 4.336 4.4 0 2.436-1.935 4.4-4.336 4.376a4.315 4.315 0 0 1-4.336-4.4zM78.154 23.988v-1.746h1.35v-8.181h-2.616v1.127h-1.935v-3.091h11.693v3.09h-1.935v-1.126H82.06v8.157h1.35v1.746h-5.268v.024zM128.047 23.988v-1.746h1.11v-8.218h-1.11v-1.94h9.078v3.068h-1.935v-1.128h-3.476v8.182h1.11v1.746h-4.777zM160.25 23.988v-4.279h-2.437l-1.637 3.249-.764.994h-2.437v-1.746h1.075l1.541-2.97c-1.756-.63-2.496-1.781-2.496-3.37 0-2.278 1.505-3.781 4.92-3.781h5.877v1.94h-1.11v8.181h1.11v1.746h-3.667v.036h.024zm-2.342-5.964h2.306v-4h-1.971c-1.876 0-2.712.715-2.712 1.879.012 1.43.932 2.121 2.377 2.121zM120.414 11.685c3.536 0 6.402 2.654 6.402 6.279 0 3.648-2.866 6.339-6.402 6.339s-6.402-2.655-6.402-6.34c0-3.66 2.866-6.278 6.402-6.278zm0 10.594c2.222 0 4.061-1.806 4.061-4.34 0-2.497-1.851-4.278-4.061-4.278-2.246 0-4.097 1.781-4.097 4.278.012 2.522 1.851 4.34 4.097 4.34zM93.706 11.685c3.535 0 6.402 2.654 6.402 6.279 0 3.648-2.867 6.339-6.402 6.339-3.536 0-6.403-2.655-6.403-6.34.024-3.66 2.891-6.278 6.403-6.278zm0 10.594c2.221 0 4.097-1.806 4.097-4.34 0-2.497-1.852-4.278-4.097-4.278-2.246 0-4.061 1.781-4.061 4.278 0 2.522 1.815 4.34 4.06 4.34zM111.706 22.206V12.085h-9.054v1.94h1.075c-.25 5.781-.49 7.939-3.237 7.939v2.06h.586c3.452 0 4.646-2.654 4.861-10h3.165v8.158h-1.11v1.745h4.801v-1.745h-1.11v.024h.023zM71.142 20.715a3.993 3.993 0 0 1-3.165 1.564c-1.97 0-3.631-1.406-4.001-3.43h10.248c.49-3.649-1.995-7.188-6.247-7.188-3.536 0-6.343 2.654-6.343 6.278 0 3.649 2.795 6.34 6.343 6.34 2.556 0 4.742-1.406 5.781-3.564h-2.616zm-3.141-7.067c1.911 0 3.571 1.31 3.965 3.285h-7.943c.406-1.94 2.043-3.285 3.978-3.285zM55.136 12.097h-.035v1.745h1.11v3.091h-5.446v-4.836h-3.667v1.745h1.11v8.364h-1.11v1.782h4.778v-1.782h-1.111v-3.394h5.447v5.176h3.69v-1.782h-1.134v-8.364h1.134v-1.745zM150.156 22.206V12.097h-2.341l-6.008 7.988v-6.243h1.11v-1.745h-4.765v1.745h1.099v10.146h1.887v-.06l6.462-8.522v6.8h-1.075v1.758l4.766.024v-1.782z"/></g></svg>