<svg width="950" height="608" viewBox="0 0 950 608" xmlns="http://www.w3.org/2000/svg"><title>8988E903-C234-46F1-901E-3549D7417AA5</title><g fill="none" fill-rule="evenodd" opacity=".456"><path d="M472.471 74.481c7.777 0 13.935 6.484 13.935 14.264 0 7.78-6.481 13.94-14.259 13.94-7.778 0-13.934-6.484-13.934-14.264 0-7.78 6.481-14.264 14.258-13.94zm-34.998 6.16c-2.592.324-4.86 2.593-4.86 5.187v5.51c0 2.594 1.943 5.188 4.536 5.512l3.89.648c.647 2.27 1.619 4.862 2.915 6.808l-2.592 3.242c-1.62 2.269-1.62 5.187.324 7.132l3.889 3.89c1.944 1.945 4.86 2.27 7.13.648l3.24-2.593c2.268 1.297 4.536 2.27 7.128 3.242l.325 4.214c.324 2.593 2.592 4.862 5.184 4.862h5.51c2.592 0 5.185-1.945 5.509-4.538l.648-3.89c2.592-.648 5.185-1.62 7.777-2.917l2.917 2.269c2.268 1.62 5.184 1.62 7.129-.325l3.889-3.89c1.944-1.945 2.268-4.863.648-7.132l-2.27-2.918c1.298-2.269 2.594-4.862 3.242-7.455l3.565-.325c2.592-.324 4.86-2.593 4.86-5.187v-5.51c0-2.594-1.944-5.188-4.537-5.512l-3.564-.324c-.648-2.594-1.62-5.187-2.917-7.456l2.269-2.594c1.62-2.269 1.62-5.187-.324-7.132l-3.89-3.89c-1.944-1.945-4.86-2.269-7.128-.648l-2.593 1.945c-2.592-1.622-5.185-2.593-7.777-3.242l-.324-3.242c-.324-2.594-2.592-4.863-5.184-4.863h-5.51c-2.592 0-5.184 1.945-5.51 4.54l-.323 3.241c-2.917.648-5.509 1.944-8.102 3.242L454 58.92c-2.268-1.62-5.185-1.62-7.13.325l-3.887 3.89c-1.945 1.944-2.27 4.862-.649 7.132l2.269 2.917c-1.296 2.27-2.269 4.863-2.917 7.457h-4.213zM29.91 267.172c5.242 0 9.393 4.37 9.393 9.616 0 5.244-4.37 9.396-9.612 9.396-5.243 0-9.394-4.37-9.394-9.615s4.37-9.616 9.613-9.397zm-23.594 4.152c-1.747.218-3.276 1.748-3.276 3.496v3.716c0 1.747 1.31 3.496 3.058 3.715l2.622.437c.436 1.53 1.092 3.277 1.966 4.59l-1.748 2.184c-1.092 1.53-1.092 3.497.218 4.809l2.622 2.622c1.31 1.31 3.277 1.53 4.806.437l2.185-1.749c1.53.875 3.058 1.53 4.805 2.186l.219 2.84c.218 1.75 1.748 3.279 3.495 3.279h3.714c1.747 0 3.496-1.31 3.713-3.06l.437-2.622a25.573 25.573 0 0 0 5.243-1.967l1.967 1.53c1.528 1.093 3.495 1.093 4.805-.219l2.622-2.622c1.31-1.311 1.53-3.278.437-4.808l-1.529-1.966c.873-1.53 1.747-3.279 2.184-5.027l2.403-.218c1.747-.219 3.277-1.749 3.277-3.497v-3.715c0-1.748-1.311-3.497-3.058-3.716l-2.403-.218c-.437-1.748-1.093-3.496-1.967-5.027l1.53-1.747c1.092-1.53 1.092-3.497-.219-4.808l-2.621-2.622c-1.311-1.312-3.277-1.53-4.806-.438l-1.748 1.311c-1.747-1.092-3.495-1.748-5.243-2.185l-.218-2.185c-.219-1.75-1.747-3.278-3.496-3.278H28.6c-1.748 0-3.495 1.31-3.714 3.06l-.218 2.184c-1.966.438-3.714 1.312-5.461 2.185l-1.748-1.529c-1.53-1.093-3.495-1.093-4.806.219l-2.622 2.622c-1.31 1.31-1.528 3.278-.437 4.808l1.53 1.966c-.874 1.53-1.53 3.278-1.966 5.027h-2.84zM870.482 321.53c6.398 0 11.73 5.333 11.517 11.947 0 6.401-5.332 11.735-11.944 11.521-6.398 0-11.73-5.334-11.516-11.948 0-6.4 5.332-11.734 11.943-11.52zm-29.218 5.12c-2.346.213-4.052 2.133-4.052 4.48v4.48c0 2.348 1.706 4.268 3.839 4.482l3.412.427c.64 1.92 1.28 4.053 2.346 5.76l-2.132 2.56c-1.494 1.707-1.28 4.267.212 5.974l3.2 3.2c1.492 1.707 4.052 1.707 5.971.427l2.559-2.134c1.92 1.067 3.84 1.92 5.972 2.561l.427 3.414c.212 2.346 2.133 4.053 4.479 4.053h4.478c2.346 0 4.265-1.706 4.479-3.84l.426-3.2c2.347-.64 4.48-1.494 6.399-2.56l2.558 1.92c1.707 1.493 4.267 1.28 5.972-.214l3.2-3.2c1.706-1.494 1.706-4.054.426-5.974l-1.92-2.56c1.28-1.92 2.134-4.054 2.773-6.187l2.986-.214c2.346-.213 4.053-2.133 4.053-4.48v-4.481c0-2.347-1.707-4.267-3.84-4.48l-2.985-.427c-.64-2.133-1.28-4.268-2.347-6.188l1.706-2.133c1.494-1.707 1.28-4.267-.212-5.974l-3.2-3.2c-1.493-1.708-4.052-1.708-5.971-.427l-2.133 1.706c-2.133-1.28-4.266-2.133-6.398-2.773l-.214-2.773c-.213-2.347-2.132-4.055-4.479-4.055h-4.478c-2.346 0-4.266 1.708-4.478 3.841l-.427 2.773c-2.346.641-4.693 1.494-6.825 2.775l-2.133-1.921c-1.706-1.493-4.265-1.28-5.971.213l-3.2 3.2c-1.706 1.494-1.706 4.055-.426 5.975l1.92 2.56c-1.067 1.92-1.92 4.054-2.56 6.188l-3.412.426zM161.293 213.706l-7.535-13.114a5.88 5.88 0 0 1 0-5.853l7.535-13.114a5.87 5.87 0 0 1 5.09-2.946h15.02a5.87 5.87 0 0 1 5.09 2.946l7.535 13.114a5.875 5.875 0 0 1 0 5.853l-7.535 13.114a5.87 5.87 0 0 1-5.09 2.946h-15.02a5.87 5.87 0 0 1-5.09-2.946M827.948 116.48l8.584-4.935a3.842 3.842 0 0 1 3.832 0l8.584 4.935a3.848 3.848 0 0 1 1.93 3.334v9.841a3.847 3.847 0 0 1-1.93 3.334l-8.584 4.936a3.842 3.842 0 0 1-3.832 0l-8.584-4.936a3.847 3.847 0 0 1-1.93-3.334v-9.84c0-1.378.737-2.65 1.93-3.335M564.755 183.564l-10.853-18.893a8.465 8.465 0 0 1 0-8.432l10.853-18.892a8.455 8.455 0 0 1 7.333-4.245h21.641a8.457 8.457 0 0 1 7.333 4.245l10.854 18.892a8.465 8.465 0 0 1 0 8.432l-10.854 18.893a8.457 8.457 0 0 1-7.333 4.244h-21.64a8.455 8.455 0 0 1-7.334-4.244M11.977 464.805L1.125 445.914a8.463 8.463 0 0 1 0-8.431l10.852-18.891a8.457 8.457 0 0 1 7.332-4.245h21.639a8.457 8.457 0 0 1 7.332 4.245l10.852 18.89c1.5 2.611 1.5 5.822 0 8.432l-10.852 18.89a8.457 8.457 0 0 1-7.332 4.246H19.309a8.457 8.457 0 0 1-7.332-4.245M366.861 146.439c9.587 0 17.36 7.775 17.36 17.366s-7.773 17.366-17.36 17.366c-9.588 0-17.36-7.775-17.36-17.366s7.772-17.366 17.36-17.366M928.01 414.19c4.83 0 8.745 3.917 8.745 8.748 0 4.83-3.916 8.747-8.745 8.747-4.828 0-8.744-3.916-8.744-8.747 0-4.83 3.916-8.748 8.744-8.748M101.732 235.308a7.989 7.989 0 0 1 7.988 7.99 7.99 7.99 0 0 1-7.988 7.99 7.99 7.99 0 0 1-7.987-7.99 7.989 7.989 0 0 1 7.987-7.99M108.488 462.2c6.547 0 11.854 5.31 11.854 11.858 0 6.549-5.307 11.859-11.854 11.859-6.547 0-11.853-5.31-11.853-11.86 0-6.548 5.306-11.857 11.853-11.857M708.912 42.691c5.429 0 9.83 4.403 9.83 9.834 0 5.432-4.401 9.835-9.83 9.835s-9.83-4.403-9.83-9.835c0-5.431 4.401-9.834 9.83-9.834M63.794 180.583l37.3-10.04c4.86-1.308 6.478-7.393 2.909-10.944L76.59 132.325c-3.566-3.547-9.632-1.904-10.921 2.96l-9.887 37.314c-1.287 4.858 3.16 9.29 8.012 7.984M74.016 570.77l12.05-20.93c1.57-2.726-.404-6.13-3.55-6.122l-24.165.066c-3.143.01-5.098 3.418-3.52 6.137l12.116 20.862c1.577 2.717 5.502 2.708 7.069-.013M759.164 192.333l8.604 31.988c1.264 4.701 7.145 6.266 10.578 2.814l23.37-23.51c3.43-3.448 1.841-9.317-2.86-10.563l-31.974-8.478c-4.696-1.245-8.98 3.056-7.718 7.75M390.483.205l-32.59 8.773c-4.298 1.156-5.728 6.538-2.572 9.677l23.951 23.83c3.154 3.138 8.52 1.684 9.658-2.616l8.638-32.603c1.139-4.296-2.794-8.216-7.085-7.061M858.15 570.062l-27.678 7.45c-3.65.983-4.865 5.553-2.184 8.22l20.34 20.238c2.679 2.663 7.235 1.429 8.202-2.223l7.337-27.688c.967-3.649-2.374-6.978-6.017-5.997" fill="#000" opacity=".079"/><path d="M745.322 94.616h-53.227c-8.686 0-15.794 7.11-15.794 15.8v26.544c0 8.69 7.108 15.8 15.794 15.8v16.748l16.742-16.748h36.485c8.686 0 15.793-7.11 15.793-15.8v-26.544c0-8.69-7.107-15.8-15.793-15.8" fill="#000" opacity=".066"/><path fill="#FFF" opacity=".255" d="M707.258 131.904l-15.32-5.53v-5.372l15.32-5.53v4.898l-10.74 3.476 10.74 3.476zM710.89 139.33l11.845-31.6h3.791l-11.845 31.6zM730.001 131.904v-4.899l10.74-3.475-10.74-3.476v-4.898l15.32 5.53v5.372z"/><path d="M614.748 31.874l15.547 15.553a5.418 5.418 0 0 1 0 7.662l-15.547 15.553a5.413 5.413 0 0 1-7.659 0l-15.547-15.553a5.418 5.418 0 0 1 0-7.662l15.547-15.553a5.413 5.413 0 0 1 7.659 0M899.26 199.407l15.548 15.553a5.418 5.418 0 0 1 0 7.662l-15.547 15.553a5.413 5.413 0 0 1-7.659 0l-15.547-15.553a5.418 5.418 0 0 1 0-7.662l15.547-15.553a5.415 5.415 0 0 1 7.659 0M932.142 516.704l15.547 15.553a5.418 5.418 0 0 1 0 7.661l-15.547 15.553a5.413 5.413 0 0 1-7.659 0l-15.547-15.553a5.418 5.418 0 0 1 0-7.661l15.547-15.553a5.415 5.415 0 0 1 7.659 0M282.485 7.355l7.614 7.618a2.655 2.655 0 0 1 0 3.751l-7.614 7.617a2.65 2.65 0 0 1-3.75 0l-7.614-7.617a2.653 2.653 0 0 1 0-3.751l7.614-7.618a2.65 2.65 0 0 1 3.75 0" fill="#000" opacity=".079"/></g></svg>