<svg width="111" height="354" viewBox="0 0 111 354" xmlns="http://www.w3.org/2000/svg"><title>F5C56E22-C640-427E-B9F1-FB13262583B5</title><g fill="none" fill-rule="evenodd"><path d="M110.644 342.002c0 6.432-22.903 11.645-51.156 11.645-28.252 0-51.155-5.213-51.155-11.645 0-6.432 22.903-11.646 51.155-11.646 28.253 0 51.156 5.214 51.156 11.646" fill="gray" opacity=".084"/><path d="M97.366 126.71c-1.878 8.985-16.255 3.675-16.255 3.675s-9.196-25.278-2.642-27.842c0 0 11.884-5.645 9.528-5.645-1.252 0 10.296 25.37 9.37 29.813" fill="#FB924E"/><path d="M94.773 106.882l-17.034 8.86-12.495-13.409 6.742-10.938 4.42-10.952s12.832 10.349 18.367 26.439" fill="#D9431C"/><path d="M30.85 317.931s3.813 17.35 27.641 23.633c6.63 1.748 4.516 6.02 4.516 6.02-1.3 2.475-11.971 2.294-15.192 1.843-6.503-.913-17.931-5.311-17.931-5.311l-1.494 2.298c-4.594-.177-9.046-1.45-9.046-1.45-1.463-2.117-2.918-7.254.18-13.625 7.236-14.875 6.969-35.16 11.325-13.408" fill="#272727"/><path d="M63.796 314.688s4.01 16.42 26.815 21.868c6.346 1.516 4.429 5.627 4.429 5.627-1.183 2.382-11.338 2.447-14.412 2.089-6.205-.724-17.174-4.655-17.174-4.655l-1.37 2.22c-4.374-.066-8.637-1.18-8.637-1.18-1.439-1.98-2.936-6.835-.128-12.964 6.555-14.31 5.854-33.601 10.477-13.005" fill="#272727"/><path d="M21.414 325.241c2.113 2.353 4.686 2.84 7.05 2.54 3.828-.476 7.123-3.007 7.123-3.007s2.269-10.309 3.135-24.742c1.047-17.399 12.188-85.083 12.188-85.083s2.158 38.463 1.484 55.58c-.845 21.426 1.93 51.449 1.93 51.449 2.35 1.941 5.362 2.132 8.145 1.66 4.255-.717 7.987-3 7.987-3 13.556-82.072 5.507-159.525 5.507-159.525s-54.455-32.945-57.818 4.818c-.331 3.7-.606 7.593-.828 11.648-3.329 59.836 4.097 147.662 4.097 147.662" fill="#534741"/><path d="M21.414 325.241c2.113 2.353 4.686 2.84 7.05 2.54 4.802-29.95 8.57-62.269 8.57-62.269s-5.863-8.876-8.666-30.091c-1.517-11.48-.68-48.722.621-58.568l-11.672.726C14 237.598 21.414 325.24 21.414 325.24M52.393 270.528c-1.056 24.371 1.931 51.45 1.931 51.45 2.35 1.94 5.362 2.132 8.144 1.66 8.248-9.481 9.17-50.429 9.992-53.227.83-2.798-5.293 2.55-9.402-19.166-1.583-8.366-.607-49.745-.607-49.745-4.06 4.83-11.541 13.45-11.541 13.45s2.225 38.465 1.483 55.578" fill="#45342C"/><path d="M79.148 119.636c-4.852 28.267-.526 50.886-.983 59.198 0 0-12.182 4.009-25.184 5.209-10.41.961-19.581-.478-26.254-2.218-7.055-1.834-11.319-3.996-11.319-3.996 5.203-13.571.05-48.957-4.35-72.706-2.473-13.39 1.552-23.078 1.552-23.078a242.974 242.974 0 0 1 11.556-1.866c4.883-.665 9.46-1.13 13.716-1.439 24.645-1.77 38.524 1.703 38.524 1.703.682 5.014 5.415 23.599 2.742 39.193" fill="#F16529"/><path d="M36.218 78.228c-1.004 2.617 8.49 8.38 10.517 9.334l1.448-.314s4.314-5.178 3.244-7.733c-.706-1.696-1.092-3.475-1.27-5.195-.542-5.192.802-9.825.802-9.825l-15.37-2.445s2.422 11.502.63 16.178" fill="#FB924E"/><path d="M36.218 78.228c-1.004 2.617.122 4.324 2.15 5.277-.015-3.1.515-9.245 2.769-8.214 6.678 3.054 9.02-.971 9.02-.971-.542-5.192.802-9.825.802-9.825l-15.37-2.445s2.422 11.502.63 16.178" fill="#E56528"/><path d="M68.036 50.97c-.851 5.931-2.854 11.466-6.735 15.55-3.324 3.5-7.986 5.931-14.521 6.635-15.425 1.671-23.74-6.459-27.71-16.656v-.007c-5.673-13.3-4.016-30.113-2.845-33.28.65-1.747 2.975-4.097 6.7-6.22 8.17-4.662 22.956-8.243 40.922-2.111 0 0 6.562 19.583 4.19 36.089" fill="#FEAD6C"/><path d="M58.209 40.264c.133 1.819 1.081 3.232 2.118 3.155 1.037-.077 1.77-1.613 1.636-3.431-.133-1.819-1.08-3.232-2.118-3.155-1.036.077-1.77 1.613-1.636 3.431M33.282 42.733c.134 1.818 1.081 3.23 2.119 3.154 1.036-.076 1.769-1.613 1.636-3.431-.134-1.819-1.082-3.231-2.119-3.155-1.036.077-1.77 1.613-1.636 3.432" fill="#333"/><path d="M39.02 34.024c-3.4-1.327-8.328-.25-10.148 3.026-.624 1.124 1.015 3.838 1.85 2.34.855-1.535 2.138-2.205 3.81-2.47 1.31-.206 3.1-.402 4.366.092 1.617.63 1.331-2.516.122-2.988M63.961 32.527c-1.849-.928-3.878-1.31-5.934-1.073-1.698.195-.89 3.532.519 3.37 1.867-.216 3.614.07 5.297.914.752.377 1.234-.446 1.258-1.085.031-.827-.381-1.746-1.14-2.126" fill="#603813"/><path d="M46.732 73.158c6.535-.704 11.242-3.14 14.569-6.64-12.676 7.54-26.004 4.156-33.221-4.467-11.59-13.845-3.014-39.26-1.52-44.304 0 0-1.354-.388-3.655-.757-3.73 2.123-6.078 4.473-6.724 6.221-2.067 5.595-4.998 53.787 30.551 49.947" fill="#FB924E"/><path d="M63.842 18.186c0 .006-.006.006-.012.012-4.477 4.373-12.984 7.238-18.298 5.183-9.39-3.624-10.117-5.145-16.752-4.932-5.728.183-10.185 12.214-8.783 24.649.3 2.676-1.37 3.757-3.637 2.984-3.593-1.225-8.67-7.131-9.634-18.748C5.05 7.052 18.2 12.097 20.423 8.799 29.313-4.39 57.025.95 64.362 7.574c3.824 3.456 2.723 7.433-.52 10.612" fill="#8C6239"/><path d="M68.035 50.968c-.85 5.933-2.853 11.467-6.733 15.555a20.23 20.23 0 0 1-2.636 2.31c-3.09 2.246-7.078 3.786-12.055 4.324a45.572 45.572 0 0 1-2.971.208c-.655.014-1.299.01-1.919-.01-.182-.005-.364-.015-.54-.02l-.482-.03c-12.577-.853-19.232-9.31-22.567-19.074-1.303-5.514-1.337-9.913-1.337-9.913l5.425 1.506c2.877 3.263 7.835 8.268 11.012 8.214 4.702-.089 10.295-6.98 25.036-2.597 4.377 1.309 7.535.834 9.767-.473" fill="#8C6239"/><path d="M61.302 66.523a20.23 20.23 0 0 1-2.636 2.31c-3.045 2.256-6.96 3.786-11.932 4.324a42.922 42.922 0 0 1-3.094.207c-.655.015-1.299.01-1.919-.01-.182-.004-.364-.014-.54-.02-.163-.009-.32-.018-.482-.029-12.577-.853-19.232-9.31-22.567-19.074-1.303-5.514-1.337-9.913-1.337-9.913s5.425 1.49 5.425 1.506c.034.562.347 10.25 5.858 16.231 7.615 8.268 20.544 12.006 33.224 4.468" fill="#754C24"/><path d="M56.954 58.176c-.55 1.107-5.786 7.131-19.855-.408 0 0 .94-1.664.528-2.407-.462-.838-.528 2.407-3.707 3.344 0 0 .696 1.188 2.92.06 0 0 8.975 8.254 17.027 3.811 3.313-1.827 3.685-5.604 3.087-4.4" fill="#603813"/><path d="M46.984 38.736c.262-2.061 3.521 4.093 6.672 5.963 3.085 1.832-.678 6.33-6.394 4.293 0 0 5.271-1.156 4.665-2.384-.606-1.227-5.578-2.872-4.943-7.872" fill="#E56528"/><path d="M48.002 210.08l.037.2c-.006.283-.037.868-.037 1.703v-1.904z" fill="#534741"/><path d="M15.164 177.83s5.9 2.67 12.143 4.143c0 0 9.745-81.427-13.221-92.718-1.595-.784-1.437 9.127-3.153 15.865 4.398 23.75 9.433 59.135 4.23 72.71" fill="#D9431C"/><path d="M25.815 147.293s-.418 6.194 5.842 8.024c0 0 45.923-14.978 45.923-28.81 0-1.782-41.945 8.01-43.66 14.749 1.285 0-2.68 2.433-8.105 6.037M59.619 90.075l-9.481-4.763-1.955 1.935 1.252-4.97zM46.735 87.562l-3.463-.424-6.222 9.441-12.884-16.4c4.883-.665 9.46-1.184 13.716-1.492l7.225 3.273 1.628 5.602z" fill="#D9431C"/><path fill="#F16529" d="M27.97 79.692l9.082 13.525 8.056-11.257-12.772-7.278zM51.078 74.682l-1.643 7.596 10.184 7.797-2.713-12.095z"/><g fill-rule="nonzero"><path fill="#E44D26" d="M40.03 144.127l-7.296-37.23 36.763-3.863.6 37.927-14.616 5.763z"/><path fill="#F16529" d="M55.168 143.526l11.81-4.656-.513-32.41-15.027 1.579z"/><path fill="#EBEBEB" d="M52.903 121.977l-6.09.64-.917-4.676 6.511-.684-.484-4.61-.016.002-11.525 1.212.24 1.225 2.467 12.583 10.299-1.083zM54.161 133.948l-.02.007-5.27-.847-.715-3.642-2.49.262-2.13.224 1.406 7.169 9.703 1.63.02-.008z"/><path fill="#FFDEB5" d="M35.08 96.325l2.34-.246.243 2.315 2.14-.225-.244-2.315 2.34-.245.736 7.008-2.34.245-.246-2.346-2.14.225.247 2.346-2.338.246-.737-7.008zM45.218 97.61l-2.059.216-.244-2.324 6.458-.679.244 2.324-2.06.216.492 4.685-2.339.245-.492-4.684zM50.398 94.715l2.438-.256 1.76 2.305 1.24-2.62 2.439-.257.737 7.008-2.33.245-.365-3.473-1.347 2.66-.04.005-1.872-2.323.365 3.474-2.289.24-.736-7.008zM59.439 93.765l2.34-.246.493 4.692 3.289-.346.243 2.316-5.628.592z"/><path fill="#FFF" d="M52.887 121.979l.485 4.609 5.667-.596.094 6.034-4.987 1.927.504 4.795 9.16-3.61-.013-.786-.194-12.248-.018-1.25-1.24.13zM51.907 112.65l.3 2.862.183 1.735.001.012 11.102-1.167.015-.002-.017-1.045-.035-2.36-.02-1.247z"/></g><path d="M97.176 129.256c-1.877 8.984-49.867 12-49.867 12s26.148-15.79 32.702-18.353c0 0 6.476-3.106 8.82-3.334 7.163-.694 9.272 5.245 8.345 9.687" fill="#FB924E"/><path d="M1.818 106.627s14.958 47.85 27.978 43.653c26.901-8.673 36.846-19.581 45.161-23.772 0 0-5.531-6.939-45.16 6.737l-16.744-29.348-11.235 2.73z" fill="#FEAD6C"/><path d="M6.579 131.294l19.236-8.39-5.425-16.025c-3.076-24.918-7.78-24.833-7.78-24.833s-23.103 7.174-6.031 49.248" fill="#F16529"/><path d="M15.286 126.261s4.936-3.847 5.467-3.847c1.438 0 12.765.398 12.765.398s8.572 4.382 11.589 5.589l-14.951 4.629s-1.788 1.252-3.098 2.193c0 0-1.824 3.914-3.534 2.273l1.232-3.266 2.315-3.284-3.018 1.331s-3.157 4.87-4.853 2.347l3.12-5.004 4.29-1.893-5.237 1.028s-3.945 6.373-5.455 3.532l3.725-6.305 4.02-1.667L21.1 125.4s-5.244 3.82-5.815.862" fill="#FB924E"/><path d="M89.852 109.657s-6.219-.618-6.67-.334c-1.216.768-15.146 16.971-15.146 16.971s3.02-1.123 4.853 1.327l7.968-4.287s1.995-.031 3.12-.864c0 0 4.68 1.67 5.256-.633l-2.776-2.106-4.094.19 3.26-.486c1.143-.21 5.256 2.435 5.353-.608l-5.296-2.567-4.634.69 4.977-1.93s6.72 3.286 6.491.075l-6.499-3.346-4.285.738 2.743-.452s6.465.43 5.38-2.378" fill="#FEAD6C"/><path d="M63.842 18.186c3.03-4.644 2.185-8.589-9.315-12.88s-23.6-1.169-27.8 1.074c-4.207 2.243-1.903 6.383-5.616 7.194-3.705.81-7.816 3.416-8.877 9.1-1.035 5.544.727 17.703 3.682 22.378.231.364.375.703.444 1.03-3.593-1.225-8.67-7.131-9.634-18.748C5.05 7.052 18.2 12.097 20.423 8.799 29.313-4.39 57.025.95 64.362 7.574c3.824 3.456 2.723 7.433-.52 10.612" fill="#754C24"/><path d="M17.736 45.916c-1.188-2.848-3.537-5.188-6.384-6.36-1.455-.599-3.228-.863-4.521.034-1.415.984-1.711 2.978-1.49 4.692.534 4.118 3.466 7.832 7.339 9.293 1.661.628 3.746.736 4.988-.537 2.043-2.096.068-7.122.068-7.122" fill="#FB924E"/><path d="M15.012 46.746s-6.25-8.39-7.247-3.342c0 0 5.327.787 4.19 3.12-2.508 5.14 5.713 6.514 3.057.222" fill="#E56528"/></g></svg>