<svg width="192" height="192" viewBox="0 0 192 192" xmlns="http://www.w3.org/2000/svg" xmlns:xlink="http://www.w3.org/1999/xlink"><title>B78C5B59-27F2-4F59-BD7C-5198AFFF146D</title><defs><ellipse id="b" cx="96" cy="85" rx="82" ry="82"/><filter x="-50%" y="-50%" width="200%" height="200%" filterUnits="objectBoundingBox" id="a"><feOffset dy="11" in="SourceAlpha" result="shadowOffsetOuter1"/><feGaussianBlur stdDeviation="7" in="shadowOffsetOuter1" result="shadowBlurOuter1"/><feColorMatrix values="0 0 0 0 0 0 0 0 0 0 0 0 0 0 0 0 0 0 0.0640002264 0" in="shadowBlurOuter1"/></filter></defs><g fill="none" fill-rule="evenodd"><g><use fill="#000" filter="url(#a)" xlink:href="#b"/><use fill="#FFF" xlink:href="#b"/></g><path d="M115.4 87.507c0 11.326-9.268 20.506-20.7 20.506-11.432 0-20.7-9.18-20.7-20.506C74 76.18 83.268 67 94.7 67c11.432 0 20.7 9.18 20.7 20.507" fill="#E9EBEC"/><path d="M95.36 120.286C76.384 120.286 61 104.936 61 86M102 53c15.953 2.964 28.03 16.927 28.03 33.706M128.17 99A35.009 35.009 0 0 1 113 116.677" stroke="#BCC0C4" stroke-width="2"/><path d="M72 70.475C77.129 63.517 85.392 59 94.713 59c15.56 0 28.175 12.587 28.175 28.115 0 12.098-7.657 22.411-18.4 26.377" stroke="#6756EB" stroke-width="2"/><g stroke="#5245BC" stroke-width="2"><path d="M98.375 104.3h2.3M102.975 104.3h2.3M107.575 104.3h2.3"/></g><text font-family="GothamPro-Medium, Gotham Pro" font-size="19" font-weight="400" fill="#6756EB"><tspan x="73.472" y="94">24/7</tspan></text></g></svg>