<svg width="817" height="310" viewBox="0 0 817 310" xmlns="http://www.w3.org/2000/svg" xmlns:xlink="http://www.w3.org/1999/xlink"><title>5E61855F-B915-45FA-AA42-CBAFF95D6904</title><defs><path d="M315.191 280.384l-2.802-1.518c-.806 1.118-1.631 1.913-3.032 2.153-1.88.322-3.205-1.026-3.205-3.044 0-1.998 1.324-3.82 3.205-4.142 1.286-.22 2.188.22 2.955 1.05l2.725-2.58c-1.19-1.45-2.897-2.348-5.642-1.878-4.068.697-7.081 4.288-7.081 8.208 0 4.054 3.09 6.464 6.928 5.807 2.974-.51 4.682-2.09 5.949-4.056zm10.632.945v-5.11l4.778-.82v5.112l3.723-.638v-13.45l-3.723.638v5.034l-4.778.819v-5.035l-3.723.638v13.45l3.723-.638zm18.576-6.372l5.24-11.159-4.05.694-2.879 6.815-3.05-5.799-4.146.71 5.258 9.034c-.403.53-.844.72-1.17.777-.403.069-.998.055-1.517-.202l-1.458 2.94c.902.384 1.938.571 3.224.35 2.073-.354 3.32-1.548 4.548-4.16zm10.46-8.268v-.519l3.127-.536v10.184l3.723-.638v-13.45l-10.324 1.77v1.863c0 8.147-.998 8.856-2.054 9.037-.173.03-.69.08-.863.07l-.25 2.907c.288.046 1.248.093 2.226-.074 2.61-.448 4.414-2.41 4.414-10.614zm12.914 7.452l2.706-4.537 1.632-.28v4.074l3.723-.638v-13.45l-6.353 1.088c-3.05.523-5.565 2.395-5.565 5.546 0 2.095 1.094 3.271 2.764 3.696l-3.205 5.238 4.298-.737zm-.115-8.57c0-1.094.768-1.821 2.015-2.035l2.438-.418v3.343l-2.457.421c-1.266.217-1.996-.33-1.996-1.31zm18.212 8.16l.25-2.734 7.139-1.223v2.69l3.147-.54.422-6.028-1.516.26v-10.184l-10.229 1.753v.346c0 5.053-.46 7.476-1.362 10.07l-1.19.205v5.956l3.34-.572zm2.802-13.22v-.135l2.917-.5v6.918l-3.972.68c.614-1.95 1.055-3.985 1.055-6.963zm23.643-.727c0-3.9-3.07-6.468-7.216-5.758-4.145.71-7.254 4.375-7.254 8.237 0 3.9 3.07 6.468 7.216 5.758 4.145-.71 7.254-4.375 7.254-8.237zm-10.65 1.825c0-1.98 1.362-3.865 3.396-4.214 2.053-.352 3.454 1.1 3.454 3.04 0 1.979-1.362 3.865-3.416 4.217-2.034.348-3.435-1.103-3.435-3.043zm21.627 3.019v-10.184l4.587-.786v10.184l3.723-.638v-13.45l-12.033 2.062v13.45l3.723-.638zm14.412-2.47v-3.843l1.843-.315c3.339-.573 5.776-2.662 5.776-5.832 0-3.017-2.188-4.39-5.585-3.808l-5.757.986v13.45l3.723-.638zm0-10.318l1.747-.3c1.343-.23 2.149.247 2.149 1.4 0 1.095-.806 1.925-2.13 2.152l-1.766.303v-3.555zm23.202-.383c0-3.9-3.07-6.467-7.216-5.757-4.145.71-7.254 4.375-7.254 8.237 0 3.9 3.07 6.468 7.216 5.757 4.145-.71 7.254-4.374 7.254-8.237zm-10.651 1.825c0-1.979 1.362-3.865 3.397-4.213 2.053-.352 3.454 1.099 3.454 3.04 0 1.979-1.363 3.865-3.416 4.216-2.034.349-3.435-1.102-3.435-3.043zm16.235 3.944v-7.686l3.416 4.64.077-.012 3.435-5.854v7.724l3.704-.634v-13.45l-3.934.674-3.205 5.756-3.205-4.658-3.934.674v13.45l3.646-.624zm16.485-2.825l5.2-8.462v7.57l3.685-.63v-13.45l-3.473.594-5.2 8.462v-7.57l-3.685.631v13.45l3.473-.595zm23.681-6.825l-2.802-1.518c-.806 1.118-1.63 1.913-3.032 2.153-1.88.322-3.204-1.027-3.204-3.044 0-1.999 1.324-3.82 3.204-4.143 1.286-.22 2.188.221 2.956 1.05l2.725-2.58c-1.19-1.449-2.898-2.347-5.642-1.877-4.069.697-7.082 4.288-7.082 8.207 0 4.055 3.09 6.465 6.928 5.807 2.975-.51 4.683-2.09 5.95-4.055zm15.027-6.533c0-3.9-3.07-6.468-7.216-5.757-4.145.71-7.254 4.374-7.254 8.237 0 3.9 3.07 6.467 7.216 5.757 4.145-.71 7.254-4.375 7.254-8.237zm-10.651 1.825c0-1.979 1.362-3.865 3.397-4.213 2.053-.352 3.454 1.099 3.454 3.04 0 1.978-1.363 3.864-3.416 4.216-2.034.349-3.435-1.102-3.435-3.043zm19.517 3.38c3.205-.548 5.085-2.273 5.085-4.579 0-1.864-1.036-2.608-2.667-2.867 1.19-.723 2.072-1.796 2.072-3.352 0-.961-.326-1.616-.863-2.062-.787-.653-1.977-.872-3.666-.583l-6.89 1.18v13.451l6.929-1.187zm-3.301-4.91l2.84-.486c1.248-.214 1.823.168 1.823.898 0 .826-.652 1.38-1.784 1.574l-2.88.493v-2.479zm0-4.976l2.418-.414c1.113-.191 1.689.133 1.689.863 0 .826-.634 1.319-1.766 1.513l-2.341.401v-2.363z" id="b"/><filter x="-50%" y="-50%" width="200%" height="200%" filterUnits="objectBoundingBox" id="a"><feOffset dy="10" in="SourceAlpha" result="shadowOffsetOuter1"/><feGaussianBlur stdDeviation="8" in="shadowOffsetOuter1" result="shadowBlurOuter1"/><feColorMatrix values="0 0 0 0 0 0 0 0 0 0 0 0 0 0 0 0 0 0 0.0905230978 0" in="shadowBlurOuter1"/></filter><path d="M242.108 78.457c0 6.276 4.94 10.348 11.61 9.126 6.669-1.222 11.67-7.177 11.67-13.391 0-6.276-4.94-10.348-11.609-9.126-6.67 1.222-11.671 7.177-11.671 13.391zm17.167-3.145c0 3.184-2.192 6.244-5.496 6.85-3.273.6-5.527-1.708-5.527-4.83 0-3.185 2.192-6.245 5.465-6.845 3.304-.605 5.558 1.702 5.558 4.825zm19.823 2.149c-3.026.554-5.156-1.59-5.156-4.837 0-3.215 2.13-6.171 5.156-6.725 2.069-.38 3.52.313 4.755 1.632l4.385-4.204c-1.915-2.308-4.663-3.72-9.078-2.912-6.546 1.2-11.394 7.034-11.394 13.341 0 6.523 4.972 10.342 11.147 9.21 4.786-.876 7.534-3.451 9.572-6.638l-4.508-2.389c-1.297 1.814-2.625 3.109-4.879 3.522zm25.628-7.88v8.223l5.99-1.097v-21.64l-5.99 1.097v8.1l-7.688 1.408v-8.1l-5.99 1.098v21.64l5.99-1.097V70.99l7.688-1.41zm9.078-4.26c0 6.275 4.94 10.348 11.61 9.126 6.669-1.223 11.671-7.178 11.671-13.392 0-6.276-4.94-10.348-11.61-9.126-6.669 1.222-11.671 7.178-11.671 13.392zm17.167-3.146c0 3.184-2.192 6.245-5.496 6.85-3.273.6-5.527-1.708-5.527-4.83 0-3.184 2.193-6.245 5.466-6.844 3.303-.606 5.557 1.702 5.557 4.824zm24.27-4.941c1.914-1.186 3.334-2.93 3.334-5.434 0-1.546-.524-2.594-1.389-3.3-1.266-1.036-3.18-1.366-5.898-.868l-11.084 2.031v21.64l11.146-2.042c5.157-.944 8.183-3.756 8.183-7.465 0-3-1.668-4.178-4.292-4.562zm-1.698 4.763c0 1.329-1.05 2.232-2.872 2.566l-4.632.849v-3.988l4.57-.838c2.007-.367 2.934.236 2.934 1.41zm-.896-7.936c0 1.33-1.019 2.134-2.84 2.468l-3.768.69v-3.802l3.89-.713c1.792-.328 2.718.182 2.718 1.357zm23.312 2.468v8.223l5.99-1.097v-21.64l-5.99 1.097v8.1l-7.688 1.408v-8.1l-5.99 1.098v21.64l5.99-1.097v-8.223l7.688-1.409zm9.078-4.26c0 6.276 4.94 10.348 11.61 9.126 6.67-1.222 11.671-7.178 11.671-13.392 0-6.276-4.94-10.348-11.61-9.126-6.669 1.222-11.671 7.178-11.671 13.392zm17.168-3.146c0 3.185-2.193 6.245-5.497 6.85-3.273.6-5.527-1.708-5.527-4.83 0-3.184 2.193-6.245 5.466-6.844 3.304-.606 5.558 1.702 5.558 4.824zm23.188 6.572l5.928-1.086V32.968l-5.588 1.024-8.368 13.714v-12.18l-5.928 1.085v21.64l5.588-1.023 8.368-13.714v12.18zm-3.829-25.793c-1.142.21-1.76-.42-2.161-1.459l-3.273 1.187c.463 2.914 2.47 4.278 5.434 3.735 2.995-.55 5.002-2.648 5.466-5.732l-3.273.013c-.402 1.186-1.02 2.041-2.193 2.256zm30.322 12.9l5.434 7.043 7.194-1.318-8.46-10.785 8.182-10.805-7.101 1.301-7.442 10.144v-8.78l-5.99 1.097v21.64l5.99-1.097v-5.595l2.193-2.844zm28.653-18.852l-4.631 11.02-4.91-9.272-6.67 1.222 8.461 14.433c-.648.86-1.358 1.176-1.883 1.273-.649.118-1.606.108-2.44-.295l-2.346 4.758c1.451.6 3.118.881 5.187.502 3.335-.61 5.342-2.555 7.318-6.782l8.43-18.053-6.516 1.194zm17.384 12.272c5.373-.984 9.294-4.392 9.294-9.493 0-4.854-3.52-7.022-8.985-6.02l-9.263 1.696v21.641l5.99-1.098v-6.183l2.964-.543zm3.304-8.18c0 1.763-1.297 3.113-3.428 3.504l-2.84.52v-5.719l2.81-.515c2.161-.396 3.458.356 3.458 2.21zm19.113 5.217c-3.026.554-5.157-1.59-5.157-4.836 0-3.216 2.13-6.172 5.157-6.726 2.068-.38 3.52.313 4.755 1.632l4.384-4.204c-1.914-2.307-4.662-3.72-9.078-2.912-6.546 1.2-11.393 7.034-11.393 13.341 0 6.523 4.971 10.342 11.146 9.21 4.786-.876 7.534-3.451 9.572-6.638l-4.508-2.389c-1.297 1.814-2.624 3.109-4.878 3.522zm33.872-17.552v16.385l5.99-1.098V9.354l-19.36 3.547v21.64l5.99-1.097V17.059l7.38-1.352zm9.077 3.901c0 6.276 4.94 10.348 11.61 9.126 6.67-1.222 11.672-7.178 11.672-13.392 0-6.275-4.94-10.347-11.61-9.125-6.67 1.222-11.672 7.177-11.672 13.391zm17.168-3.145c0 3.184-2.192 6.244-5.496 6.85-3.273.6-5.527-1.708-5.527-4.83 0-3.185 2.192-6.245 5.465-6.845 3.304-.605 5.558 1.702 5.558 4.825z" id="d"/><filter x="-50%" y="-50%" width="200%" height="200%" filterUnits="objectBoundingBox" id="c"><feOffset dy="10" in="SourceAlpha" result="shadowOffsetOuter1"/><feGaussianBlur stdDeviation="8" in="shadowOffsetOuter1" result="shadowBlurOuter1"/><feColorMatrix values="0 0 0 0 0 0 0 0 0 0 0 0 0 0 0 0 0 0 0.0905230978 0" in="shadowBlurOuter1"/></filter><path d="M404.499 135.483c0-17.97-12.276-22.766-32.04-23.907-11.909-.81-14.855-2.167-14.855-6.49 0-3.648 2.824-6.863 8.593-7.91 7.612-1.382 16.205.3 24.062 4.953l11.907-20.672c-9.33-6.547-20.746-8.798-35.355-6.146-20.624 3.745-33.268 18.74-33.268 36.305 0 19.726 14.117 22.838 32.409 24.11 11.662.855 14.486 2.504 14.486 6.423 0 4.323-3.438 7.38-9.821 8.538-9.944 1.806-19.397-.396-27.867-6.29l-13.258 19.837c10.557 8.487 25.043 11.126 40.265 8.362 20.87-3.79 34.742-17.792 34.742-37.113zm90.966-6.788l-17.923-10.797c-5.156 7.827-10.435 13.379-19.396 15.006-12.031 2.184-20.502-7.357-20.502-21.543 0-14.052 8.471-26.804 20.502-28.988 8.225-1.494 13.994 1.647 18.905 7.511l17.432-18.027c-7.611-10.237-18.537-16.63-36.092-13.443-26.025 4.725-45.299 29.842-45.299 57.404 0 28.508 19.765 45.592 44.317 41.134 19.028-3.455 29.954-14.49 38.056-28.257zm34.005 13.282v-28.643l10.435-1.895 17.31 25.501 27.498-4.993-20.502-29.244c10.68-6.939 17.678-17.802 17.678-32.259 0-9.592-2.578-16.42-7.611-21.046-5.77-5.303-14.854-7.436-27.99-5.051l-40.634 7.377v94.577l23.816-4.324zm0-71.878l15.59-2.831c7.98-1.449 12.89 1.443 12.89 8.874 0 7.16-4.664 12.331-12.767 13.802l-15.713 2.853V70.1zm88.88 55.741V31.263l-23.94 4.347v94.577l23.94-4.347zm39.528-7.177V91.641l11.786-2.14c21.36-3.878 36.95-18.463 36.95-40.756 0-21.212-13.994-30.966-35.723-27.021l-36.828 6.686v94.577l23.815-4.324zm0-72.554l11.172-2.028c8.593-1.56 13.749 1.827 13.749 9.934 0 7.701-5.156 13.501-13.627 15.039l-11.294 2.05V46.11zM761.49 99.852V28.243l25.78-4.68V.594L711.893 14.28v22.969l25.78-4.68v71.608l23.816-4.324z" id="f"/><filter x="-50%" y="-50%" width="200%" height="200%" filterUnits="objectBoundingBox" id="e"><feOffset dy="10" in="SourceAlpha" result="shadowOffsetOuter1"/><feGaussianBlur stdDeviation="8" in="shadowOffsetOuter1" result="shadowBlurOuter1"/><feColorMatrix values="0 0 0 0 0 0 0 0 0 0 0 0 0 0 0 0 0 0 0.0905230978 0" in="shadowBlurOuter1"/></filter><path d="M53.77 220.993c-5.648 7.24-13.75 12.09-23.57 13.873-14.978 2.719-24.185-2.5-30.2-10.46l15.345-18.73c4.174 4.782 8.102 7.312 13.381 6.353 6.015-1.092 9.821-6.241 9.821-15.023v-59.854l23.693-4.302v59.989c0 11.89-2.7 20.757-8.47 28.154zm37.687 1.13l-25.043 4.546 36.583-101.894 22.956-4.168 36.583 88.61-25.534 4.636-6.261-15.752-33.146 6.018-6.138 18.003zm22.834-68.324l9.575 25.149-19.273 3.5 9.698-28.649zm94.403 47.713l-22.097 4.012-34.864-88.922 26.64-4.837 19.518 56.31 19.52-63.398 26.148-4.747-34.865 101.582zm49.105-9.59l-25.043 4.546 36.583-101.894 22.956-4.168 36.583 88.61-25.535 4.636-6.26-15.752-33.146 6.018-6.138 18.003zm22.834-68.324l9.575 25.149-19.274 3.5 9.699-28.649z" id="h"/><filter x="-50%" y="-50%" width="200%" height="200%" filterUnits="objectBoundingBox" id="g"><feOffset dy="10" in="SourceAlpha" result="shadowOffsetOuter1"/><feGaussianBlur stdDeviation="8" in="shadowOffsetOuter1" result="shadowBlurOuter1"/><feColorMatrix values="0 0 0 0 0 0 0 0 0 0 0 0 0 0 0 0 0 0 0.0905230978 0" in="shadowBlurOuter1"/></filter></defs><g fill="none" fill-rule="evenodd"><g><use fill="#000" filter="url(#a)" xlink:href="#b"/><use fill="#FFF" xlink:href="#b"/></g><g><use fill="#000" filter="url(#c)" xlink:href="#d"/><use fill="#FFF" xlink:href="#d"/></g><g transform="translate(14 40)"><use fill="#000" filter="url(#e)" xlink:href="#f"/><use fill="#FFF" xlink:href="#f"/></g><g transform="translate(14 40)"><use fill="#000" filter="url(#g)" xlink:href="#h"/><use fill="#FF3975" xlink:href="#h"/></g></g></svg>