<svg width="1440" height="555" viewBox="0 0 1440 555" xmlns="http://www.w3.org/2000/svg" xmlns:xlink="http://www.w3.org/1999/xlink"><title>CB23E496-8D75-481B-8C3F-6FC93901EF59</title><defs><path id="a" d="M0 0h2204v555H0z"/><path id="c" d="M.279 1453.13H1452.82V.325H.28z"/></defs><g transform="translate(-422)" fill="none" fill-rule="evenodd"><mask id="b" fill="#fff"><use xlink:href="#a"/></mask><use fill="#6756EB" xlink:href="#a"/><g mask="url(#b)"><path fill="#FF654A" d="M407.503 590.868h1479.199V-888.599h-1479.2z"/><g opacity=".246" transform="translate(407.219 -609.017)"><mask id="d" fill="#fff"><use xlink:href="#c"/></mask><path d="M395.733 1107.58h12.904v-28.203h-12.904v28.203zm-4.115 4.112h21.13v-36.432h-21.13v36.432zM421.57 1107.58h12.903v-41.511h-12.904v41.511zm-4.116 4.112h21.13v-49.74h-21.13v49.74zM447.405 1107.58h12.903v-53.705h-12.903v53.705zm-4.11 4.112h21.129v-61.938h-21.13v61.938z" fill="#E83B21" mask="url(#d)"/><path d="M422.893 991.475c-46.109 3.869-81.919 42.61-81.919 89.144 0 49.361 40.153 89.517 89.506 89.517a89.014 89.014 0 0 0 24.906-3.57l-9.756-25.375c-5.03 1.264-10.12 1.908-15.15 1.908-34.425 0-62.43-28.01-62.43-62.441 0-31.87 23.449-58.185 54.843-61.967v-27.216zm7.587 182.777c-51.623 0-93.616-42.005-93.616-93.633 0-49.434 38.637-90.466 87.96-93.41l2.184-.131v35.346l-1.873.17c-30.194 2.746-52.97 27.705-52.97 58.064 0 32.16 26.16 58.325 58.315 58.325 5.258 0 10.594-.756 15.847-2.237l1.806-.509 12.676 32.96-2.087.658a93.138 93.138 0 0 1-28.242 4.397zM438.064 1018.74a62.132 62.132 0 0 1 53.768 50.709l27.192-1.598c-5.883-41.246-39.432-72.902-80.96-76.384v27.274zm50.287 55.038l-.281-1.86a58.043 58.043 0 0 0-52.248-49.274l-1.874-.174v-35.4l2.184.13c45.247 2.703 81.943 37.328 87.259 82.331l.256 2.17-35.296 2.077zM484.347 1112.142l21.643 16.48a88.986 88.986 0 0 0 13.954-45.628l-27.206 1.598a62.293 62.293 0 0 1-8.391 27.55zm22.645 22.417l-28.107-21.4 1.003-1.593a58.223 58.223 0 0 0 8.826-28.983l.063-1.88 35.316-2.077-.004 2.189c-.034 18.572-5.53 36.528-15.882 51.933l-1.215 1.811zM459.793 1135.76l9.746 25.347a90.485 90.485 0 0 0 27.23-20.432l-21.613-16.46a62.168 62.168 0 0 1-15.363 11.545zm7.485 30.935l-12.661-32.935 1.68-.833a58.308 58.308 0 0 0 17.12-12.862l1.27-1.38 28.077 21.38-1.429 1.656c-8.783 10.18-19.875 18.504-32.067 24.069l-1.99.905zM1182.073 1143.658c.745 80.407 45.876 93.342 46.336 93.463l.067.03c5.394-1.899 44.86-18.403 44.855-93.697-21.614-.649-40.357-14.373-45.455-18.45-5.161 4.058-24.175 17.81-45.803 18.654zm46.195 97.846l-1.176-.49c-1.743-.435-49.14-13.777-49.14-99.376v-2.053h2.053c24.166 0 46.322-18.62 46.544-18.81l1.346-1.142 1.337 1.157c.213.184 21.72 18.572 45.692 18.572h.436l2.053-.02.019 2.059c.799 85.59-46.472 99.377-48.486 99.919l-.678.184z" fill="#E83B21" mask="url(#d)"/><path fill="#E83B21" mask="url(#d)" d="M1228.304 1204.636l-26.61-27.303 2.948-2.877 22.82 23.42 25.245-43.6 3.558 2.059z"/><path d="M1160.717 1218.646c-21.812 0-42.225-8.605-57.477-24.238l-.392-.474c-14.346-14.838-22.364-34.519-22.451-55.27-.01-20.722 7.669-40.17 21.609-55.11l.474-.503c.242-.32.77-.833 1.298-1.351a71.935 71.935 0 0 1 2.634-2.543l.377-.828.538-.005c14.67-13.123 33.573-20.353 53.318-20.368 19.885.015 38.792 7.24 53.448 20.359h.31l.49.721c.842.77 1.665 1.545 2.469 2.359l.348.353a45.302 45.302 0 0 1 1.52 1.545c12.178 13.09 19.489 29.032 21.353 46.354l-4.092.436c-1.767-16.426-8.705-31.55-20.064-43.734a33.29 33.29 0 0 0-1.564-1.632l-.416-.422c-.63-.63-1.264-1.24-1.913-1.84h-.295l-.475-.702c-13.959-12.678-32.062-19.666-50.989-19.686-18.97.02-37.006 6.96-50.96 19.55l-.377.828-.523.005c-.659.6-1.303 1.22-1.937 1.855-.799.8-1.269 1.264-1.733 1.768-13.46 14.465-20.743 32.91-20.743 52.228.092 20.03 7.704 38.703 21.435 52.916 14.724 15.148 34.086 23.313 54.78 23.313 11.616 0 22.733-2.518 33.031-7.487l1.787 3.71c-10.86 5.24-22.578 7.893-34.818 7.893" fill="#E83B21" mask="url(#d)"/><path fill="#E83B21" mask="url(#d)" d="M1158.66 1216.589l-.067-156.579h4.11l.073 156.579z"/><path d="M1201.39 1137.994l-4.115-.096c.46-20.267-3.82-57.105-37.636-76.089l2.015-3.593c35.689 20.044 40.216 58.587 39.736 79.778" fill="#E83B21" mask="url(#d)"/><path d="M1160.323 1218.631c-15.756-1.932-31.685-26.116-37.878-57.506-7.035-35.7-.963-81.488 37.195-102.907l2.014 3.588c-36.24 20.344-41.93 64.233-35.17 98.52 5.761 29.215 20.524 52.523 34.342 54.218l-.503 4.087z" fill="#E83B21" mask="url(#d)"/><path d="M1164.183 1104.763c-24.514 0-48.263-7.279-63.336-16.257l2.107-3.536c30.082 17.918 82.315 23.09 114.247.204l2.396 3.346c-16.365 11.734-36.13 16.243-55.414 16.243M1082.411 1140.395v-4.117l116.92-.053v4.116zM1160.889 1040.19h211.892V898.624h-211.892v141.566zm-4.116 4.111h220.118V894.502h-220.118v149.8z" fill="#E83B21" mask="url(#d)"/><path fill="#E83B21" mask="url(#d)" d="M1303.985 896.562h-4.115v-33.036h-66.062v33.036h-4.11V859.41h74.287zM1245.583 972.61l-87.167-18.005.828-4.03 87.172 18.006zM1288.084 972.61l-.832-4.03 87.171-18.004.828 4.029z"/><path d="M1248.056 981.138h37.553v-21.09h-37.553v21.09zm-4.116 4.116h45.784v-29.317h-45.784v29.317zM925.878 1106.524c-6.88 0-12.477 5.603-12.477 12.484 0 6.887 5.597 12.485 12.477 12.485s12.477-5.598 12.477-12.485c0-6.881-5.597-12.484-12.477-12.484m0 29.08c-9.146 0-16.588-7.443-16.588-16.596 0-9.152 7.442-16.6 16.588-16.6s16.588 7.448 16.588 16.6c0 9.153-7.442 16.596-16.588 16.596" fill="#E83B21" mask="url(#d)"/><path d="M925.878 1048.362c-38.947 0-70.632 31.69-70.632 70.645s31.685 70.65 70.632 70.65c38.948 0 70.632-31.695 70.632-70.65 0-38.954-31.684-70.645-70.632-70.645m0 145.407c-41.218 0-74.748-33.536-74.748-74.762 0-41.22 33.53-74.761 74.748-74.761s74.748 33.54 74.748 74.761c0 41.226-33.53 74.762-74.748 74.762" fill="#E83B21" mask="url(#d)"/><path fill="#E83B21" mask="url(#d)" d="M891.342 1182.948l-3.564-2.058 29.056-50.33 3.564 2.058zM934.92 1107.458l-3.563-2.058 29.056-50.33 3.563 2.058zM856.253 1139.798l-1.065-3.975 56.126-15.042 1.06 3.98zM940.441 1117.238l-1.065-3.976 56.126-15.041 1.065 3.975zM259.056 983.653l-64.033-169.455H169.92v-4.117h27.951l65.036 172.114z"/><path d="M251.616 952.322H355.92l26.828-71.003H224.783l26.833 71.003zm107.15 4.116H248.769l-29.936-79.23h169.87l-29.937 79.23zM266.165 984.031c-6.953 0-12.608 5.656-12.608 12.61s5.655 12.61 12.608 12.61 12.608-5.656 12.608-12.61-5.655-12.61-12.608-12.61m0 29.337c-9.219 0-16.723-7.501-16.723-16.727 0-9.22 7.504-16.726 16.723-16.726s16.724 7.506 16.724 16.726c0 9.226-7.505 16.727-16.724 16.727M340.783 985.334c-6.953 0-12.608 5.656-12.608 12.61 0 6.955 5.655 12.61 12.608 12.61s12.608-5.655 12.608-12.61c0-6.954-5.655-12.61-12.608-12.61m0 29.337c-9.219 0-16.723-7.506-16.723-16.726 0-9.22 7.504-16.727 16.723-16.727s16.724 7.506 16.724 16.727c0 9.22-7.505 16.726-16.724 16.726" fill="#E83B21" mask="url(#d)"/><path fill="#E83B21" mask="url(#d)" d="M280.828 998.698h45.353v-4.117h-45.353zM1261.485 448.818c-4.92 0-8.919 4.285-8.919 9.554v165.79c0 5.263 4 9.55 8.919 9.55h107.183c4.914 0 8.914-4.287 8.914-9.55v-165.79c0-5.269-4-9.554-8.914-9.554h-107.183zm107.183 189.01h-107.183c-7.185 0-13.03-6.131-13.03-13.667V458.372c0-7.535 5.845-13.67 13.03-13.67h107.183c7.185 0 13.03 6.135 13.03 13.67v165.79c0 7.535-5.845 13.666-13.03 13.666z"/><path fill="#E83B21" mask="url(#d)" d="M1308.782 623.375h12.593v-4.116h-12.593zM1059.895 636.214l-4.018-.891 7.698-34.737 4.019.887zM1121.342 636.214l-7.698-34.741 4.018-.887 7.699 34.737z"/><path fill="#E83B21" mask="url(#d)" d="M1037.471 637.826h106.297v-4.117h-106.297zM266.459 1097.236c-45.659 0-82.805 37.153-82.805 82.82 0 45.666 37.146 82.82 82.805 82.82 45.658 0 82.804-37.154 82.804-82.82 0-45.667-37.146-82.82-82.804-82.82m0 169.75c-47.925 0-86.916-38.998-86.916-86.93 0-47.938 38.991-86.936 86.916-86.936 47.929 0 86.92 38.998 86.92 86.936 0 47.932-38.991 86.93-86.92 86.93"/><path fill="#E83B21" mask="url(#d)" d="M275.627 1198.41h4.116v-36.703h-4.116zM251.24 1198.41h4.115v-36.703h-4.116zM219.722 1177.998h13.16c3.921 0 7.112-3.196 7.112-7.118 0-3.923-3.19-7.12-7.112-7.12h-13.16v14.238zm0 20.408h-4.116v-38.761h17.276c6.192 0 11.228 5.04 11.228 11.235 0 6.193-5.036 11.235-11.228 11.235h-13.16v16.29zM292.923 1177.998h13.16c3.922 0 7.112-3.196 7.112-7.118 0-3.923-3.19-7.12-7.112-7.12h-13.16v14.238zm0 20.408h-4.116v-38.761h17.276c6.193 0 11.228 5.04 11.228 11.235 0 6.193-5.035 11.235-11.228 11.235h-13.16v16.29zM1052.885 850.157c-45.658 0-82.804 37.154-82.804 82.82 0 45.667 37.146 82.82 82.804 82.82 45.659 0 82.805-37.153 82.805-82.82 0-45.666-37.146-82.82-82.805-82.82m0 169.751c-47.924 0-86.915-38.998-86.915-86.931 0-47.938 38.991-86.936 86.915-86.936 47.93 0 86.92 38.998 86.92 86.936 0 47.933-38.99 86.931-86.92 86.931"/><path d="M1037.185 954.937h-16.036c-6.338 0-11.495-5.157-11.495-11.496v-19.458c0-6.34 5.157-11.497 11.495-11.497h16.036v4.116h-16.036c-4.067 0-7.38 3.313-7.38 7.38v19.459c0 4.067 3.313 7.38 7.38 7.38h16.036v4.116zM1057.578 956.528l-3.927-1.225 14.298-45.88 3.932 1.226zM1074.27 956.528l-3.932-1.225 14.307-45.88 3.927 1.226z" fill="#E83B21" mask="url(#d)"/><path fill="#E83B21" mask="url(#d)" d="M1052.853 927.728h41.209v-4.116h-41.209zM1048.157 942.338h37.558v-4.116h-37.558zM323.045 498.784c-45.659 0-82.805 37.153-82.805 82.82 0 45.666 37.146 82.82 82.805 82.82 45.658 0 82.804-37.154 82.804-82.82 0-45.667-37.146-82.82-82.804-82.82m0 169.75c-47.924 0-86.916-38.993-86.916-86.93 0-47.938 38.992-86.936 86.916-86.936 47.929 0 86.92 38.998 86.92 86.935 0 47.938-38.991 86.932-86.92 86.932M1034.506 1155.525c-13.838 0-26.847 5.39-36.633 15.177-20.205 20.209-20.205 53.086-.005 73.294 20.205 20.209 53.076 20.209 73.281 0 9.785-9.787 15.18-22.799 15.174-36.644 0-13.845-5.389-26.858-15.174-36.64-9.785-9.792-22.8-15.182-36.638-15.187h-.005zm0 107.74c-14.322 0-28.639-5.452-39.547-16.358-21.808-21.812-21.803-57.304.004-79.115 10.56-10.562 24.606-16.383 39.543-16.383h.005c14.942 0 28.983 5.826 39.548 16.393 10.565 10.557 16.38 24.605 16.38 39.55.005 14.944-5.815 28.993-16.38 39.555-10.904 10.906-25.23 16.359-39.553 16.359zM89.63 883.243c-24.126 0-43.754-19.633-43.754-43.764 0-24.126 19.628-43.758 43.755-43.758 24.127 0 43.755 19.632 43.755 43.758 0 6.267-1.292 12.315-3.849 17.981l-3.752-1.695c2.314-5.123 3.486-10.605 3.486-16.286 0-21.86-17.784-39.642-39.64-39.642S49.99 817.62 49.99 839.48c0 21.865 17.784 39.647 39.64 39.647 5.675 0 11.155-1.172 16.278-3.482l1.695 3.749c-5.665 2.557-11.708 3.85-17.973 3.85zm12.047 35.923H77.585l-6.653-20.185-10.149-4.203-18.975 9.564-17.028-17.027 9.558-18.983-4.203-10.15-20.176-6.659V827.44l20.176-6.663 4.203-10.146-9.558-18.983 17.028-17.032 18.975 9.56 10.149-4.199 6.653-20.18h24.092l6.653 20.18 10.148 4.199 18.975-9.56 17.024 17.032-9.557 18.983 4.202 10.146 20.18 6.663v24.083l-20.18 6.664-4.202 10.145 2.827 5.613-3.675 1.85-3.675-7.293 5.641-13.637 19.15-6.32v-18.131l-19.15-6.32-5.64-13.627 9.068-18.015-12.821-12.819-18.002 9.07-13.634-5.64-6.314-19.154H80.562l-6.309 19.153-13.634 5.642-18.002-9.075-12.821 12.823 9.069 18.015-5.646 13.627-19.144 6.32v18.13l19.144 6.32 5.646 13.638-9.07 18.005 12.817 12.823 18.007-9.075 13.634 5.651 6.31 19.143h18.132l6.314-19.143 13.634-5.651 7.287 3.67-1.854 3.676-5.598-2.823-10.148 4.203-6.653 20.185z"/><path d="M96.12 863.962l61.85 61.86c4.958 4.955 13.024 4.96 17.987 0 4.958-4.958 4.958-13.031 0-17.99l-61.85-61.86 4.402-14-20.51-20.514-10.502 2.14 20.433 20.436-5.825 17.923-17.924 5.826-20.428-20.436-2.14 10.503 20.51 20.514 13.997-4.402zm70.84 69.696c-4.308 0-8.618-1.642-11.9-4.925L94.978 868.64l-13.998 4.392-23.841-23.835 4.106-20.18 24.064 24.068 13.528-4.392 4.396-13.535-24.064-24.068 20.176-4.107 23.831 23.845-4.396 14 60.087 60.093c6.565 6.567 6.565 17.245 0 23.812a16.78 16.78 0 0 1-11.906 4.925zM644.803 1195.88h194.524v-141.232h-64.343l-21.328 23.995H644.803v117.237zm198.64 4.116H640.686v-125.464h111.12l21.328-23.996h70.307v149.46zM848.892 1030.369H952.13v-95.493H848.892v95.493zm-4.11 4.116h111.463v-103.72H844.782v103.72z" fill="#E83B21" mask="url(#d)"/><path d="M869.384 932.826s-.063-26.819 0-35.754l.005-4.494c-.039-12.271-.078-26.18 8.299-34.586 5.098-5.11 12.56-7.593 22.819-7.593 10.516 0 18.094 2.484 23.158 7.588 8.188 8.252 8.081 21.739 7.984 34.775l-.024 40.06h-4.115l.024-40.089c.092-12.198.189-24.809-6.788-31.845-4.256-4.29-10.875-6.373-20.239-6.373-9.112 0-15.62 2.087-19.905 6.383-7.17 7.196-7.136 19.637-7.103 31.666v4.533c-.067 8.93 0 35.72 0 35.72l-4.115.009zM869.175 975.985h62.677v-21.918h-62.677v21.918zm-4.116 4.112h70.904V949.95h-70.904v30.146z" fill="#E83B21" mask="url(#d)"/><path fill="#E83B21" mask="url(#d)" d="M878.96 971.026h4.116v-12h-4.116zM891.955 971.026h4.116v-12h-4.116zM904.95 971.026h4.116v-12h-4.115zM917.946 971.026h4.116v-12h-4.116zM453.89 761.682l8.957 56.698 97.083-37.812c-2.707-8.334-12.376-41.53-2.47-62.868 13.088-28.213 25.308-85.982 2.358-120.897-13.087-19.923-35.911-29.57-67.872-28.732-47.184 1.264-80.011 30.693-81.686 73.236-.223 2.194-5.2 50.872-9.32 61.144a667.536 667.536 0 0 1-6.925 16.547c3.68.223 10.643.44 19.101-.213l2.092-.165 2.953 51.556 35.728-8.494zm5.688 62.388l-9.059-57.357-36.187 8.6-2.993-52.276c-11.862.75-20.214-.116-20.587-.155l-2.808-.3 1.142-2.581c.044-.088 3.922-8.843 8.028-19.08 3.912-9.74 8.991-59.406 9.04-59.905 1.757-44.717 36.192-75.74 85.68-77.061 33.5-.848 57.502 9.4 71.427 30.581 23.865 36.316 11.392 95.88-2.068 124.898-10.448 22.5 3.118 61.265 3.254 61.652l.668 1.88-105.537 41.104z"/><path d="M451.222 666.535H439.5c-7.597 0-13.775-6.18-13.775-13.777v-11.836c0-7.593 6.178-13.777 13.775-13.777h11.722v4.116H439.5c-5.326 0-9.664 4.334-9.664 9.661v11.836c0 5.326 4.338 9.66 9.664 9.66h11.722v4.117zM468.904 631.26c-5.326 0-9.664 4.334-9.664 9.666v11.83c0 5.328 4.338 9.667 9.664 9.667h.005c5.326 0 9.66-4.34 9.66-9.666v-11.831c0-5.332-4.334-9.666-9.665-9.666m.005 35.274c-7.602 0-13.78-6.18-13.78-13.777v-11.831c0-7.598 6.178-13.782 13.775-13.782s13.78 6.184 13.78 13.782v11.83c0 7.599-6.183 13.778-13.775 13.778M495.026 662.42h9.664c5.326 0 9.664-4.338 9.664-9.665v-11.831c0-5.327-4.338-9.666-9.664-9.666h-9.664v31.163zm9.664 4.117h-13.78v-39.39h13.78c7.597 0 13.775 6.179 13.775 13.777v11.83c0 7.599-6.178 13.783-13.775 13.783zM552.191 666.535h-25.497v-39.39h25.497v4.116h-21.386v31.158h21.386z" fill="#E83B21" mask="url(#d)"/><path fill="#E83B21" mask="url(#d)" d="M528.752 648.896h23.44v-4.116h-23.44zM551.116 1168.387h62.193l17.905-123.842H533.21l17.905 123.842zm65.76 4.116h-69.324l-19.091-132.07h107.502l-19.086 132.07z"/><path d="M532.399 1040.431h99.63l5.442-19.525-23.314-26.722H550.27l-23.318 26.722 5.447 19.525zm102.752 4.117h-105.88l-6.88-24.674 26.005-29.802h67.63l26.006 29.802-6.88 24.674zM542.973 1128.564h78.47v-4.116h-78.47zM535.11 1074.093h94.206v-4.116H535.11zM582.212 1085.912c-7.365 0-13.354 5.995-13.354 13.36 0 7.367 5.99 13.357 13.354 13.357 7.364 0 13.353-5.99 13.353-13.356s-5.99-13.361-13.353-13.361m0 30.833c-9.63 0-17.465-7.835-17.465-17.472s7.834-17.477 17.465-17.477c9.635 0 17.469 7.84 17.469 17.477s-7.834 17.472-17.47 17.472" fill="#E83B21" mask="url(#d)"/><path fill="#E83B21" mask="url(#d)" d="M524.666 1022.446H639.75v-4.116H524.666zM326.695 747.312c-27.652 0-50.147 22.499-50.147 50.156 0 27.656 22.495 50.155 50.147 50.155 27.651 0 50.147-22.499 50.147-50.155 0-27.657-22.496-50.156-50.147-50.156m0 104.423c-29.918 0-54.257-24.344-54.257-54.267 0-29.923 24.34-54.272 54.257-54.272 29.917 0 54.257 24.349 54.257 54.272s-24.34 54.267-54.257 54.267"/><path d="M326.695 731.51c-36.362 0-65.945 29.588-65.945 65.957 0 36.368 29.583 65.957 65.945 65.957 36.357 0 65.94-29.589 65.94-65.957 0-36.369-29.583-65.958-65.94-65.958m0 136.026c-38.633 0-70.056-31.429-70.056-70.068 0-38.635 31.423-70.074 70.056-70.074 38.628 0 70.056 31.439 70.056 70.074 0 38.64-31.428 70.068-70.056 70.068" fill="#E83B21" mask="url(#d)"/><path fill="#E83B21" mask="url(#d)" d="M324.636 849.683h4.116v-14.876h-4.116zM324.636 760.128h4.116v-14.872h-4.116zM274.49 799.523h14.874v-4.116H274.49zM364.024 799.523h14.874v-4.116h-14.874zM351.015 843.714l-3.5-6.063 3.563-2.058 3.5 6.063zM302.311 759.343l-3.5-6.068 3.563-2.058 3.5 6.068zM282.511 825.355l-2.058-3.564 6.067-3.501 2.058 3.564zM366.87 776.642l-2.058-3.564 6.062-3.501 2.057 3.564zM370.876 825.355l-6.062-3.501 2.053-3.564 6.067 3.5zM286.52 776.642l-6.061-3.501 2.053-3.57 6.066 3.507zM302.373 843.714l-3.564-2.058 3.5-6.068 3.57 2.058zM351.337 758.889l-3.564-2.058 3.24-5.613 3.563 2.058zM326.695 792.752a4.722 4.722 0 0 0-4.716 4.717 4.721 4.721 0 0 0 4.716 4.712c2.6 0 4.711-2.116 4.711-4.712 0-2.6-2.111-4.717-4.711-4.717m0 13.54c-4.866 0-8.827-3.956-8.827-8.823 0-4.872 3.96-8.833 8.827-8.833 4.866 0 8.827 3.961 8.827 8.833 0 4.867-3.961 8.823-8.827 8.823"/><path fill="#E83B21" mask="url(#d)" d="M331.22 792.026l-3.791-1.603 13.993-33.157 3.796 1.602zM362.472 739.6l-3.564-2.057 7.781-13.477 3.564 2.058z"/><path d="M366.046 721.308l6.914 3.995 6.043-10.47-6.91-3.995-6.047 10.47zm8.42 9.618l-14.041-8.107 10.158-17.603 14.041 8.107-10.158 17.603zM290.914 739.596l-7.776-13.472 3.563-2.054 7.776 13.468z" fill="#E83B21" mask="url(#d)"/><path d="M274.383 714.832l6.048 10.47 6.914-3.996-6.048-10.47-6.914 3.996zm4.537 16.092l-10.158-17.599 14.046-8.111 10.158 17.603-14.046 8.107zM333.286 729.61h-4.115v-13.69h-4.949v13.535h-4.115V711.81h13.18z" fill="#E83B21" mask="url(#d)"/><path d="M313.82 711.807h25.753v-14.02H313.82v14.02zm-4.116 4.117h33.98V693.67h-33.98v22.253z" fill="#E83B21" mask="url(#d)"/><path fill="#E83B21" mask="url(#d)" d="M317.165 713.865h4.116V695.73h-4.116zM324.636 713.865h4.116V695.73h-4.116zM332.102 713.865h4.116V695.73h-4.116zM172.77 746.806H7.74v-176.38h221.987v83.59h-4.115v-79.479H11.852V742.69h160.917z"/><path fill="#E83B21" mask="url(#d)" d="M27.882 625.356h41.334v-4.117H27.882zM84.72 625.356h41.334v-4.117H84.72zM27.882 685.047h41.334v-4.117H27.882zM84.72 685.047h41.334v-4.117H84.72zM84.72 665.153h88.789v-4.116h-88.79zM58.884 704.945h99.606v-4.116H58.884zM55.006 645.254h24.112v-4.116H55.006zM92.04 645.254h87.405v-4.116H92.041zM67.498 724.839H91.61v-4.116H67.498zM104.523 724.839h58.804v-4.116h-58.804z"/><path d="M157.532 667.708c.746 94.795 53.996 110.016 54.538 110.161l.165.068c5.945-2.058 53.027-21.206 52.896-110.471-25.68-.625-47.958-17.182-53.598-21.72-5.7 4.519-28.306 21.1-54.001 21.962zm54.49 114.583l-1.269-.533c-.3-.053-57.346-16.087-57.346-116.074v-2.059h2.057c28.48 0 54.49-21.888 54.747-22.111l1.346-1.148 1.336 1.157c.252.223 25.536 21.846 53.749 21.846h.518l2.058-.024.02 2.058c.934 99.987-55.962 116.544-56.539 116.699l-.677.189z" fill="#E83B21" mask="url(#d)"/><path d="M172.398 680.316c3.762 58.645 30.072 77.192 39.548 81.996 9.335-5.152 35.2-24.562 38.429-82.122-15.944-3.303-29.714-10.717-38.89-16.732-9.252 6.015-23.119 13.449-39.087 16.858zm39.635 86.597l-.92-.426c-9.166-4.306-39.35-23.352-42.932-87.72l-.097-1.793 1.767-.343c16.719-3.216 31.254-11.216 40.502-17.357l1.142-.755 1.143.76c9.156 6.14 23.575 14.107 40.26 17.211l1.762.33-.082 1.791c-2.915 61.42-30.097 81.89-41.645 87.842l-.9.46zM107.953 968.749c-6.493 0-11.775 5.283-11.775 11.773v17.002c0 6.494 5.282 11.773 11.775 11.773s11.776-5.279 11.776-11.773v-17.002c0-6.49-5.283-11.773-11.776-11.773m0 44.664c-8.763 0-15.886-7.128-15.886-15.889v-17.002c0-8.76 7.123-15.89 15.886-15.89 8.764 0 15.886 7.13 15.886 15.89v17.002c0 8.76-7.122 15.889-15.886 15.889" fill="#E83B21" mask="url(#d)"/><path fill="#E83B21" mask="url(#d)" d="M85.533 994.785h8.59v-4.117h-8.59zM121.784 994.785h8.59v-4.117h-8.59zM94.123 987.706H83.476v-9.986h4.115v5.87h6.532zM132.43 987.706h-10.648v-4.117h6.532v-5.869h4.115zM87.59 1007.734h-4.115v-9.986h10.84v4.116h-6.724zM132.43 1007.734h-4.116v-5.87h-6.726v-4.116h10.841zM102.123 967.38c-.072-.906-.61-3.545-2.198-4.863-.838-.697-1.888-.968-3.244-.833l-.426-4.092c2.45-.237 4.634.359 6.323 1.778 3.196 2.673 3.612 7.196 3.651 7.7l-4.106.31zM113.783 967.38l-4.106-.31c.04-.504.456-5.027 3.651-7.7 1.69-1.42 3.883-2.015 6.324-1.778l-.426 4.092c-1.351-.135-2.407.136-3.245.833-1.588 1.318-2.125 3.957-2.198 4.862M94.123 983.782h27.656v-4.116H94.123zM109.675 976.794h4.115v-3.985h-4.115zM102.116 976.794h4.116v-3.985h-4.116z"/><path d="M71.311 1022.22c20.21 20.203 53.076 20.208 73.28 0 9.786-9.788 15.18-22.8 15.18-36.645-.005-13.845-5.394-26.858-15.18-36.64-9.785-9.792-22.794-15.187-36.637-15.187h-.005c-13.838 0-26.853 5.39-36.633 15.177-20.2 20.209-20.205 53.086-.005 73.294m36.638 19.27c-14.322 0-28.644-5.453-39.548-16.36-21.803-21.81-21.803-57.303.005-79.114 10.56-10.562 24.606-16.383 39.543-16.383h.005c14.942 0 28.988 5.826 39.548 16.393 10.564 10.557 16.38 24.605 16.384 39.55 0 14.944-5.82 28.988-16.384 39.555-10.904 10.906-25.231 16.358-39.553 16.358" fill="#E83B21" mask="url(#d)"/><path d="M81.401 1012.125c14.647 14.644 38.464 14.64 53.1 0 7.089-7.09 10.996-16.519 10.996-26.553 0-10.029-3.907-19.457-10.996-26.547-7.093-7.095-16.52-11.003-26.547-11.003h-.005c-10.027 0-19.454 3.903-26.543 10.998-14.637 14.64-14.641 38.46 0 53.105h-.005zm26.548 15.095c-10.667 0-21.333-4.059-29.458-12.185-16.239-16.247-16.239-42.678.005-58.925 7.863-7.87 18.326-12.204 29.453-12.204h.005c11.126.005 21.59 4.339 29.457 12.208 7.868 7.87 12.202 18.33 12.202 29.458 0 11.134-4.334 21.594-12.207 29.463-8.114 8.122-18.786 12.185-29.457 12.185zM163.08 1043.619l-18.485-18.49 2.905-2.91 18.49 18.484z" fill="#E83B21" mask="url(#d)"/><path d="M159.175 1050.43l48.099 48.101 13.62-13.617-48.099-48.107-13.62 13.622zm48.099 53.922l-53.919-53.923 19.44-19.443 53.919 53.928-19.44 19.438zM1152.996 755.009h19v-4.116h-19zM1172 755.009h19v-4.116h-19zM1191 755.009h19v-4.116h-19z" fill="#E83B21" mask="url(#d)"/><path fill="#E83B21" mask="url(#d)" d="M1173.926 753.668l-3.86-1.434 11.858-31.956 3.86 1.433z"/><path fill="#E83B21" mask="url(#d)" d="M1170.228 754.004l-18.999-31.957 3.535-2.102 18.999 31.952z"/><path fill="#E83B21" mask="url(#d)" d="M1154.951 811.33l-3.912-1.287 19.004-57.735 3.907 1.288z"/><path d="M1098.762 752.821l54.233 54.936 54.238-54.936-24.35-29.768h-59.772l-24.349 29.768zm54.233 60.795l-59.762-60.533 27.932-34.146h63.665l27.927 34.146-59.762 60.533z" fill="#E83B21" mask="url(#d)"/><path fill="#E83B21" mask="url(#d)" d="M1133.997 755.009h19v-4.116h-19z"/><path fill="#E83B21" mask="url(#d)" d="M1114.998 755.009h19v-4.116h-19zM1095.999 755.009h18.999v-4.116h-19z"/><path fill="#E83B21" mask="url(#d)" d="M1132.068 753.668l-11.857-31.957 3.859-1.433 11.857 31.956z"/><path fill="#E83B21" mask="url(#d)" d="M1135.766 754.004l-3.535-2.107 18.995-31.952 3.54 2.102z"/><path fill="#E83B21" mask="url(#d)" d="M1151.04 811.33l-18.998-57.734 3.912-1.288 19 57.735z"/><path d="M1048.965 830.022h208.063V666.378h-208.063v163.644zm-4.11 4.111h216.288V662.257h-216.288v171.876z" fill="#E83B21" mask="url(#d)"/><path fill="#E83B21" mask="url(#d)" d="M1046.908 692.717h212.177v-4.116h-212.177zM1055.715 679.545h12.579v-4.116h-12.58zM1075.842 679.545h12.58v-4.116h-12.58zM1095.97 679.545h12.579v-4.116h-12.58zM413.938 956.218h14.448v-14.451h-14.448v14.45zm-4.11 4.116h22.674V937.65h-22.674v22.683zM449.932 956.218h14.453v-14.451h-14.453v14.45zm-4.11 4.116H468.5V937.65h-22.68v22.683zM485.936 956.218h50.447v-14.451h-50.447v14.45zm-4.115 4.116h58.677V937.65h-58.677v22.683zM557.934 956.218h14.453v-14.451h-14.453v14.45zm-4.116 4.116h22.68V937.65h-22.68v22.683zM593.937 956.218h14.453v-14.451h-14.453v14.45zm-4.11 4.116h22.679V937.65h-22.68v22.683zM629.936 956.218h14.448v-14.451h-14.448v14.45zm-4.115 4.116H648.5V937.65h-22.68v22.683zM413.938 924.605h14.448v-14.451h-14.448v14.45zm-4.11 4.116h22.674v-22.683h-22.674v22.683zM449.932 924.605h14.453v-14.451h-14.453v14.45zm-4.11 4.116H468.5v-22.683h-22.68v22.683zM485.936 924.605h14.453v-14.451h-14.453v14.45zm-4.11 4.116h22.678v-22.683h-22.679v22.683zM521.935 924.605h14.453v-14.451h-14.453v14.45zm-4.116 4.116h22.68v-22.683h-22.68v22.683zM557.934 924.605h14.453v-14.451h-14.453v14.45zm-4.116 4.116h22.68v-22.683h-22.68v22.683zM593.937 924.605h14.453v-14.451h-14.453v14.45zm-4.11 4.116h22.679v-22.683h-22.68v22.683zM413.938 892.991h14.448v-14.455h-14.448v14.455zm-4.11 4.112h22.674V874.42h-22.674v22.683zM449.932 892.991h14.453v-14.455h-14.453v14.455zm-4.11 4.112H468.5V874.42h-22.68v22.683zM485.936 892.991h14.453v-14.455h-14.453v14.455zm-4.11 4.112h22.678V874.42h-22.679v22.683zM521.935 892.991h14.453v-14.455h-14.453v14.455zm-4.116 4.112h22.68V874.42h-22.68v22.683zM557.934 892.991h14.453v-14.455h-14.453v14.455zm-4.116 4.112h22.68V874.42h-22.68v22.683zM593.937 892.991h14.453v-14.455h-14.453v14.455zm-4.11 4.112h22.679V874.42h-22.68v22.683zM629.936 915.321h14.448v-36.785h-14.448v36.785zm-4.115 4.112H648.5V874.42h-22.68v45.013z"/><path d="M398.88 971.278h260.553V863.48H398.88v107.798zm-4.115 4.112h268.783V859.364H394.765V975.39z" fill="#E83B21" mask="url(#d)"/><path d="M532.725 861.422h-4.116v-5.2c0-4.005 3.627-7.265 8.081-7.265h18.37a3.97 3.97 0 0 0 3.966-3.966c0-2.537-1.782-4.32-3.966-4.32h-51.797c-4.455 0-8.077-3.622-8.077-8.077 0-4.814 3.622-8.436 8.077-8.436h21.38a3.97 3.97 0 0 0 3.962-3.966l.004-7.24 4.116.005-.005 7.235c0 4.455-3.626 8.077-8.076 8.077h-21.381a3.97 3.97 0 0 0-3.961 3.967c0 2.542 1.777 4.32 3.96 4.32h51.798c4.455 0 8.076 3.626 8.076 8.082 0 4.809-3.621 8.436-8.076 8.436h-18.37c-2.183 0-3.965 1.409-3.965 3.147v5.201zM705.285 857.573c-10.458 0-18.965 8.508-18.965 18.968v127.707c0 10.455 8.507 18.964 18.965 18.964h46.762c10.458 0 18.965-8.509 18.965-18.964V876.54c0-10.46-8.507-18.968-18.965-18.968h-46.762zm46.762 169.755h-46.762c-12.724 0-23.076-10.354-23.076-23.08V876.54c0-12.726 10.352-23.085 23.076-23.085h46.762c12.724 0 23.076 10.359 23.076 23.085v127.707c0 12.726-10.352 23.08-23.076 23.08z" fill="#E83B21" mask="url(#d)"/><path fill="#E83B21" mask="url(#d)" d="M684.266 881.747h88.804v-4.117h-88.804zM719.999 869.67h17.338v-4.117H720zM684.266 1000.073h88.804v-4.116h-88.804zM723.01 1013.632h11.316v-4.116H723.01zM697.15 911.098h11.2v-11.206h-11.2v11.206zm-4.115 4.112h19.425v-19.434h-19.425v19.434zM723.064 911.098h11.199v-11.206h-11.2v11.206zm-4.111 4.112h19.425v-19.434h-19.425v19.434zM748.982 911.098h11.199v-11.206h-11.2v11.206zm-4.111 4.112h19.425v-19.434h-19.425v19.434zM697.15 935.723h11.2v-11.2h-11.2v11.2zm-4.115 4.112h19.425v-19.43h-19.425v19.43zM723.064 935.723h11.199v-11.2h-11.2v11.2zm-4.111 4.112h19.425v-19.43h-19.425v19.43zM748.982 935.723h11.199v-11.2h-11.2v11.2zm-4.111 4.112h19.425v-19.43h-19.425v19.43zM697.15 960.348h11.2v-11.2h-11.2v11.2zm-4.115 4.117h19.425v-19.43h-19.425v19.43zM723.064 960.348h11.199v-11.2h-11.2v11.2zm-4.111 4.117h19.425v-19.43h-19.425v19.43zM748.982 984.978h11.199v-11.2h-11.2v11.2zm-4.111 4.112h19.425v-19.43h-19.425v19.43zM788.938 892.117v123.701c0 4.078 3.317 7.395 7.394 7.395h13.813c4.077 0 7.394-3.317 7.394-7.395V892.117l-14.298-30.204-14.303 30.204zm21.207 135.208h-13.813c-6.348 0-11.51-5.163-11.51-11.507V891.192l18.419-38.901 18.413 39.361v124.166c0 6.344-5.161 11.507-11.509 11.507z"/><path fill="#E83B21" mask="url(#d)" d="M806.672 1005.88h4.115V891.654h-4.115zM795.69 1005.88h4.116V891.654h-4.115z"/><path fill="#E83B21" mask="url(#d)" d="M786.879 1007.937h32.716v-4.116h-32.716zM808.74 870.779l-11-.005v-4.116l11 .005zM786.879 893.708h32.716v-4.116h-32.716zM703.23 752.803l-3.824-1.511 30.89-78.156 3.825 1.515zM751.833 737.979l-2.91-2.91 22.098-22.098-22.098-22.107 2.91-2.905 25.008 25.012zM681.695 737.979l-25.008-25.008 25.008-25.012 2.91 2.905-22.098 22.107 22.098 22.097z"/><path d="M591.396 797.023h250.738v-152.86c0-8.412-6.803-15.254-15.16-15.254H606.56c-8.361 0-15.164 6.842-15.164 15.254v152.86zm254.848 4.116H587.28V644.163c0-10.683 8.653-19.37 19.28-19.37h220.414c10.628 0 19.27 8.687 19.27 19.37V801.14z" fill="#E83B21" mask="url(#d)"/><path d="M603.543 784.873h226.442V644.16c0-1.704-1.351-3.094-3.012-3.094H606.564c-1.665 0-3.02 1.39-3.02 3.094v140.714zM834.1 788.99H599.428V644.16c0-3.97 3.2-7.206 7.136-7.206h220.409c3.932 0 7.127 3.235 7.127 7.206v144.83zM574.18 801.137v13.443c0 7.288 10.096 13.448 22.05 13.448h241.074c11.954 0 22.05-6.16 22.05-13.448v-13.443H574.18zm263.124 31.003H596.23c-14.67 0-26.165-7.71-26.165-17.56v-17.56h293.404v17.56c0 9.85-11.495 17.56-26.165 17.56z" fill="#E83B21" mask="url(#d)"/><path fill="#E83B21" mask="url(#d)" d="M695.678 816.642h42.187v-4.117h-42.187zM1064.555 1099.556a16.724 16.724 0 0 1-11.877-4.916l-6.919-6.915a16.681 16.681 0 0 1-3.68-5.535l3.811-1.555a12.556 12.556 0 0 0 2.78 4.18l6.913 6.92c4.798 4.79 13.146 4.794 17.94 0l27.012-27.018a12.602 12.602 0 0 0 3.713-8.968c0-3.39-1.317-6.577-3.713-8.974l-6.92-6.92c-4.793-4.79-13.14-4.79-17.933 0l-27.013 27.017a12.812 12.812 0 0 0-1.86 2.364l-3.514-2.15a16.959 16.959 0 0 1 2.464-3.12l27.013-27.017c6.546-6.552 17.203-6.557 23.754 0l6.918 6.92c6.551 6.548 6.551 17.207 0 23.754l-27.012 27.017a16.74 16.74 0 0 1-11.877 4.916"/><path d="M1064.555 1090.535a7.75 7.75 0 0 1-5.495-2.276l-6.92-6.916a7.727 7.727 0 0 1-2.207-6.523l4.082.543a3.648 3.648 0 0 0 1.036 3.07l6.914 6.92a3.666 3.666 0 0 0 5.176 0l27.012-27.017a3.663 3.663 0 0 0 0-5.177l-6.914-6.92a3.666 3.666 0 0 0-5.176.005l-22.296 22.295-2.91-2.91 22.296-22.3c3.031-3.032 7.965-3.032 10.991 0l6.919 6.92c3.031 3.031 3.031 7.96 0 10.992l-27.012 27.018a7.75 7.75 0 0 1-5.496 2.276" fill="#E83B21" mask="url(#d)"/><path d="M1032.648 1131.466a16.74 16.74 0 0 1-11.877-4.916l-6.914-6.915a16.675 16.675 0 0 1-4.924-11.88c0-4.488 1.748-8.706 4.924-11.878l27.012-27.018c6.547-6.552 17.203-6.542 23.754-.005l6.914 6.92a16.769 16.769 0 0 1 3.685 5.536l-3.815 1.554a12.63 12.63 0 0 0-2.78-4.179l-6.914-6.92c-4.943-4.94-12.99-4.944-17.938 0l-27.013 27.017a12.634 12.634 0 0 0-3.714 8.974c0 3.39 1.322 6.576 3.714 8.968l6.92 6.92c4.797 4.79 13.145 4.79 17.938 0l27.012-27.017a12.858 12.858 0 0 0 1.864-2.373l3.516 2.14a16.733 16.733 0 0 1-2.475 3.139l-27.012 27.017a16.724 16.724 0 0 1-11.877 4.916" fill="#E83B21" mask="url(#d)"/><path d="M1032.65 1122.445a7.732 7.732 0 0 1-5.5-2.276l-6.914-6.916a7.722 7.722 0 0 1-2.276-5.496c0-2.078.81-4.034 2.276-5.497l27.013-27.017c3.026-3.032 7.96-3.036 10.99 0l6.92 6.915a7.729 7.729 0 0 1 2.202 6.533l-4.076-.542a3.653 3.653 0 0 0-1.037-3.08l-6.918-6.916a3.655 3.655 0 0 0-5.172 0l-27.012 27.018a3.638 3.638 0 0 0-1.07 2.586c0 .978.383 1.893 1.07 2.586l6.914 6.92a3.661 3.661 0 0 0 5.176 0l22.297-22.3 2.91 2.91-22.297 22.3a7.744 7.744 0 0 1-5.495 2.272M293.512 1038.608c-8.43 0-15.286 6.857-15.286 15.288 0 8.432 6.856 15.289 15.286 15.289s15.285-6.857 15.285-15.289c0-8.43-6.856-15.288-15.285-15.288m0 34.688c-10.696 0-19.397-8.702-19.397-19.4 0-10.697 8.701-19.404 19.397-19.404 10.695 0 19.396 8.707 19.396 19.404 0 10.698-8.7 19.4-19.396 19.4" fill="#E83B21" mask="url(#d)"/><path d="M290.606 1084.146h5.81l2.528-7.666 6.691-2.775 7.21 3.637 4.105-4.107-3.631-7.215 2.77-6.693 7.669-2.523v-5.816l-7.67-2.528-2.769-6.688 3.631-7.215-4.106-4.107-7.209 3.632-6.691-2.775-2.528-7.666h-5.81l-2.527 7.666-6.692 2.775-7.21-3.632-4.105 4.107 3.631 7.215-2.774 6.688-7.665 2.528v5.816l7.665 2.523 2.774 6.693-3.631 7.215 4.101 4.107 7.214-3.637 6.692 2.775 2.527 7.666zm8.783 4.116h-11.756l-2.876-8.702-3.205-1.327-8.183 4.121-8.308-8.315 4.115-8.184-1.326-3.206-8.701-2.872v-11.763l8.7-2.871 1.327-3.206-4.115-8.184 8.308-8.32 8.183 4.126 3.205-1.327 2.876-8.702h11.756l2.876 8.702 3.205 1.327 8.178-4.126 8.318 8.315-4.12 8.189 1.327 3.206 8.7 2.871v11.763l-8.7 2.872-1.327 3.206 4.12 8.184-8.313 8.315-8.183-4.121-3.205 1.327-2.876 8.702zM664.765 548.856c-9.775 0-17.726 7.957-17.726 17.734 0 9.778 7.95 17.73 17.726 17.73s17.731-7.952 17.731-17.73c0-9.777-7.955-17.734-17.73-17.734zm0 39.58c-12.041 0-21.841-9.802-21.841-21.846 0-12.048 9.8-21.85 21.841-21.85 12.047 0 21.842 9.802 21.842 21.85 0 12.044-9.795 21.846-21.842 21.846zm-4.435 19.66h8.875l3.462-10.517 8.415-3.492 9.897 4.988 6.265-6.271-4.982-9.894 3.481-8.417 10.521-3.467v-8.872l-10.52-3.477-3.482-8.407 4.982-9.893-6.27-6.276-9.892 4.983-8.415-3.487-3.462-10.518h-8.875l-3.467 10.518-8.415 3.487-9.891-4.983-6.27 6.276 4.982 9.893-3.482 8.407-10.52 3.477v8.872l10.52 3.467 3.482 8.417-4.983 9.894 6.27 6.27 9.892-4.987 8.415 3.492 3.467 10.518zm11.848 4.117h-14.82l-3.811-11.555-4.93-2.043-10.864 5.477-10.478-10.48 5.467-10.867-2.039-4.934L619.155 574v-14.824l11.548-3.811 2.039-4.93-5.467-10.867 10.478-10.48 10.865 5.473 4.929-2.044 3.81-11.55h14.821l3.81 11.55 4.93 2.044 10.865-5.473 10.477 10.48-5.471 10.867 2.038 4.93 11.553 3.811V574l-11.553 3.81-2.038 4.93 5.471 10.868-10.477 10.484-10.865-5.477-4.93 2.043-3.81 11.555zM1011.761 1038.13a6.44 6.44 0 0 0-6.43 6.432 6.44 6.44 0 0 0 6.43 6.43 6.44 6.44 0 0 0 6.43-6.43 6.44 6.44 0 0 0-6.43-6.431m0 16.973c-5.815 0-10.54-4.726-10.54-10.542s4.725-10.548 10.54-10.548c5.815 0 10.545 4.732 10.545 10.548s-4.73 10.542-10.545 10.542" fill="#E83B21" mask="url(#d)"/><path d="M1010.264 1064.458h2.993l1.66-5.046 5.109-2.117 4.744 2.393 2.116-2.116-2.392-4.746 2.112-5.104 5.045-1.662v-2.997l-5.04-1.666-2.117-5.1 2.392-4.745-2.116-2.116-4.744 2.392-5.109-2.116-1.66-5.047h-2.993l-1.66 5.047-5.108 2.116-4.74-2.392-2.121 2.116 2.392 4.746-2.116 5.099-5.04 1.666v2.997l5.045 1.662 2.11 5.104-2.391 4.746 2.12 2.116 4.745-2.393 5.104 2.117 1.66 5.046zm5.97 4.116h-8.942l-2.01-6.077-1.617-.674-5.718 2.877-6.324-6.32 2.881-5.719-.673-1.622-6.076-2.005v-8.945l6.076-2.004.673-1.623-2.88-5.714 6.323-6.33 5.718 2.882 1.617-.673 2.01-6.073h8.942l2.005 6.078 1.617.668 5.718-2.881 6.324 6.324-2.876 5.72.668 1.622 6.076 2.004v8.945l-6.076 2.005-.668 1.622 2.876 5.714-6.319 6.325-5.723-2.877-1.617.669-2.005 6.082zM1306.79 1080.095c-9.776 0-17.732 7.956-17.732 17.729 0 9.777 7.956 17.734 17.731 17.734 9.776 0 17.73-7.957 17.73-17.734 0-9.773-7.954-17.73-17.73-17.73zm0 39.574c-12.047 0-21.842-9.796-21.842-21.845 0-12.044 9.795-21.845 21.841-21.845 12.047 0 21.842 9.801 21.842 21.845 0 12.049-9.795 21.845-21.842 21.845zm-4.44 19.662h8.88l3.461-10.514 8.415-3.491 9.892 4.983 6.27-6.272-4.982-9.893 3.481-8.412 10.521-3.472v-8.872l-10.52-3.472-3.482-8.412 4.982-9.894-6.27-6.27-9.892 4.982-8.415-3.486-3.462-10.519h-8.88l-3.462 10.519-8.415 3.486-9.892-4.983-6.27 6.271 4.983 9.894-3.487 8.412-10.516 3.472v8.872l10.516 3.472 3.487 8.412-4.983 9.893 6.27 6.272 9.892-4.983 8.415 3.491 3.462 10.514zm11.852 4.116h-14.826l-3.81-11.555-4.93-2.043-10.86 5.477-10.482-10.48 5.471-10.867-2.043-4.93-11.543-3.816v-14.818l11.548-3.816 2.038-4.93-5.47-10.862 10.482-10.48 10.86 5.467 4.929-2.038 3.81-11.55h14.826l3.81 11.55 4.93 2.038 10.86-5.467 10.477 10.475-5.466 10.867 2.038 4.93 11.553 3.816v14.818l-11.553 3.816-2.038 4.93 5.466 10.862-10.473 10.485-10.865-5.477-4.929 2.043-3.81 11.555z" fill="#E83B21" mask="url(#d)"/><path d="M1306.79 1087.879c-5.482 0-9.946 4.46-9.946 9.947 0 5.482 4.464 9.942 9.945 9.942s9.945-4.46 9.945-9.942c0-5.487-4.464-9.947-9.945-9.947m0 24.005c-7.752 0-14.056-6.305-14.056-14.058s6.304-14.063 14.056-14.063c7.752 0 14.056 6.31 14.056 14.063 0 7.753-6.304 14.058-14.056 14.058M141.565 1096.127c-9.776 0-17.731 7.957-17.731 17.734 0 9.777 7.955 17.729 17.73 17.729 9.776 0 17.731-7.952 17.731-17.729s-7.955-17.734-17.73-17.734zm0 39.58c-12.047 0-21.842-9.802-21.842-21.846 0-12.049 9.795-21.85 21.842-21.85 12.046 0 21.841 9.801 21.841 21.85 0 12.044-9.795 21.845-21.841 21.845zm-4.435 19.656H146l3.466-10.514 8.416-3.491 9.891 4.988 6.27-6.276-4.982-9.89 3.481-8.416 10.522-3.472v-8.867l-10.522-3.477-3.48-8.407 4.981-9.893-6.27-6.277-9.891 4.984-8.416-3.487-3.466-10.519h-8.87l-3.467 10.519-8.415 3.487-9.892-4.984-6.275 6.277 4.987 9.893-3.486 8.407-10.516 3.477v8.867l10.516 3.472 3.486 8.417-4.987 9.893 6.27 6.272 9.897-4.988 8.415 3.491 3.467 10.514zm11.847 4.116h-14.825l-3.806-11.555-4.934-2.038-10.865 5.477-10.477-10.485 5.47-10.867-2.042-4.93-11.543-3.816v-14.818l11.548-3.811 2.038-4.93-5.471-10.872 10.477-10.475 10.865 5.472 4.934-2.043 3.806-11.55h14.825l3.81 11.55 4.93 2.043 10.86-5.472 10.478 10.475-5.467 10.872 2.039 4.925 11.552 3.816v14.818l-11.552 3.816-2.039 4.93 5.467 10.862-10.473 10.49-10.865-5.477-4.93 2.038-3.81 11.555z" fill="#E83B21" mask="url(#d)"/><path d="M141.565 1103.914c-5.481 0-9.945 4.46-9.945 9.946 0 5.482 4.464 9.943 9.945 9.943 5.48 0 9.945-4.46 9.945-9.943 0-5.486-4.464-9.946-9.945-9.946m0 24.005c-7.752 0-14.056-6.305-14.056-14.059 0-7.753 6.304-14.063 14.056-14.063 7.751 0 14.055 6.31 14.055 14.063 0 7.754-6.304 14.059-14.055 14.059M1319.977 1220.556h5.81l2.527-7.666 6.687-2.774 7.214 3.632 4.106-4.102-3.631-7.216 2.77-6.687 7.669-2.533v-5.811l-7.67-2.528-2.77-6.693 3.632-7.21-4.106-4.107-7.214 3.632-6.687-2.77-2.527-7.671h-5.81l-2.528 7.666-6.691 2.775-7.21-3.632-4.11 4.106 3.631 7.211-2.77 6.693-7.664 2.528v5.81l7.665 2.534 2.77 6.687-3.632 7.211 4.106 4.111 7.214-3.636 6.691 2.774 2.528 7.666zm8.783 4.117H1317l-2.872-8.703-3.205-1.327-8.183 4.122-8.313-8.315 4.12-8.184-1.327-3.206-8.7-2.877v-11.758l8.7-2.872 1.327-3.205-4.12-8.185 8.313-8.32 8.183 4.122 3.205-1.322 2.871-8.703h11.76l2.872 8.703 3.205 1.322 8.183-4.121 8.313 8.315-4.12 8.189 1.327 3.205 8.7 2.872v11.758l-8.7 2.877-1.327 3.206 4.12 8.184-8.308 8.315-8.188-4.122-3.205 1.327-2.871 8.703zM202.312 954.242c-8.43 0-15.286 6.862-15.286 15.288 0 8.431 6.856 15.288 15.286 15.288s15.285-6.857 15.285-15.288c0-8.426-6.856-15.288-15.285-15.288m0 34.693c-10.696 0-19.396-8.707-19.396-19.405 0-10.697 8.7-19.405 19.396-19.405 10.695 0 19.396 8.708 19.396 19.405 0 10.698-8.7 19.405-19.396 19.405" fill="#E83B21" mask="url(#d)"/><path d="M199.406 999.782h5.81l2.528-7.666 6.691-2.775 7.21 3.632 4.106-4.102-3.632-7.215 2.775-6.688 7.664-2.533v-5.811l-7.664-2.533-2.775-6.683 3.632-7.215-4.106-4.107-7.21 3.632-6.691-2.77-2.528-7.67h-5.81l-2.527 7.665-6.692 2.775-7.209-3.632-4.11 4.107 3.636 7.215-2.775 6.683-7.664 2.533v5.811l7.664 2.533 2.775 6.688-3.637 7.215 4.106 4.107 7.214-3.637 6.692 2.775 2.527 7.666zm8.788 4.116h-11.76l-2.877-8.702-3.205-1.327-8.183 4.121-8.313-8.315 4.12-8.184-1.326-3.206-8.7-2.876V963.65l8.7-2.872 1.326-3.206-4.12-8.184 8.313-8.32 8.183 4.126 3.205-1.327 2.876-8.702h11.761l2.867 8.697 3.21 1.332 8.177-4.126 8.319 8.32-4.126 8.184 1.327 3.206 8.7 2.872v11.758l-8.7 2.876-1.327 3.206 4.126 8.184-8.319 8.315-8.177-4.121-3.21 1.327-2.867 8.702zM667.654 1036.06a6.44 6.44 0 0 0-6.43 6.43 6.44 6.44 0 0 0 6.43 6.432 6.44 6.44 0 0 0 6.43-6.432 6.44 6.44 0 0 0-6.43-6.43m0 16.973c-5.815 0-10.545-4.731-10.545-10.543 0-5.816 4.73-10.547 10.545-10.547 5.815 0 10.541 4.731 10.541 10.547 0 5.812-4.726 10.543-10.54 10.543" fill="#E83B21" mask="url(#d)"/><path d="M666.158 1062.384h2.992l1.666-5.046 5.103-2.116 4.74 2.392 2.12-2.116-2.391-4.741 2.116-5.11 5.04-1.66v-2.993l-5.04-1.666-2.116-5.104 2.392-4.741-2.121-2.121-4.74 2.392-5.103-2.116-1.666-5.041h-2.992l-1.66 5.04-5.104 2.117-4.745-2.392-2.116 2.116 2.387 4.746-2.111 5.104-5.045 1.666v2.993l5.045 1.66 2.111 5.11-2.387 4.746 2.116 2.111 4.745-2.392 5.103 2.116 1.66 5.046zm5.97 4.116h-8.948l-2.004-6.082-1.618-.668-5.718 2.881-6.323-6.324 2.88-5.72-.672-1.617-6.077-2.01v-8.944l6.077-2.005.673-1.622-2.881-5.715 6.323-6.324 5.718 2.876 1.618-.668 2.004-6.078h8.948l2.004 6.078 1.617.668 5.719-2.876 6.323 6.324-2.876 5.715.668 1.622 6.077 2.005v8.944l-6.077 2.01-.668 1.617 2.876 5.715-6.323 6.33-5.719-2.882-1.617.668-2.004 6.082zM228.064 1028.467a6.44 6.44 0 0 0-6.43 6.43 6.44 6.44 0 0 0 6.43 6.432 6.44 6.44 0 0 0 6.43-6.431 6.44 6.44 0 0 0-6.43-6.431m0 16.973c-5.815 0-10.545-4.726-10.545-10.542s4.73-10.548 10.545-10.548c5.815 0 10.541 4.732 10.541 10.548s-4.726 10.542-10.54 10.542" fill="#E83B21" mask="url(#d)"/><path d="M226.568 1054.791h2.992l1.66-5.04 5.109-2.122 4.745 2.392 2.116-2.116-2.392-4.74 2.11-5.105 5.046-1.666v-2.993l-5.045-1.666-2.111-5.104 2.392-4.74-2.12-2.122-4.741 2.392-5.108-2.116-1.66-5.041h-2.993l-1.66 5.041-5.109 2.116-4.74-2.392-2.12 2.121 2.391 4.741-2.116 5.104-5.04 1.666v2.993l5.04 1.666 2.116 5.104-2.392 4.741 2.116 2.116 4.745-2.392 5.108 2.121 1.66 5.041zm5.965 4.117h-8.943l-2.004-6.078-1.622-.673-5.714 2.881-6.323-6.324 2.876-5.72-.673-1.617-6.072-2.005v-8.949l6.072-2.005.673-1.622-2.876-5.715 6.323-6.324 5.714 2.876 1.622-.668 2.004-6.077h8.943l2.01 6.077 1.621.668 5.714-2.876 6.323 6.324-2.876 5.72.668 1.617 6.077 2.005v8.95l-6.077 2.004-.668 1.618 2.876 5.719-6.323 6.324-5.714-2.881-1.622.673-2.009 6.078zM960.437 856.908a6.44 6.44 0 0 0-6.43 6.431 6.44 6.44 0 0 0 6.43 6.431 6.44 6.44 0 0 0 6.43-6.43 6.44 6.44 0 0 0-6.43-6.432m0 16.974c-5.815 0-10.545-4.727-10.545-10.543 0-5.811 4.73-10.547 10.545-10.547 5.815 0 10.541 4.736 10.541 10.547 0 5.816-4.726 10.543-10.54 10.543" fill="#E83B21" mask="url(#d)"/><path d="M958.938 883.235h2.997l1.661-5.046 5.103-2.116 4.745 2.392 2.116-2.116-2.392-4.74 2.116-5.105 5.045-1.666v-2.993l-5.045-1.67-2.116-5.105 2.392-4.74-2.116-2.117-4.74 2.392-5.108-2.116-1.66-5.046h-2.998l-1.66 5.046-5.108 2.116-4.74-2.392-2.116 2.116 2.387 4.746-2.111 5.1-5.046 1.67v2.993l5.046 1.661 2.11 5.104-2.386 4.746 2.115 2.116 4.745-2.392 5.104 2.116 1.66 5.046zm5.97 4.117h-8.942l-2.01-6.078-1.617-.673-5.718 2.877-6.324-6.32 2.881-5.72-.673-1.617-6.071-2.01v-8.944l6.071-2.005.673-1.622-2.88-5.715 6.323-6.329 5.718 2.881 1.617-.668 2.01-6.077h8.942l2.005 6.077 1.617.668 5.718-2.88 6.324 6.324-2.876 5.719.668 1.622 6.076 2.005v8.944l-6.076 2.01-.668 1.618 2.876 5.719-6.319 6.32-5.718-2.877-1.622.673-2.005 6.078zM423.193 818.45a6.44 6.44 0 0 0-6.43 6.432 6.44 6.44 0 0 0 6.43 6.43 6.44 6.44 0 0 0 6.43-6.43 6.44 6.44 0 0 0-6.43-6.432m0 16.974c-5.815 0-10.54-4.726-10.54-10.542 0-5.812 4.725-10.548 10.54-10.548 5.815 0 10.546 4.736 10.546 10.548 0 5.816-4.73 10.542-10.546 10.542" fill="#E83B21" mask="url(#d)"/><path d="M421.696 844.776h2.993l1.66-5.041 5.109-2.117 4.745 2.393 2.115-2.117-2.391-4.746 2.115-5.109 5.04-1.66v-2.993l-5.04-1.666-2.115-5.104 2.391-4.741-2.115-2.117-4.745 2.388-5.109-2.116-1.66-5.042h-2.993l-1.66 5.042-5.104 2.116-4.744-2.388-2.116 2.117 2.387 4.74-2.111 5.105-5.046 1.666v2.992l5.046 1.661 2.11 5.11-2.386 4.74 2.116 2.122 4.744-2.393 5.104 2.112 1.66 5.046zm5.97 4.116h-8.942l-2.01-6.078-1.617-.668-5.718 2.877-6.323-6.325 2.88-5.719-.673-1.617-6.076-2.01v-8.94l6.076-2.01.673-1.622-2.88-5.714 6.323-6.33 5.718 2.887 1.617-.673 2.01-6.078h8.942l2.005 6.078 1.617.673 5.718-2.887 6.324 6.33-2.876 5.714.668 1.623 6.076 2.01v8.939l-6.076 2.01-.668 1.617 2.876 5.72-6.319 6.324-5.723-2.877-1.617.668-2.005 6.078zM596.127 610.38h2.992l1.66-5.045 5.109-2.117 4.74 2.393 2.12-2.117-2.391-4.745 2.116-5.105 5.045-1.66v-2.998l-5.045-1.666-2.116-5.1 2.392-4.745-2.116-2.117-4.745 2.393-5.108-2.117-1.66-5.046h-2.993l-1.66 5.046-5.109 2.117-4.74-2.393-2.116 2.117 2.387 4.745-2.111 5.1-5.045 1.666v2.997l5.045 1.661 2.111 5.105-2.387 4.745 2.116 2.117 4.745-2.393 5.103 2.117 1.66 5.046zm5.97 4.117h-8.943l-2.01-6.078-1.616-.673-5.719 2.877-6.323-6.32 2.88-5.72-.672-1.621-6.077-2.005v-8.945l6.077-2.005.673-1.622-2.881-5.714 6.323-6.33 5.719 2.882 1.617-.673 2.009-6.073h8.943l2.004 6.077 1.618.669 5.718-2.882 6.323 6.325-2.876 5.72.668 1.621 6.077 2.005v8.945l-6.077 2.005-.668 1.622 2.876 5.72-6.323 6.319-5.718-2.877-1.618.669-2.004 6.082zM740.705 611.393h2.997l1.66-5.046 5.104-2.112 4.745 2.393 2.116-2.122-2.392-4.74 2.116-5.105 5.04-1.666v-2.997l-5.04-1.661-2.116-5.104 2.392-4.746-2.116-2.117-4.745 2.393-5.104-2.116-1.66-5.042h-2.997l-1.661 5.042-5.103 2.116-4.745-2.393-2.116 2.117 2.387 4.746-2.111 5.104-5.045 1.66v2.998l5.045 1.661 2.11 5.11-2.386 4.74 2.116 2.122 4.745-2.393 5.103 2.112 1.66 5.046zm5.97 4.116h-8.943l-2.01-6.078-1.617-.673-5.718 2.882-6.323-6.325 2.88-5.719-.672-1.617-6.072-2.01v-8.945l6.072-2.004.673-1.623-2.881-5.714 6.328-6.33 5.713 2.887 1.617-.673 2.01-6.078h8.943l2.004 6.078 1.622.673 5.713-2.887 6.324 6.33-2.876 5.72.668 1.617 6.076 2.004v8.945l-6.076 2.01-.668 1.617 2.876 5.72-6.319 6.324-5.718-2.882-1.622.673-2.004 6.078zM841.458 855.587a6.44 6.44 0 0 0-6.43 6.43 6.44 6.44 0 0 0 6.43 6.432 6.44 6.44 0 0 0 6.43-6.431 6.44 6.44 0 0 0-6.43-6.431m0 16.973c-5.815 0-10.545-4.731-10.545-10.542 0-5.816 4.73-10.548 10.545-10.548 5.815 0 10.54 4.732 10.54 10.548 0 5.81-4.725 10.542-10.54 10.542" fill="#E83B21" mask="url(#d)"/><path d="M839.962 881.911h2.992l1.665-5.046 5.104-2.116 4.745 2.392 2.116-2.116-2.392-4.74 2.11-5.105 5.046-1.666v-2.998l-5.045-1.66-2.111-5.105 2.392-4.74-2.121-2.122-4.74 2.392-5.104-2.116-1.665-5.046h-2.992l-1.661 5.046-5.108 2.116-4.74-2.392-2.121 2.121 2.392 4.741-2.116 5.104-5.04 1.661v2.998l5.04 1.666 2.116 5.1-2.392 4.745 2.116 2.116 4.745-2.392 5.108 2.116 1.66 5.046zm5.965 4.117h-8.943l-2.005-6.078-1.617-.673-5.718 2.881-6.323-6.324 2.876-5.72-.668-1.622-6.077-2.005v-8.944l6.072-2.005.673-1.622-2.876-5.715 6.323-6.324 5.713 2.876 1.622-.673 2.005-6.072h8.943l2.01 6.072 1.616.673 5.718-2.876 6.324 6.324-2.876 5.72.668 1.617 6.076 2.005v8.944l-6.076 2.005-.668 1.618 2.876 5.719-6.324 6.33-5.718-2.882-1.617.673-2.01 6.078zM1218.807 626.51a6.44 6.44 0 0 0-6.43 6.43 6.44 6.44 0 0 0 6.43 6.432 6.44 6.44 0 0 0 6.43-6.431 6.44 6.44 0 0 0-6.43-6.431m0 16.973c-5.815 0-10.54-4.726-10.54-10.542s4.725-10.548 10.54-10.548c5.815 0 10.54 4.732 10.54 10.548s-4.725 10.542-10.54 10.542" fill="#E83B21" mask="url(#d)"/><path d="M1217.31 652.837h2.993l1.66-5.046 5.109-2.116 4.74 2.392 2.12-2.116-2.391-4.746 2.11-5.104 5.046-1.661v-2.993l-5.04-1.67-2.116-5.1 2.392-4.746-2.116-2.116-4.745 2.392-5.108-2.116-1.661-5.046h-2.992l-1.661 5.046-5.108 2.116-4.74-2.392-2.121 2.116 2.392 4.746-2.116 5.1-5.04 1.67v2.993l5.045 1.66 2.11 5.105-2.391 4.746 2.12 2.116 4.74-2.392 5.109 2.116 1.66 5.046zm5.97 4.116h-8.942l-2.01-6.077-1.617-.673-5.718 2.876-6.323-6.32 2.88-5.719-.672-1.617-6.077-2.01v-8.944l6.077-2.005.673-1.623-2.881-5.714 6.323-6.33 5.718 2.882 1.617-.668 2.01-6.078h8.943l2.004 6.078 1.617.668 5.718-2.881 6.324 6.324-2.881 5.72.673 1.622 6.076 2.005v8.944l-6.076 2.01-.673 1.617 2.88 5.72-6.323 6.32-5.718-2.877-1.617.668-2.004 6.082zM855.887 599.813a6.44 6.44 0 0 0-6.43 6.432c0 3.544 2.886 6.426 6.43 6.426 3.544 0 6.43-2.882 6.43-6.426a6.44 6.44 0 0 0-6.43-6.432m0 16.974c-5.815 0-10.54-4.731-10.54-10.542 0-5.817 4.725-10.548 10.54-10.548 5.815 0 10.54 4.731 10.54 10.548 0 5.81-4.725 10.542-10.54 10.542" fill="#E83B21" mask="url(#d)"/><path d="M854.39 626.138h2.992l1.661-5.046 5.108-2.116 4.74 2.392 2.121-2.116-2.392-4.746 2.116-5.104 5.04-1.661v-2.993l-5.04-1.67-2.116-5.1 2.392-4.746-2.12-2.116-4.74 2.392-5.109-2.116-1.66-5.046h-2.993l-1.66 5.046-5.104 2.116-4.745-2.392-2.116 2.116 2.387 4.746-2.115 5.1-5.04 1.67v2.993l5.044 1.661 2.111 5.104-2.387 4.746 2.116 2.116 4.745-2.392 5.104 2.116 1.66 5.046zm5.97 4.117h-8.947l-2.005-6.083-1.617-.668-5.718 2.876-6.324-6.324 2.881-5.715-.673-1.617-6.076-2.01v-8.944l6.081-2.005.668-1.622-2.88-5.715 6.323-6.329 5.718 2.881 1.617-.668 2.005-6.078h8.947l2.005 6.078 1.617.668 5.718-2.881 6.323 6.33-2.876 5.714.669 1.622 6.076 2.005v8.944l-6.076 2.01-.669 1.617 2.876 5.72-6.323 6.32-5.713-2.877-1.622.668-2.005 6.083zM186.848 865.397a6.44 6.44 0 0 0-6.43 6.431 6.44 6.44 0 0 0 6.43 6.432 6.44 6.44 0 0 0 6.43-6.432 6.44 6.44 0 0 0-6.43-6.43m0 16.973c-5.815 0-10.541-4.731-10.541-10.543 0-5.816 4.726-10.547 10.54-10.547 5.816 0 10.546 4.731 10.546 10.547 0 5.812-4.73 10.543-10.545 10.543" fill="#E83B21" mask="url(#d)"/><path d="M185.351 891.722h2.992l1.661-5.046 5.108-2.116 4.745 2.392 2.116-2.116-2.392-4.741 2.116-5.104 5.04-1.666v-2.993l-5.04-1.666-2.116-5.104 2.392-4.741-2.12-2.121-4.74 2.392-5.109-2.116-1.66-5.041h-2.993l-1.66 5.04-5.104 2.117-4.745-2.392-2.116 2.121 2.387 4.741-2.11 5.104-5.046 1.666v2.993l5.045 1.666 2.111 5.104-2.387 4.74 2.116 2.117 4.74-2.392 5.108 2.116 1.661 5.046zm5.97 4.116h-8.943l-2.01-6.077-1.616-.673-5.714 2.881-6.328-6.324 2.88-5.72-.672-1.617-6.077-2.01v-8.944l6.077-2.005.673-1.622-2.88-5.715 6.322-6.324 5.719 2.876 1.617-.668 2.01-6.078h8.942l2.004 6.078 1.618.668 5.718-2.876 6.323 6.324-2.876 5.715.668 1.622 6.077 2.005v8.944l-6.077 2.01-.668 1.617 2.876 5.715-6.318 6.33-5.723-2.882-1.618.668-2.004 6.082zM1128.068 1019.008a6.44 6.44 0 0 0-6.43 6.431 6.44 6.44 0 0 0 6.43 6.431 6.44 6.44 0 0 0 6.43-6.43 6.44 6.44 0 0 0-6.43-6.432m0 16.974c-5.815 0-10.545-4.727-10.545-10.543 0-5.816 4.73-10.547 10.545-10.547 5.815 0 10.54 4.731 10.54 10.547 0 5.816-4.725 10.543-10.54 10.543" fill="#E83B21" mask="url(#d)"/><path d="M1126.572 1045.333h2.992l1.66-5.046 5.109-2.111 4.74 2.392 2.12-2.121-2.391-4.741 2.111-5.104 5.045-1.666v-2.993l-5.045-1.666-2.111-5.104 2.392-4.741-2.116-2.116-4.745 2.387-5.108-2.116-1.66-5.041h-2.993l-1.66 5.04-5.109 2.117-4.745-2.387-2.116 2.116 2.392 4.74-2.116 5.105-5.04 1.666v2.993l5.04 1.66 2.116 5.11-2.392 4.74 2.116 2.122 4.745-2.392 5.108 2.111 1.66 5.046zm5.965 4.116h-8.943l-2.004-6.077-1.622-.673-5.714 2.881-6.323-6.324 2.876-5.72-.673-1.617-6.072-2.01v-8.944l6.072-2.005.673-1.622-2.876-5.715 6.323-6.33 5.714 2.887 1.622-.673 2.004-6.078h8.943l2.01 6.078 1.616.673 5.719-2.886 6.323 6.33-2.876 5.718.668 1.618 6.077 2.005v8.944l-6.077 2.01-.668 1.617 2.876 5.72-6.323 6.324-5.719-2.881-1.617.673-2.009 6.077zM1146.639 858.727a6.44 6.44 0 0 0-6.43 6.43 6.44 6.44 0 0 0 6.43 6.432 6.44 6.44 0 0 0 6.43-6.431 6.44 6.44 0 0 0-6.43-6.431m0 16.973c-5.815 0-10.54-4.726-10.54-10.542s4.725-10.548 10.54-10.548c5.815 0 10.545 4.732 10.545 10.548s-4.73 10.542-10.545 10.542" fill="#E83B21" mask="url(#d)"/><path d="M1145.142 885.051h2.992l1.661-5.04 5.108-2.117 4.745 2.387 2.116-2.111-2.392-4.746 2.111-5.104 5.045-1.666v-2.993l-5.045-1.666-2.11-5.104 2.391-4.74-2.116-2.117-4.745 2.387-5.108-2.116-1.66-5.041h-2.993l-1.66 5.041-5.109 2.116-4.74-2.387-2.12 2.116 2.391 4.741-2.11 5.104-5.046 1.666v2.993l5.045 1.666 2.111 5.104-2.392 4.741 2.121 2.121 4.74-2.392 5.108 2.116 1.661 5.041zm5.97 4.117h-8.943l-2.01-6.078-1.616-.668-5.718 2.876-6.324-6.324 2.881-5.72-.673-1.617-6.076-2.005v-8.944l6.076-2.01.673-1.622-2.88-5.715 6.323-6.329 5.718 2.886 1.617-.673 2.01-6.077h8.942l2.005 6.077 1.622.673 5.713-2.886 6.323 6.33-2.876 5.714.668 1.622 6.077 2.01v8.944l-6.077 2.005-.668 1.618 2.876 5.719-6.318 6.324-5.718-2.876-1.622.668-2.005 6.078zM1400.481 847.793c-8.43 0-15.286 6.862-15.286 15.288 0 8.431 6.856 15.288 15.286 15.288s15.286-6.857 15.286-15.288c0-8.426-6.856-15.288-15.286-15.288m0 34.693c-10.696 0-19.396-8.707-19.396-19.405 0-10.697 8.7-19.405 19.396-19.405 10.696 0 19.396 8.708 19.396 19.405 0 10.698-8.7 19.405-19.396 19.405" fill="#E83B21" mask="url(#d)"/><path d="M1397.575 893.332h5.81l2.528-7.666 6.691-2.774 7.21 3.636 4.106-4.106-3.632-7.216 2.77-6.688 7.67-2.532v-5.811l-7.67-2.533-2.77-6.688 3.632-7.21-4.106-4.107-7.21 3.632-6.69-2.775-2.528-7.666h-5.81l-2.528 7.666-6.691 2.775-7.21-3.632-4.106 4.106 3.632 7.211-2.775 6.688-7.664 2.533v5.81l7.664 2.533 2.775 6.688-3.632 7.211 4.106 4.107 7.21-3.632 6.691 2.774 2.527 7.666zm8.783 4.117h-11.755l-2.876-8.703-3.206-1.327-8.178 4.122-8.313-8.315 4.116-8.184-1.327-3.206-8.7-2.877v-11.758l8.7-2.872 1.327-3.205-4.116-8.185 8.309-8.32 8.182 4.122 3.206-1.322 2.876-8.703h11.755l2.877 8.703 3.205 1.322 8.178-4.121 8.318 8.315-4.12 8.189 1.326 3.205 8.7 2.872v11.758l-8.7 2.877-1.327 3.206 4.12 8.184-8.313 8.315-8.182-4.122-3.205 1.327-2.877 8.703zM1335.672 848.164a6.44 6.44 0 0 0-6.43 6.431 6.44 6.44 0 0 0 6.43 6.431 6.44 6.44 0 0 0 6.43-6.43 6.44 6.44 0 0 0-6.43-6.432m0 16.974c-5.815 0-10.545-4.732-10.545-10.543 0-5.816 4.73-10.547 10.545-10.547 5.815 0 10.541 4.731 10.541 10.547 0 5.811-4.726 10.543-10.54 10.543" fill="#E83B21" mask="url(#d)"/><path d="M1334.173 874.489h2.998l1.66-5.046 5.104-2.116 4.745 2.392 2.115-2.116-2.391-4.741 2.11-5.104 5.046-1.666v-2.998l-5.045-1.661-2.111-5.104 2.391-4.741-2.115-2.121-4.745 2.392-5.104-2.116-1.66-5.046h-2.998l-1.66 5.046-5.108 2.116-4.74-2.392-2.116 2.12 2.387 4.742-2.111 5.104-5.046 1.661v2.998l5.04 1.666 2.117 5.099-2.387 4.746 2.116 2.116 4.74-2.392 5.108 2.116 1.66 5.046zm5.97 4.116h-8.942l-2.01-6.077-1.617-.673-5.718 2.876-6.323-6.32 2.88-5.719-.673-1.622-6.071-2.005v-8.944l6.071-2.005.673-1.623-2.88-5.714 6.323-6.324 5.718 2.876 1.617-.673 2.01-6.073h8.942l2.005 6.073 1.622.673 5.718-2.876 6.319 6.324-2.876 5.72.668 1.617 6.076 2.005v8.944l-6.076 2.005-.668 1.617 2.876 5.724-6.319 6.32-5.718-2.876-1.622.673-2.005 6.077zM42.686 925.176a6.44 6.44 0 0 0-6.43 6.432 6.44 6.44 0 0 0 6.43 6.43 6.44 6.44 0 0 0 6.43-6.43 6.44 6.44 0 0 0-6.43-6.432m0 16.974c-5.815 0-10.54-4.726-10.54-10.542 0-5.817 4.725-10.548 10.54-10.548 5.815 0 10.54 4.731 10.54 10.548 0 5.816-4.725 10.542-10.54 10.542" fill="#E83B21" mask="url(#d)"/><path d="M41.19 951.501h2.991l1.661-5.041 5.108-2.116 4.74 2.392 2.121-2.121-2.392-4.741 2.116-5.11 5.04-1.66v-2.998l-5.04-1.66-2.116-5.105 2.392-4.74-2.116-2.117-4.745 2.387-5.108-2.116-1.66-5.041h-2.993l-1.66 5.041-5.104 2.116-4.745-2.387-2.116 2.116 2.387 4.741-2.11 5.104-5.046 1.661v2.998l5.045 1.66 2.111 5.11-2.387 4.741 2.116 2.121 4.745-2.392 5.103 2.116 1.661 5.041zm5.97 4.117H38.21l-2.004-6.078-1.617-.668-5.718 2.876-6.324-6.324 2.881-5.72-.673-1.617-6.076-2.01v-8.944l6.076-2.005.673-1.622-2.88-5.715 6.327-6.33 5.714 2.887 1.617-.673 2.004-6.078h8.948l2.005 6.078 1.617.673 5.718-2.886 6.323 6.33-2.88 5.714.672 1.622 6.077 2.005v8.944l-6.077 2.01-.673 1.617 2.881 5.72-6.323 6.324-5.718-2.876-1.617.668-2.005 6.078zM1290.498 820.593a6.44 6.44 0 0 0-6.43 6.43 6.44 6.44 0 0 0 6.43 6.432 6.44 6.44 0 0 0 6.43-6.431 6.44 6.44 0 0 0-6.43-6.431m0 16.973c-5.815 0-10.545-4.73-10.545-10.542 0-5.816 4.73-10.547 10.545-10.547 5.815 0 10.54 4.73 10.54 10.547 0 5.811-4.725 10.542-10.54 10.542" fill="#E83B21" mask="url(#d)"/><path d="M1289.001 846.918h2.993l1.66-5.046 5.108-2.117 4.745 2.393 2.116-2.117-2.392-4.74 2.111-5.105 5.046-1.666v-2.992l-5.046-1.666-2.11-5.105 2.391-4.74-2.12-2.122-4.74 2.393-5.109-2.117-1.66-5.04H1289l-1.66 5.04-5.108 2.117-4.74-2.393-2.121 2.121 2.392 4.741-2.116 5.105-5.04 1.666v2.992l5.04 1.661 2.116 5.11-2.392 4.74 2.116 2.117 4.745-2.393 5.108 2.117 1.66 5.046zm5.965 4.116h-8.942l-2.005-6.078-1.617-.673-5.718 2.882-6.324-6.325 2.876-5.72-.673-1.617-6.071-2.004v-8.95l6.071-2.005.673-1.622-2.876-5.714 6.324-6.325 5.713 2.877 1.622-.669 2.005-6.077h8.942l2.01 6.077 1.622.669 5.713-2.877 6.324 6.325-2.876 5.719.668 1.617 6.076 2.005v8.95l-6.076 2.004-.668 1.618 2.876 5.714-6.324 6.33-5.718-2.882-1.617.673-2.01 6.078zM83.841 1124.247h-4.115v-27.492a79.16 79.16 0 0 0-26.616-59.173l2.736-3.08a83.286 83.286 0 0 1 27.995 62.253v27.492z" fill="#E83B21" mask="url(#d)"/><path d="M-57.857 1027.665l12.477 14.063a71.656 71.656 0 0 1 46.031-16.717 71.636 71.636 0 0 1 46.031 16.717l12.478-14.063A90.394 90.394 0 0 0 .65 1006.217a90.403 90.403 0 0 0-58.508 21.448zM47.05 1047.52l-1.54-1.37a67.53 67.53 0 0 0-44.859-17.022 67.538 67.538 0 0 0-44.86 17.022l-1.539 1.37-17.934-20.218 1.54-1.37c17.314-15.366 39.615-23.827 62.793-23.827 23.183 0 45.484 8.46 62.798 23.826l1.54 1.37-17.939 20.22zM61.601 1189.916l-.668-4.063c17.242-2.823 29.753-17.579 29.753-35.08 0-17.502-12.511-32.257-29.753-35.076l.668-4.063c19.237 3.148 33.2 19.608 33.2 39.139 0 19.526-13.963 35.99-33.2 39.143" fill="#E83B21" mask="url(#d)"/><path d="M47.274 1107.351c-7.684 0-13.934 6.364-13.934 14.185v58.475c0 7.821 6.25 14.184 13.934 14.184 7.684 0 13.935-6.363 13.935-14.184v-58.475c0-7.821-6.25-14.185-13.935-14.185m0 90.96c-9.954 0-18.05-8.213-18.05-18.3v-58.475c0-10.093 8.096-18.3 18.05-18.3 9.955 0 18.05 8.207 18.05 18.3v58.475c0 10.087-8.095 18.3-18.05 18.3M-24.991 934.278c-9.776 0-17.73 7.956-17.73 17.734 0 9.777 7.954 17.729 17.73 17.729s17.726-7.952 17.726-17.73c0-9.777-7.95-17.733-17.726-17.733zm0 39.579c-12.046 0-21.841-9.802-21.841-21.845 0-12.049 9.795-21.85 21.84-21.85 12.043 0 21.842 9.801 21.842 21.85 0 12.043-9.8 21.845-21.841 21.845zm-4.44 19.661h8.875L-17.089 983l8.415-3.492 9.892 4.988 6.27-6.27-4.982-9.894 3.48-8.417 10.522-3.467v-8.872l-10.516-3.472-3.486-8.412 4.982-9.894-6.27-6.276-9.892 4.983-8.415-3.487-3.467-10.513h-8.875l-3.462 10.513-8.415 3.487-9.892-4.983-6.27 6.276 4.977 9.894-3.48 8.407-10.517 3.477v8.872l10.516 3.467 3.481 8.417-4.977 9.893 6.265 6.271 9.897-4.988 8.415 3.492 3.462 10.518zm11.848 4.117h-14.82l-3.811-11.555-4.93-2.044-10.864 5.477-10.478-10.48 5.471-10.871-2.043-4.925-11.548-3.816v-14.823l11.548-3.812 2.043-4.93-5.471-10.871 10.478-10.475 10.865 5.472 4.929-2.039 3.81-11.554h14.82l3.811 11.554 4.93 2.04 10.87-5.473 10.472 10.48-5.471 10.866 2.043 4.925 11.548 3.817v14.823L9.07 963.237l-2.043 4.925 5.471 10.867-10.473 10.484-10.87-5.477-4.929 2.044-3.81 11.555zM228.064 804.256a6.44 6.44 0 0 0-6.43 6.431 6.44 6.44 0 0 0 6.43 6.431 6.44 6.44 0 0 0 6.43-6.43 6.44 6.44 0 0 0-6.43-6.432m0 16.974c-5.815 0-10.545-4.727-10.545-10.543 0-5.816 4.73-10.547 10.545-10.547 5.815 0 10.541 4.731 10.541 10.547 0 5.816-4.726 10.543-10.54 10.543" fill="#E83B21" mask="url(#d)"/><path d="M226.568 830.583h2.992l1.66-5.046 5.109-2.116 4.74 2.392 2.12-2.116-2.391-4.741 2.11-5.109 5.046-1.661v-2.993l-5.045-1.67-2.111-5.1 2.392-4.746-2.116-2.116-4.745 2.392-5.108-2.116-1.66-5.046h-2.993l-1.66 5.046-5.109 2.116-4.745-2.392-2.116 2.116 2.392 4.746-2.116 5.1-5.04 1.67v2.993l5.04 1.661 2.116 5.104-2.392 4.746 2.12 2.116 4.741-2.392 5.108 2.116 1.66 5.046zm5.965 4.117h-8.943l-2.004-6.078-1.622-.673-5.714 2.876-6.323-6.32 2.876-5.718-.673-1.618-6.072-2.01v-8.944l6.077-2.005.668-1.622-2.876-5.715 6.323-6.329 5.718 2.881 1.618-.668 2.004-6.077h8.943l2.01 6.077 1.616.668 5.719-2.881 6.323 6.325-2.876 5.719.668 1.622 6.077 2.005v8.944l-6.077 2.01-.668 1.618 2.876 5.719-6.323 6.32-5.714-2.877-1.622.673-2.009 6.078zM-10.454 830.583h2.993l1.66-5.046 5.109-2.116 4.74 2.392 2.12-2.116-2.391-4.746 2.11-5.104 5.046-1.661v-2.993l-5.04-1.67-2.116-5.1 2.391-4.746-2.115-2.116-4.745 2.392-5.109-2.116-1.66-5.046h-2.993l-1.66 5.046-5.104 2.116-4.745-2.392-2.115 2.116 2.387 4.746-2.116 5.1-5.04 1.67v2.993l5.04 1.661 2.116 5.104-2.387 4.746 2.115 2.116 4.745-2.392 5.104 2.116 1.66 5.046zm5.966 4.117h-8.943l-2.005-6.083-1.617-.668-5.718 2.876-6.323-6.32 2.876-5.718-.673-1.618-6.072-2.01v-8.944l6.076-2.005.669-1.622-2.876-5.715 6.323-6.329 5.718 2.881 1.617-.668 2.005-6.077h8.943l2.009 6.077 1.617.668 5.718-2.881 6.324 6.325-2.876 5.719.668 1.622 6.076 2.005v8.944l-6.076 2.01-.668 1.618 2.876 5.719-6.324 6.32-5.718-2.877-1.617.673-2.01 6.078zM1358.723 650.049c-45.658 0-82.805 37.153-82.805 82.82 0 45.666 37.147 82.82 82.805 82.82 45.658 0 82.804-37.154 82.804-82.82 0-45.667-37.146-82.82-82.804-82.82m0 169.755c-47.93 0-86.92-38.998-86.92-86.935 0-47.938 38.99-86.936 86.92-86.936 47.929 0 86.92 38.998 86.92 86.936 0 47.937-38.991 86.935-86.92 86.935" fill="#E83B21" mask="url(#d)"/><path d="M1351.273 748.927h-4.115V726.82c0-4.383-3.564-7.952-7.946-7.952h-1.331c-4.382 0-7.946 3.57-7.946 7.952v22.107h-4.115V726.82c0-6.654 5.413-12.068 12.06-12.068h1.332c6.648 0 12.061 5.414 12.061 12.068v22.107zM1369.726 751.774l-12.724-12.175v-22.79h4.11v21.028l8.614 8.242 8.613-8.242V716.81h4.111v22.79zM1413.63 748.927h-4.115V726.82c0-4.383-3.563-7.952-7.945-7.952h-1.332c-4.381 0-7.945 3.57-7.945 7.952v22.107h-4.115V726.82c0-6.654 5.413-12.068 12.06-12.068h1.332c6.648 0 12.06 5.414 12.06 12.068v22.107zM1308.033 750.984h-1.327c-6.652 0-12.065-5.414-12.065-12.063h4.115c0 4.383 3.564 7.947 7.95 7.947h1.327c4.382 0 7.95-3.564 7.95-7.947v-22.112h4.111v22.112c0 6.649-5.408 12.063-12.061 12.063" fill="#E83B21" mask="url(#d)"/><path fill="#E83B21" mask="url(#d)" d="M1327.878 734.926h21.338v-4.116h-21.338zM1390.235 734.926h21.338v-4.116h-21.338zM1422.574 610.078c-8.43 0-15.285 6.857-15.285 15.288 0 8.427 6.856 15.289 15.285 15.289 8.43 0 15.286-6.862 15.286-15.289 0-8.43-6.856-15.288-15.286-15.288m0 34.693c-10.7 0-19.4-8.707-19.4-19.405 0-10.697 8.7-19.404 19.4-19.404 10.696 0 19.396 8.707 19.396 19.404 0 10.698-8.7 19.405-19.396 19.405"/><path d="M1419.669 655.618h5.81l2.527-7.666 6.692-2.775 7.209 3.632 4.106-4.107-3.631-7.21 2.774-6.688 7.664-2.533v-5.811l-7.669-2.533-2.77-6.688 3.632-7.21-4.106-4.107-7.21 3.632-6.69-2.775-2.528-7.666h-5.81l-2.528 7.67-6.691 2.771-7.21-3.632-4.105 4.107 3.63 7.21-2.773 6.688-7.665 2.533v5.811l7.665 2.533 2.774 6.687-3.636 7.216 4.11 4.107 7.21-3.637 6.691 2.775 2.528 7.666zm8.787 4.116h-11.76l-2.871-8.702-3.21-1.327-8.183 4.12-8.314-8.314 4.12-8.184-1.326-3.206-8.7-2.877v-11.758l8.7-2.871 1.327-3.211-4.12-8.18 8.313-8.32 8.182 4.122 3.21-1.322 2.872-8.702h11.76l2.867 8.702 3.205 1.322 8.183-4.121 8.318 8.32-4.125 8.179 1.331 3.21 8.696 2.872v11.758l-8.7 2.877-1.327 3.206 4.125 8.18-8.313 8.319-8.188-4.121-3.205 1.327-2.867 8.702zM1374.12 1124.242h-4.115v-27.487c.005-23.768 10.207-46.456 28-62.253l2.736 3.08c-16.917 15.017-26.62 36.586-26.62 59.173v27.487z" fill="#E83B21" mask="url(#d)"/><path d="M1394.684 1027.665l12.478 14.063a71.655 71.655 0 0 1 46.03-16.717 71.636 71.636 0 0 1 46.032 16.717l12.477-14.063a90.384 90.384 0 0 0-58.508-21.448 90.403 90.403 0 0 0-58.509 21.448zm104.908 19.855l-1.54-1.37a67.51 67.51 0 0 0-44.86-17.022 67.538 67.538 0 0 0-44.859 17.022l-1.54 1.37-17.933-20.218 1.54-1.37c17.314-15.366 39.615-23.827 62.793-23.827 23.182 0 45.484 8.46 62.798 23.826l1.535 1.37-17.934 20.22zM1392.249 1189.916c-19.237-3.152-33.2-19.617-33.2-39.143 0-19.53 13.963-35.991 33.2-39.139l.668 4.063c-17.242 2.819-29.753 17.574-29.753 35.076 0 17.501 12.511 32.257 29.753 35.08l-.668 4.063z" fill="#E83B21" mask="url(#d)"/><path d="M1406.576 1107.351c-7.684 0-13.935 6.364-13.935 14.185v58.475c0 7.821 6.25 14.184 13.935 14.184 7.684 0 13.935-6.363 13.935-14.184v-58.475c0-7.821-6.251-14.185-13.935-14.185m0 90.96c-9.955 0-18.05-8.213-18.05-18.3v-58.475c0-10.093 8.095-18.3 18.05-18.3s18.05 8.207 18.05 18.3v58.475c0 10.087-8.095 18.3-18.05 18.3M1427.551 934.278c-9.776 0-17.73 7.956-17.73 17.734 0 9.777 7.954 17.729 17.73 17.729s17.726-7.952 17.726-17.73c0-9.777-7.95-17.733-17.726-17.733zm0 39.579c-12.046 0-21.841-9.802-21.841-21.845 0-12.049 9.795-21.85 21.841-21.85 12.042 0 21.841 9.801 21.841 21.85 0 12.043-9.8 21.845-21.84 21.845zm-4.44 19.661h8.875l3.467-10.518 8.415-3.492 9.892 4.988 6.27-6.27-4.982-9.894 3.48-8.417 10.522-3.467v-8.872l-10.521-3.472-3.481-8.412 4.982-9.894-6.27-6.276-9.892 4.983-8.415-3.487-3.467-10.513h-8.875l-3.462 10.513-8.415 3.487-9.892-4.983-6.27 6.276 4.978 9.894-3.482 8.407-10.516 3.477v8.872l10.516 3.467 3.482 8.417-4.978 9.893 6.266 6.271 9.896-4.988 8.415 3.492 3.462 10.518zm11.848 4.117h-14.82l-3.811-11.555-4.93-2.044-10.864 5.477-10.478-10.48 5.471-10.871-2.043-4.925-11.548-3.816v-14.823l11.548-3.812 2.043-4.93-5.47-10.871 10.477-10.475 10.865 5.472 4.929-2.039 3.81-11.554h14.821l3.81 11.554 4.93 2.04 10.865-5.473 10.477 10.48-5.471 10.866 2.043 4.925 11.553 3.817v14.823l-11.553 3.816-2.043 4.925 5.471 10.867-10.473 10.484-10.87-5.477-4.928 2.044-3.811 11.555z" fill="#E83B21" mask="url(#d)"/><path d="M1427.551 942.064c-5.48 0-9.945 4.46-9.945 9.947 0 5.482 4.464 9.942 9.945 9.942s9.945-4.46 9.945-9.942c0-5.487-4.464-9.947-9.945-9.947m0 24.006c-7.752 0-14.056-6.306-14.056-14.059 0-7.753 6.304-14.063 14.056-14.063 7.752 0 14.056 6.31 14.056 14.063 0 7.753-6.304 14.059-14.056 14.059M1443.585 804.256a6.44 6.44 0 0 0-6.43 6.431 6.44 6.44 0 0 0 6.43 6.431 6.44 6.44 0 0 0 6.43-6.43 6.44 6.44 0 0 0-6.43-6.432m0 16.974c-5.815 0-10.546-4.727-10.546-10.543 0-5.816 4.73-10.547 10.546-10.547 5.815 0 10.54 4.731 10.54 10.547 0 5.816-4.725 10.543-10.54 10.543" fill="#E83B21" mask="url(#d)"/><path d="M1442.088 830.583h2.992l1.661-5.046 5.108-2.116 4.74 2.392 2.116-2.116-2.387-4.746 2.111-5.104 5.05-1.661v-2.993l-5.05-1.666-2.11-5.104 2.386-4.746-2.116-2.116-4.74 2.392-5.108-2.116-1.66-5.046h-2.993l-1.66 5.046-5.104 2.116-4.745-2.392-2.116 2.116 2.387 4.746-2.116 5.1-5.04 1.67v2.993l5.04 1.661 2.116 5.104-2.387 4.746 2.116 2.116 4.745-2.392 5.103 2.116 1.661 5.046zm5.965 4.117h-8.943l-2.004-6.083-1.617-.668-5.718 2.876-6.324-6.32 2.876-5.718-.673-1.618-6.071-2.01v-8.944l6.076-2.005.668-1.622-2.876-5.715 6.324-6.329 5.718 2.881 1.617-.668 2.004-6.077h8.943l2.01 6.077 1.617.668 5.718-2.881 6.318 6.33-2.876 5.714.673 1.617 6.077 2.01v8.944l-6.077 2.01-.673 1.618 2.876 5.714-6.318 6.33-5.718-2.882-1.617.673-2.01 6.078z" fill="#E83B21" mask="url(#d)"/></g></g></g></svg>